<svg width="1288" height="1094" viewBox="0 0 1288 1094" fill="none" xmlns="http://www.w3.org/2000/svg">
<g opacity="0.2">
<g filter="url(#filter0_f_703_1328)">
<circle r="297.244" transform="matrix(-1 0 0 1 472.889 624.537)" fill="#009D9D" fill-opacity="0.5"/>
</g>
<g filter="url(#filter1_f_703_1328)">
<circle r="297.244" transform="matrix(-1 0 0 1 818.49 469.488)" fill="#1D4ED8" fill-opacity="0.5"/>
</g>
</g>
<path d="M0.990128 321.467C0.990129 305.778 4.03668 290.243 9.95585 275.749C15.875 261.255 24.5509 248.085 35.4881 236.992C46.4253 225.898 59.4096 217.098 73.6997 211.095C87.9899 205.091 103.306 202.001 118.773 202.001L118.773 321.467L0.990128 321.467Z" fill="#009D9D"/>
<path d="M1210.78 606C1210.78 621.688 1207.74 637.223 1201.82 651.718C1195.9 666.212 1187.22 679.382 1176.29 690.475C1165.35 701.569 1152.36 710.368 1138.07 716.372C1123.78 722.376 1108.47 725.466 1093 725.466L1093 606H1210.78Z" fill="#1D4ED8"/>
<g clip-path="url(#clip0_703_1328)">
<path d="M887.123 324.808L960.268 324.933L960.54 365.567L887.127 365.538L887.123 324.808Z" fill="#F9F9F9"/>
<path d="M960.552 366.011L887.124 366.015C886.871 366.015 886.663 365.826 886.664 365.572L886.66 324.842C886.661 324.715 886.705 324.62 886.795 324.524C886.885 324.428 886.989 324.396 887.123 324.396L960.268 324.489C960.521 324.488 960.714 324.678 960.728 324.932L961 365.565C961 365.692 960.955 365.788 960.865 365.883C960.776 365.947 960.671 366.011 960.552 366.011ZM887.573 365.092L960.094 365.092L959.834 325.379L887.581 325.283L887.573 365.092Z" fill="#292929"/>
<path d="M924.4 344.59C924.335 344.59 924.253 344.557 924.188 344.557L886.911 325.485C886.682 325.384 886.601 325.112 886.716 324.875C886.832 324.637 887.11 324.568 887.322 324.669L924.387 343.64L959.677 324.89C959.906 324.788 960.167 324.855 960.298 325.092C960.412 325.329 960.329 325.601 960.116 325.703L924.613 344.556C924.548 344.556 924.482 344.59 924.4 344.59Z" fill="#292929"/>
<path d="M960.151 328.793C959.109 328.793 958.263 327.07 958.263 324.945C958.263 322.819 959.109 321.096 960.151 321.096C961.194 321.096 962.039 322.819 962.039 324.945C962.039 327.07 961.194 328.793 960.151 328.793Z" fill="#5856B8"/>
<path d="M684.88 654.101C659.218 654.101 634.314 649.076 610.892 639.147C588.257 629.582 567.922 615.869 550.461 598.403C533.001 580.937 519.292 560.595 509.73 537.952C499.805 514.523 494.781 489.61 494.781 463.94C494.781 438.271 499.805 413.358 509.73 389.928C519.292 367.286 533.001 346.944 550.461 329.477C567.922 312.011 588.257 298.299 610.892 288.733C634.314 278.804 659.218 273.779 684.88 273.779C710.541 273.779 735.445 278.804 758.867 288.733C781.502 298.299 801.837 312.011 819.298 329.477C836.758 346.944 850.466 367.286 860.029 389.928C869.954 413.358 874.978 438.271 874.978 463.94C874.978 489.61 869.954 514.523 860.029 537.952C850.466 560.595 836.758 580.937 819.298 598.403C801.837 615.869 781.502 629.582 758.867 639.147C735.445 649.076 710.541 654.101 684.88 654.101ZM684.88 274.748C580.571 274.748 495.719 359.627 495.719 463.97C495.719 568.314 580.571 653.193 684.88 653.193C789.188 653.193 874.04 568.314 874.04 463.97C874.04 359.627 789.188 274.748 684.88 274.748Z" fill="#5856B8"/>
<path d="M966.489 577.393L965.036 572.852L955.564 575.879L952.508 566.404L947.969 567.857L950.995 577.362L941.523 580.389L942.976 584.96L952.448 581.903L955.504 591.378L960.043 589.925L957.017 580.45L966.489 577.393Z" fill="#F9F9F9"/>
<path d="M955.502 591.832C955.442 591.832 955.351 591.802 955.29 591.771C955.169 591.711 955.109 591.62 955.078 591.499L952.173 582.448L943.125 585.354C942.883 585.445 942.641 585.293 942.551 585.051L941.098 580.511C941.068 580.39 941.068 580.269 941.128 580.178C941.189 580.057 941.28 579.996 941.401 579.966L950.449 577.06L947.544 568.009C947.513 567.888 947.513 567.767 947.574 567.676C947.634 567.555 947.725 567.494 947.846 567.464L952.385 566.011C952.627 565.92 952.869 566.072 952.96 566.314L955.865 575.365L964.913 572.459C965.155 572.368 965.397 572.519 965.488 572.761L966.941 577.302C966.971 577.423 966.971 577.544 966.91 577.635C966.85 577.756 966.759 577.817 966.638 577.847L957.59 580.753L960.495 589.804C960.586 590.046 960.435 590.288 960.193 590.379L955.653 591.832C955.593 591.832 955.563 591.832 955.502 591.832ZM952.446 581.449C952.506 581.449 952.597 581.479 952.658 581.51C952.779 581.57 952.839 581.661 952.869 581.782L955.774 590.833L959.466 589.653L956.561 580.602C956.47 580.359 956.622 580.117 956.864 580.026L965.912 577.12L964.732 573.427L955.684 576.333C955.563 576.364 955.442 576.364 955.351 576.303C955.23 576.243 955.169 576.152 955.139 576.031L952.234 566.98L948.542 568.16L951.447 577.211C951.477 577.332 951.477 577.453 951.417 577.544C951.356 577.665 951.266 577.726 951.145 577.756L942.097 580.662L943.277 584.355L952.325 581.449C952.355 581.449 952.416 581.449 952.446 581.449Z" fill="#292929"/>
<path d="M275.966 481.496L266.494 484.553L263.438 475.078L258.899 476.531L261.925 486.006L252.453 489.063L253.906 493.604L263.377 490.546L266.434 500.051L270.973 498.568L267.947 489.093L277.418 486.066L275.966 481.496Z" fill="#F9F9F9"/>
<path d="M266.431 500.505C266.37 500.505 266.279 500.475 266.219 500.444C266.098 500.384 266.037 500.293 266.007 500.172L263.102 491.121L254.054 494.027C253.933 494.057 253.812 494.057 253.691 493.997C253.57 493.936 253.509 493.845 253.479 493.724L252.027 489.184C251.936 488.941 252.087 488.699 252.329 488.608L261.377 485.702L258.472 476.652C258.381 476.409 258.533 476.167 258.775 476.076L263.314 474.623C263.435 474.593 263.556 474.593 263.647 474.654C263.768 474.714 263.828 474.805 263.859 474.926L266.764 483.977L275.812 481.071C275.933 481.041 276.054 481.041 276.144 481.101C276.266 481.162 276.326 481.253 276.356 481.374L277.809 485.914C277.9 486.157 277.748 486.399 277.506 486.49L268.458 489.396L271.363 498.446C271.454 498.689 271.303 498.931 271.061 499.022L266.522 500.475C266.522 500.475 266.461 500.505 266.431 500.505ZM263.374 490.092C263.435 490.092 263.526 490.122 263.586 490.152C263.707 490.213 263.768 490.304 263.798 490.425L266.703 499.476L270.395 498.295L267.49 489.244C267.399 489.002 267.55 488.76 267.792 488.669L276.84 485.763L275.66 482.07L266.612 484.976C266.37 485.067 266.128 484.915 266.037 484.673L263.132 475.622L259.441 476.803L262.346 485.854C262.376 485.975 262.376 486.096 262.315 486.187C262.255 486.308 262.164 486.368 262.043 486.399L252.995 489.305L254.175 492.998L263.223 490.092C263.284 490.122 263.344 490.092 263.374 490.092Z" fill="#292929"/>
<path d="M803.346 835.785C810.047 835.785 815.48 830.35 815.48 823.646C815.48 816.942 810.047 811.508 803.346 811.508C796.644 811.508 791.211 816.942 791.211 823.646C791.211 830.35 796.644 835.785 803.346 835.785Z" fill="#F9F9F9"/>
<path d="M803.346 836.269C796.386 836.269 790.758 830.609 790.758 823.677C790.758 816.745 796.417 811.084 803.346 811.084C810.276 811.084 815.935 816.745 815.935 823.677C815.935 830.609 810.306 836.269 803.346 836.269ZM803.346 811.962C796.901 811.962 791.666 817.199 791.666 823.646C791.666 830.094 796.901 835.331 803.346 835.331C809.792 835.331 815.027 830.094 815.027 823.646C815.027 817.199 809.792 811.962 803.346 811.962Z" fill="#292929"/>
<path d="M696.771 219.108C699.713 219.108 702.097 216.723 702.097 213.781C702.097 210.838 699.713 208.453 696.771 208.453C693.83 208.453 691.445 210.838 691.445 213.781C691.445 216.723 693.83 219.108 696.771 219.108Z" fill="#F9F9F9"/>
<path d="M696.772 219.593C693.564 219.593 690.992 216.989 690.992 213.811C690.992 210.602 693.595 208.029 696.772 208.029C699.98 208.029 702.552 210.633 702.552 213.811C702.552 216.989 699.949 219.593 696.772 219.593ZM696.772 208.907C694.079 208.907 691.9 211.087 691.9 213.781C691.9 216.475 694.079 218.654 696.772 218.654C699.465 218.654 701.644 216.475 701.644 213.781C701.644 211.087 699.465 208.907 696.772 208.907Z" fill="#292929"/>
<path d="M912.319 660.486C914.843 660.486 916.889 658.439 916.889 655.915C916.889 653.39 914.843 651.344 912.319 651.344C909.796 651.344 907.75 653.39 907.75 655.915C907.75 658.439 909.796 660.486 912.319 660.486Z" fill="#F9F9F9"/>
<path d="M912.32 660.941C909.566 660.941 907.297 658.7 907.297 655.916C907.297 653.161 909.536 650.891 912.32 650.891C915.104 650.891 917.343 653.131 917.343 655.916C917.313 658.7 915.074 660.941 912.32 660.941ZM912.32 651.829C910.051 651.829 908.205 653.676 908.205 655.946C908.205 658.216 910.051 660.063 912.32 660.063C914.59 660.063 916.436 658.216 916.436 655.946C916.405 653.676 914.559 651.829 912.32 651.829Z" fill="#292929"/>
<path d="M544.076 482.314H337.032C330.466 482.314 325.109 476.986 325.109 470.387V335.622C325.109 329.053 330.435 323.695 337.032 323.695H555.999V470.387C555.999 476.986 550.673 482.314 544.076 482.314Z" fill="#F9F9F9"/>
<path d="M544.077 482.769H337.033C330.224 482.769 324.656 477.229 324.656 470.388V335.623C324.656 328.812 330.194 323.242 337.033 323.242H556C556.242 323.242 556.454 323.454 556.454 323.696V470.388C556.454 477.229 550.886 482.769 544.077 482.769ZM337.033 324.15C330.708 324.15 325.564 329.296 325.564 335.623V470.419C325.564 476.745 330.708 481.891 337.033 481.891H544.077C550.402 481.891 555.546 476.745 555.546 470.419V324.15H337.033Z" fill="#5856B8"/>
<path d="M651.589 455.645H371.647C361.449 455.645 353.188 447.381 353.188 437.18V256.645C353.188 246.444 361.449 238.18 371.647 238.18H651.589C661.787 238.18 670.048 246.444 670.048 256.645V437.18C670.048 447.381 661.787 455.645 651.589 455.645Z" fill="#F9F9F9"/>
<path d="M651.59 456.1H371.647C361.207 456.1 352.734 447.624 352.734 437.181V256.646C352.734 246.202 361.207 237.727 371.647 237.727H651.59C662.03 237.727 670.503 246.202 670.503 256.646V437.181C670.503 447.624 662.03 456.1 651.59 456.1ZM371.647 238.635C361.722 238.635 353.642 246.717 353.642 256.646V437.181C353.642 447.109 361.722 455.192 371.647 455.192H651.59C661.515 455.192 669.595 447.109 669.595 437.181V256.646C669.595 246.717 661.515 238.635 651.59 238.635H371.647Z" fill="#5856B8"/>
<path d="M490.272 273.718H377.702C375.191 273.718 373.133 271.66 373.133 269.147C373.133 266.635 375.191 264.576 377.702 264.576H490.303C492.814 264.576 494.872 266.635 494.872 269.147C494.842 271.69 492.814 273.718 490.272 273.718Z" fill="#F9F9F9"/>
<path d="M490.273 274.173H377.703C374.949 274.173 372.68 271.933 372.68 269.148C372.68 266.393 374.919 264.123 377.703 264.123H490.303C493.057 264.123 495.327 266.363 495.327 269.148C495.296 271.933 493.057 274.173 490.273 274.173ZM377.703 265.031C375.433 265.031 373.588 266.878 373.588 269.148C373.588 271.418 375.433 273.265 377.703 273.265H490.303C492.573 273.265 494.419 271.418 494.419 269.148C494.419 266.878 492.573 265.031 490.303 265.031H377.703Z" fill="#292929"/>
<path d="M606.835 273.718H552.819C550.308 273.718 548.25 271.66 548.25 269.147C548.25 266.635 550.308 264.576 552.819 264.576H606.835C609.347 264.576 611.404 266.635 611.404 269.147C611.404 271.69 609.377 273.718 606.835 273.718Z" fill="#F9F9F9"/>
<path d="M606.836 274.173H552.82C550.066 274.173 547.797 271.933 547.797 269.148C547.797 266.393 550.036 264.123 552.82 264.123H606.836C609.589 264.123 611.859 266.363 611.859 269.148C611.859 271.933 609.62 274.173 606.836 274.173ZM552.82 265.031C550.551 265.031 548.705 266.878 548.705 269.148C548.705 271.418 550.551 273.265 552.82 273.265H606.836C609.105 273.265 610.951 271.418 610.951 269.148C610.951 266.878 609.105 265.031 606.836 265.031H552.82Z" fill="#292929"/>
<path d="M490.273 301.567H377.703C374.949 301.567 372.68 299.327 372.68 296.543C372.68 293.758 374.919 291.518 377.703 291.518H490.303C493.057 291.518 495.327 293.758 495.327 296.543C495.327 299.327 493.057 301.567 490.273 301.567ZM377.703 292.426C375.433 292.426 373.588 294.272 373.588 296.543C373.588 298.813 375.433 300.659 377.703 300.659H490.303C492.573 300.659 494.419 298.813 494.419 296.543C494.419 294.272 492.573 292.426 490.303 292.426H377.703Z" fill="#5856B8"/>
<path d="M570.186 301.114H516.171C513.659 301.114 511.602 299.056 511.602 296.544C511.602 294.031 513.659 291.973 516.171 291.973H570.186C572.698 291.973 574.756 294.031 574.756 296.544C574.756 299.086 572.728 301.114 570.186 301.114Z" fill="#292929"/>
<path d="M610.257 301.114H593.28C590.769 301.114 588.711 299.056 588.711 296.544C588.711 294.031 590.769 291.973 593.28 291.973H610.257C612.768 291.973 614.826 294.031 614.826 296.544C614.826 299.086 612.799 301.114 610.257 301.114Z" fill="#292929"/>
<path d="M436.772 385.841H382.757C380.245 385.841 378.188 383.783 378.188 381.27C378.188 378.758 380.245 376.699 382.757 376.699H436.772C439.284 376.699 441.342 378.758 441.342 381.27C441.342 383.813 439.314 385.841 436.772 385.841Z" fill="#292929"/>
<path d="M647.289 385.841H490.538C488.026 385.841 485.969 383.783 485.969 381.27C485.969 378.758 488.026 376.699 490.538 376.699H647.289C649.801 376.699 651.858 378.758 651.858 381.27C651.858 383.813 649.801 385.841 647.289 385.841Z" fill="#292929"/>
<path d="M487.883 412.601H433.867C431.113 412.601 428.844 410.361 428.844 407.576C428.844 404.821 431.083 402.551 433.867 402.551H487.883C490.636 402.551 492.906 404.791 492.906 407.576C492.906 410.33 490.636 412.601 487.883 412.601ZM433.867 403.459C431.597 403.459 429.752 405.305 429.752 407.576C429.752 409.846 431.597 411.693 433.867 411.693H487.883C490.152 411.693 491.998 409.846 491.998 407.576C491.998 405.305 490.152 403.459 487.883 403.459H433.867Z" fill="#5856B8"/>
<path d="M538.961 328.72H426.39C423.637 328.72 421.367 326.48 421.367 323.695C421.367 320.91 423.606 318.67 426.39 318.67H538.991C541.745 318.67 544.014 320.91 544.014 323.695C544.014 326.48 541.745 328.72 538.961 328.72ZM426.39 319.578C424.121 319.578 422.275 321.425 422.275 323.695C422.275 325.965 424.121 327.812 426.39 327.812H538.991C541.26 327.812 543.106 325.965 543.106 323.695C543.106 321.425 541.26 319.578 538.991 319.578H426.39Z" fill="#5856B8"/>
<path d="M615.733 409.331H561.718C559.206 409.331 557.148 407.273 557.148 404.76C557.148 402.248 559.206 400.189 561.718 400.189H615.733C618.245 400.189 620.303 402.248 620.303 404.76C620.272 407.303 618.245 409.331 615.733 409.331Z" fill="#5856B8"/>
<path d="M538.956 436.939H382.75C379.996 436.939 377.727 434.699 377.727 431.914C377.727 429.159 379.966 426.889 382.75 426.889H538.956C541.71 426.889 543.979 429.129 543.979 431.914C543.979 434.699 541.74 436.939 538.956 436.939ZM382.75 427.827C380.48 427.827 378.634 429.674 378.634 431.944C378.634 434.214 380.48 436.061 382.75 436.061H538.956C541.226 436.061 543.071 434.214 543.071 431.944C543.071 429.674 541.226 427.827 538.956 427.827H382.75Z" fill="#5856B8"/>
<path d="M618.875 328.72H564.859C562.106 328.72 559.836 326.48 559.836 323.695C559.836 320.91 562.075 318.67 564.859 318.67H618.875C621.628 318.67 623.898 320.91 623.898 323.695C623.898 326.48 621.659 328.72 618.875 328.72ZM564.859 319.578C562.59 319.578 560.744 321.425 560.744 323.695C560.744 325.965 562.59 327.812 564.859 327.812H618.875C621.144 327.812 622.99 325.965 622.99 323.695C622.99 321.425 621.144 319.578 618.875 319.578H564.859Z" fill="#5856B8"/>
<path d="M495.357 356.056H382.757C380.245 356.056 378.188 353.997 378.188 351.485C378.188 348.972 380.245 346.914 382.757 346.914H495.357C497.869 346.914 499.927 348.972 499.927 351.485C499.927 353.997 497.869 356.056 495.357 356.056Z" fill="#5856B8"/>
<path d="M575.272 356.056H521.257C518.745 356.056 516.688 353.997 516.688 351.485C516.688 348.972 518.745 346.914 521.257 346.914H575.272C577.784 346.914 579.842 348.972 579.842 351.485C579.842 353.997 577.784 356.056 575.272 356.056Z" fill="#292929"/>
<path d="M647.296 356.056H593.28C590.769 356.056 588.711 353.997 588.711 351.485C588.711 348.972 590.769 346.914 593.28 346.914H647.296C649.807 346.914 651.865 348.972 651.865 351.485C651.865 353.997 649.807 356.056 647.296 356.056Z" fill="#292929"/>
<path d="M374.77 270.57H286.923C281.93 270.57 277.875 266.514 277.875 261.519V222.863C277.875 217.869 281.93 213.812 286.923 213.812H374.77C379.763 213.812 383.818 217.869 383.818 222.863V261.519C383.818 266.514 379.763 270.57 374.77 270.57Z" fill="#5856B8"/>
<path d="M296.877 247.141C296.726 247.141 296.544 247.05 296.484 246.899C296.363 246.687 296.454 246.415 296.665 246.294L314.913 236.91C315.125 236.789 315.397 236.879 315.518 237.091C315.639 237.303 315.548 237.576 315.336 237.697L297.089 247.081C296.998 247.111 296.938 247.141 296.877 247.141Z" fill="#F9F9F9"/>
<path d="M315.125 256.526C315.064 256.526 314.973 256.496 314.913 256.465L296.665 247.082C296.454 246.96 296.363 246.688 296.484 246.476C296.605 246.264 296.877 246.173 297.089 246.294L315.336 255.678C315.548 255.799 315.639 256.072 315.518 256.284C315.427 256.435 315.276 256.526 315.125 256.526Z" fill="#F9F9F9"/>
<path d="M364.843 247.141C364.783 247.141 364.692 247.111 364.631 247.081L346.384 237.697C346.172 237.576 346.082 237.303 346.203 237.091C346.324 236.879 346.596 236.789 346.808 236.91L365.055 246.294C365.267 246.415 365.358 246.687 365.237 246.899C365.146 247.05 364.995 247.141 364.843 247.141Z" fill="#F9F9F9"/>
<path d="M346.565 256.526C346.413 256.526 346.232 256.435 346.171 256.284C346.05 256.072 346.141 255.799 346.353 255.678L364.6 246.294C364.812 246.173 365.084 246.264 365.205 246.476C365.326 246.688 365.236 246.96 365.024 247.082L346.777 256.465C346.716 256.496 346.656 256.526 346.565 256.526Z" fill="#F9F9F9"/>
<path d="M323.295 257.856C323.234 257.856 323.174 257.826 323.083 257.796C322.871 257.675 322.78 257.402 322.871 257.19L332.797 237.091C332.918 236.879 333.19 236.788 333.402 236.879C333.614 237 333.704 237.272 333.614 237.484L323.688 257.584C323.597 257.766 323.446 257.856 323.295 257.856Z" fill="#F9F9F9"/>
<path d="M330.131 257.856C330.07 257.856 330.01 257.826 329.919 257.796C329.707 257.675 329.616 257.402 329.707 257.19L339.632 237.091C339.754 236.879 340.026 236.788 340.238 236.879C340.45 237 340.54 237.272 340.45 237.484L330.524 257.584C330.433 257.766 330.282 257.856 330.131 257.856Z" fill="#F9F9F9"/>
<path d="M383.819 225.709H277.876C277.634 225.709 277.422 225.497 277.422 225.255C277.422 225.013 277.634 224.801 277.876 224.801H383.819C384.061 224.801 384.273 225.013 384.273 225.255C384.273 225.497 384.061 225.709 383.819 225.709Z" fill="#F9F9F9"/>
<path d="M981.252 810.902H900.94C896.37 810.902 892.648 807.178 892.648 802.607V767.251C892.648 762.68 896.37 758.957 900.94 758.957H981.252C985.821 758.957 989.543 762.68 989.543 767.251V802.607C989.543 807.209 985.821 810.902 981.252 810.902Z" fill="#F9F9F9"/>
<path d="M981.253 811.357H900.941C896.129 811.357 892.195 807.452 892.195 802.608V767.252C892.195 762.439 896.099 758.504 900.941 758.504H981.253C986.064 758.504 989.998 762.409 989.998 767.252V802.608C989.998 807.452 986.064 811.357 981.253 811.357ZM900.941 759.442C896.613 759.442 893.103 762.954 893.103 767.282V802.639C893.103 806.967 896.613 810.479 900.941 810.479H981.253C985.58 810.479 989.09 806.967 989.09 802.639V767.282C989.09 762.954 985.58 759.442 981.253 759.442H900.941Z" fill="#292929"/>
<path d="M910.018 789.532C909.867 789.532 909.685 789.441 909.625 789.29C909.503 789.078 909.594 788.805 909.806 788.684L926.51 780.087C926.722 779.966 926.994 780.057 927.115 780.269C927.236 780.481 927.146 780.753 926.934 780.874L910.23 789.471C910.169 789.502 910.078 789.532 910.018 789.532Z" fill="#736FED"/>
<path d="M926.722 798.098C926.661 798.098 926.571 798.068 926.51 798.038L909.806 789.441C909.594 789.32 909.503 789.047 909.625 788.835C909.746 788.624 910.018 788.533 910.23 788.654L926.934 797.251C927.146 797.372 927.236 797.644 927.115 797.856C927.024 798.008 926.873 798.098 926.722 798.098Z" fill="#736FED"/>
<path d="M972.175 789.532C972.114 789.532 972.024 789.502 971.963 789.471L955.259 780.874C955.047 780.753 954.957 780.481 955.078 780.269C955.199 780.057 955.471 779.966 955.683 780.087L972.387 788.684C972.599 788.805 972.689 789.078 972.568 789.29C972.508 789.441 972.357 789.532 972.175 789.532Z" fill="#736FED"/>
<path d="M955.502 798.098C955.351 798.098 955.169 798.008 955.109 797.856C954.988 797.644 955.079 797.372 955.29 797.251L971.994 788.654C972.206 788.533 972.479 788.624 972.6 788.835C972.721 789.047 972.63 789.32 972.418 789.441L955.714 798.038C955.623 798.098 955.563 798.098 955.502 798.098Z" fill="#736FED"/>
<path d="M934.17 799.309C934.109 799.309 934.049 799.278 933.958 799.248C933.746 799.127 933.655 798.855 933.746 798.643L942.824 780.268C942.945 780.057 943.218 779.966 943.429 780.057C943.641 780.178 943.732 780.45 943.641 780.662L934.563 799.036C934.503 799.218 934.351 799.309 934.17 799.309Z" fill="#736FED"/>
<path d="M940.427 799.309C940.367 799.309 940.306 799.278 940.216 799.248C940.004 799.127 939.913 798.855 940.004 798.643L949.082 780.268C949.203 780.057 949.475 779.966 949.687 780.057C949.899 780.178 949.99 780.45 949.899 780.662L940.821 799.036C940.76 799.218 940.609 799.309 940.427 799.309Z" fill="#736FED"/>
<path d="M989.544 769.916H892.649C892.407 769.916 892.195 769.704 892.195 769.462C892.195 769.22 892.407 769.008 892.649 769.008H989.544C989.786 769.008 989.998 769.22 989.998 769.462C989.998 769.704 989.786 769.916 989.544 769.916Z" fill="#736FED"/>
<path d="M788.648 326.238C788.648 326.238 788.709 302.324 799.452 298.692C810.194 295.059 816.186 309.498 816.186 309.498L788.648 326.238Z" fill="#292929"/>
<path d="M820.271 391.623C820.301 390.624 828.593 349.274 828.835 346.065C829.077 342.857 794.217 349.304 794.217 349.304C794.217 349.304 786.016 379.696 785.35 385.145C782.052 411.178 820.271 391.623 820.271 391.623Z" fill="#F9F9F9"/>
<path d="M796.244 399.16C793.309 399.16 790.616 398.615 788.588 397.162C785.411 394.952 784.17 390.896 784.897 385.114C785.562 379.696 793.46 350.454 793.793 349.213C793.854 349.032 793.975 348.911 794.156 348.88C794.247 348.88 802.236 347.397 810.467 346.216C827.262 343.795 828.533 344.945 829.017 345.369C829.229 345.581 829.35 345.823 829.319 346.095C829.168 348.063 826.112 363.713 823.661 376.306C822.178 383.934 820.756 391.138 820.725 391.623C820.725 391.774 820.635 391.925 820.483 392.016C819.757 392.41 806.442 399.16 796.244 399.16ZM794.58 349.728C793.763 352.785 786.44 380.15 785.804 385.205C785.139 390.624 786.228 394.377 789.103 396.405C797.334 402.187 817.548 392.47 819.848 391.32C820.029 390.048 821.028 384.993 822.753 376.154C825.204 363.592 828.23 347.942 828.381 346.035C828.23 345.823 826.717 344.794 810.951 347.034C803.477 348.123 796.093 349.455 794.58 349.728Z" fill="#292929"/>
<path d="M816.789 295.754C805.926 293.242 804.08 294.574 795.335 301.506C789.706 305.986 775.362 346.216 779.871 355.812C788.223 373.55 825.293 354.54 828.016 351.089C830.709 347.638 849.38 316.036 838.184 305.35C833.16 300.537 824.657 297.571 816.789 295.754Z" fill="#F9F9F9"/>
<path d="M794.034 363.713C786.832 363.713 781.869 361.109 779.478 355.994C776.483 349.667 781.718 331.898 783.382 326.601C786.771 315.885 791.855 303.686 795.063 301.143C803.99 294.029 806.017 292.788 816.911 295.301C817.153 295.361 817.304 295.603 817.244 295.846C817.183 296.088 816.941 296.239 816.699 296.179C805.896 293.696 804.111 295.089 795.638 301.839C792.975 303.958 788.073 314.704 784.26 326.843C779.872 340.767 778.389 351.514 780.326 355.57C784.35 364.076 795.214 363.501 803.596 361.533C803.838 361.473 804.08 361.624 804.141 361.866C804.202 362.108 804.05 362.35 803.808 362.411C800.177 363.289 796.939 363.713 794.034 363.713Z" fill="#292929"/>
<path d="M793.339 344.552C791.977 344.552 790.495 344.219 789.072 343.28C788.86 343.129 788.8 342.857 788.951 342.645C789.103 342.433 789.375 342.372 789.587 342.524C793.248 344.945 797.333 342.796 798.514 342.07C798.725 341.948 798.998 342.009 799.149 342.221C799.27 342.433 799.21 342.705 798.998 342.857C798.15 343.371 795.911 344.552 793.339 344.552Z" fill="#292929"/>
<path d="M790.675 337.468C790.524 337.468 790.403 337.408 790.312 337.287C789.435 336.046 788.587 334.048 788.406 332.776C788.285 331.868 788.648 330.99 789.374 330.445C789.374 330.445 789.404 330.445 789.404 330.415L793.49 327.872L794.579 320.85C794.609 320.607 794.851 320.426 795.093 320.486C795.335 320.517 795.517 320.759 795.457 321.001L794.337 328.236C794.307 328.357 794.246 328.478 794.125 328.538L789.889 331.172C789.435 331.505 789.223 332.08 789.283 332.655C789.435 333.775 790.252 335.652 791.038 336.772C791.19 336.984 791.129 337.256 790.917 337.408C790.857 337.438 790.766 337.468 790.675 337.468Z" fill="#292929"/>
<path d="M805.545 330.09C806.375 330.288 807.313 329.327 807.642 327.944C807.971 326.562 807.565 325.281 806.736 325.084C805.907 324.887 804.968 325.847 804.639 327.23C804.31 328.612 804.716 329.893 805.545 330.09Z" fill="#292929"/>
<path d="M788.444 326.032C789.273 326.229 790.212 325.268 790.541 323.886C790.869 322.503 790.464 321.223 789.634 321.025C788.805 320.828 787.866 321.789 787.538 323.171C787.209 324.554 787.615 325.834 788.444 326.032Z" fill="#292929"/>
<path d="M813.768 322.877C813.677 322.877 813.586 322.846 813.495 322.786C808.745 319.183 803.086 319.002 803.055 319.002C802.813 319.002 802.602 318.79 802.602 318.548C802.602 318.306 802.813 318.094 803.055 318.094C803.298 318.094 809.047 318.275 814.04 322.059C814.252 322.211 814.282 322.483 814.131 322.695C814.04 322.816 813.889 322.877 813.768 322.877Z" fill="#292929"/>
<path d="M793.368 316.702C793.338 316.702 793.308 316.702 793.277 316.702C792.491 316.52 790.251 316.066 789.253 316.248C789.011 316.308 788.769 316.126 788.738 315.884C788.678 315.642 788.859 315.4 789.101 315.37C790.493 315.097 793.398 315.794 793.52 315.824C793.762 315.884 793.913 316.126 793.852 316.369C793.762 316.55 793.58 316.702 793.368 316.702Z" fill="#292929"/>
<path d="M828.078 355.267C828.078 355.267 844.842 336.832 850.259 329.385C855.464 322.241 854.193 315.158 850.077 313.675C850.077 313.675 856.311 300.204 843.723 294.059C843.723 294.059 842.088 284.312 832.193 286.007C832.193 286.007 810.042 280.589 800.873 278.137C796.909 277.077 792.158 280.801 795.063 286.582C795.063 286.582 797.696 287.824 796.213 284.342C794.7 280.861 785.622 297.571 798.906 305.653C807.985 311.162 830.045 308.468 830.045 308.468C830.045 308.468 830.559 325.874 831.618 327.024C831.618 327.024 820.21 354.752 828.078 355.267Z" fill="#292929"/>
<path d="M827.925 328.72C827.925 328.72 836.246 324.573 839.636 331.747C844.387 341.827 832.04 348.275 826.412 344.884C820.783 341.494 827.925 328.72 827.925 328.72Z" fill="#F9F9F9"/>
<path d="M835.492 341.554C835.401 341.554 835.28 341.524 835.189 341.433C835.008 341.282 834.977 340.979 835.129 340.797C836.975 338.587 837.731 336.559 837.368 334.804C836.914 332.654 834.947 331.413 833.797 330.868C832.042 330.021 830.105 330.929 830.075 330.959C829.863 331.08 829.591 330.959 829.47 330.747C829.349 330.535 829.47 330.263 829.682 330.142C829.773 330.081 832.042 329.022 834.191 330.051C835.492 330.687 837.731 332.11 838.246 334.622C838.669 336.68 837.852 338.951 835.825 341.403C835.734 341.493 835.613 341.554 835.492 341.554Z" fill="#292929"/>
<path d="M830.766 338.769C830.524 338.769 830.312 338.558 830.312 338.315C830.312 338.073 830.494 337.861 830.766 337.861L837.363 337.74C837.605 337.74 837.817 337.922 837.817 338.194C837.817 338.436 837.636 338.648 837.363 338.648L830.766 338.769Z" fill="#292929"/>
<path d="M770.527 407.726L738.269 487.792C733.276 499.961 719.537 505.985 707.221 501.354C694.36 496.541 688.036 482.011 693.271 469.297L722.352 394.892C727.103 383.328 739.873 377.274 751.856 380.906C765.473 385.114 775.913 394.498 770.527 407.726Z" fill="#F0EDEA"/>
<path d="M706.37 503.472C719.261 508.134 733.544 501.838 738.84 489.215L772.338 409.27C778.118 395.345 767.86 385.023 753.728 379.756C740.02 374.67 724.769 381.633 719.594 395.315L691.149 469.751C685.823 483.282 692.692 498.538 706.37 503.472Z" fill="#F9F9F9"/>
<path d="M616.254 461.426L611.352 492.091L711.969 505.016V456.613L616.254 461.426Z" fill="#F9F9F9"/>
<path d="M711.972 463.424C711.912 463.424 711.882 463.424 711.821 463.394L695.904 457.885L616.258 461.88C616.016 461.88 615.804 461.699 615.773 461.457C615.773 461.214 615.955 461.003 616.197 460.972L695.934 456.977C695.995 456.977 696.055 456.977 696.116 457.007L712.094 462.546C712.336 462.637 712.457 462.879 712.366 463.122C712.336 463.303 712.184 463.424 711.972 463.424Z" fill="#292929"/>
<path d="M650.358 529.415C632.231 583.811 592.408 700.899 592.408 700.899L554.945 692.544L583.027 510.163C585.085 495.39 602.303 485.159 620.006 487.853C639.827 490.85 656.682 510.374 650.358 529.415Z" fill="#F9F9F9"/>
<path d="M592.405 701.322C592.375 701.322 592.344 701.322 592.314 701.322L554.851 692.968C554.609 692.907 554.458 692.695 554.488 692.453L582.57 510.072C583.418 503.866 587.049 498.085 592.738 493.847C600.152 488.337 610.35 485.916 620.063 487.399C631.199 489.094 641.73 496.056 647.54 505.592C652.2 513.25 653.35 521.756 650.748 529.566C632.833 583.327 593.192 699.869 592.798 701.05C592.768 701.201 592.587 701.322 592.405 701.322ZM555.457 692.181L592.102 700.354C594.644 692.877 632.531 581.481 649.931 529.263L650.354 529.415L649.931 529.263C652.442 521.696 651.353 513.462 646.814 506.046C641.125 496.753 630.836 489.942 619.973 488.277C610.501 486.824 600.515 489.185 593.313 494.573C587.805 498.69 584.325 504.23 583.508 510.223L555.457 692.181Z" fill="#292929"/>
<path d="M487.883 739.978L488.609 747.637L490.909 748.969L604.387 738.071L603.086 724.449C602.934 722.785 601.966 721.301 600.544 720.484L597.306 686.732L557.452 683.342L548.253 695.147L529.855 710.707C523.409 716.155 516.177 720.666 508.43 724.026C500.683 727.386 491.847 731.2 491.333 731.26C490.516 731.351 488.428 738.011 487.943 739.615C487.913 739.857 487.883 739.978 487.883 739.978Z" fill="#292929"/>
<path d="M488.43 745.821L488.611 747.668L490.911 748.969L604.389 738.102L603.814 731.957L488.43 745.821Z" fill="#292929"/>
<path d="M487.883 739.978L488.609 747.636L604.236 736.557L603.086 724.479C602.934 722.814 601.966 721.331 600.544 720.514L487.974 739.645C487.913 739.857 487.883 739.978 487.883 739.978Z" fill="#292929"/>
<path d="M488.036 742.188C487.824 742.188 487.643 742.037 487.582 741.825C487.522 741.583 487.703 741.341 487.945 741.28L600.455 720.061C600.697 720 600.939 720.182 600.999 720.424C601.06 720.666 600.878 720.908 600.636 720.969L488.127 742.188C488.096 742.158 488.066 742.188 488.036 742.188Z" fill="#F9F9F9"/>
<path d="M552.675 708.921C552.523 708.921 552.402 708.861 552.312 708.74C552.251 708.679 547.44 702.141 540.48 702.807C540.238 702.837 539.995 702.655 539.995 702.383C539.965 702.141 540.147 701.898 540.419 701.898C547.894 701.172 552.856 707.922 553.068 708.195C553.219 708.407 553.159 708.679 552.977 708.83C552.856 708.921 552.766 708.921 552.675 708.921Z" fill="#F9F9F9"/>
<path d="M545.656 713.915C545.535 713.915 545.414 713.855 545.323 713.764C545.263 713.703 539.725 707.256 534.096 708.255C533.854 708.285 533.612 708.134 533.582 707.891C533.552 707.649 533.703 707.407 533.945 707.377C540.088 706.287 545.777 712.916 546.019 713.189C546.17 713.37 546.17 713.673 545.959 713.824C545.868 713.885 545.777 713.915 545.656 713.915Z" fill="#F9F9F9"/>
<path d="M538.239 719.455C538.087 719.455 537.936 719.364 537.845 719.213C537.815 719.152 534.093 712.674 528.101 713.249C527.859 713.279 527.617 713.098 527.617 712.825C527.617 712.553 527.768 712.341 528.041 712.341C534.607 711.705 538.481 718.456 538.662 718.758C538.783 718.97 538.723 719.243 538.481 719.364C538.39 719.424 538.33 719.455 538.239 719.455Z" fill="#F9F9F9"/>
<path d="M797.177 565.072C793.364 560.411 788.432 556.536 782.531 553.842L761.106 544.095L751.483 539.706L684.879 509.435L625.266 482.342C621.422 481.011 617.489 480.466 613.615 480.587C603.932 480.889 594.642 485.551 588.59 493.664C583.869 499.99 581.055 508.587 580.51 517.154L552.852 664.754L607.049 677.226L638.732 571.127C675.529 590.439 718.166 612.325 747.035 627.188C753.269 630.397 759.956 631.85 766.553 631.698C777.75 631.456 788.583 626.583 796.209 617.925C797.661 616.29 798.993 614.505 800.173 612.597C809.887 597.19 807.889 578.119 797.177 565.072Z" fill="#5856B8"/>
<path d="M607.048 677.68C607.018 677.68 606.988 677.68 606.957 677.68L552.76 665.209C552.518 665.148 552.367 664.936 552.427 664.694L580.086 517.124C580.661 508.285 583.626 499.658 588.256 493.422C594.278 485.31 603.538 480.497 613.615 480.164C617.639 480.043 621.604 480.648 625.447 481.95C625.447 481.95 625.477 481.95 625.477 481.98L685.091 509.072C685.333 509.163 685.424 509.435 685.303 509.678C685.212 509.92 684.939 510.011 684.697 509.889L625.084 482.797C621.361 481.526 617.518 480.951 613.615 481.072C603.81 481.405 594.823 486.097 588.952 493.967C584.413 500.051 581.508 508.527 580.963 517.215C580.963 517.245 580.963 517.245 580.963 517.276L553.396 664.422L606.746 676.681L638.308 571.006C638.338 570.885 638.429 570.764 638.58 570.703C638.701 570.643 638.852 570.643 638.973 570.734C673.319 588.775 712.628 608.996 741.345 623.738L747.277 626.795C747.488 626.916 747.579 627.189 747.458 627.401C747.337 627.612 747.065 627.703 746.853 627.582L740.922 624.525C712.356 609.843 673.259 589.744 639.034 571.763L607.502 677.317C607.442 677.559 607.26 677.68 607.048 677.68Z" fill="#292929"/>
<path d="M811.402 589.441L813.944 516.64L727.126 484.613C727.126 484.613 695.625 525.176 698.409 527.204C701.162 529.293 811.402 589.441 811.402 589.441Z" fill="#5856B8"/>
<path d="M813.494 526.598C813.434 526.598 813.403 526.598 813.343 526.568L720.896 493.028C720.654 492.937 720.533 492.695 720.624 492.453C720.715 492.211 720.957 492.09 721.199 492.181L813.646 525.721C813.888 525.811 814.009 526.054 813.918 526.296C813.857 526.477 813.676 526.598 813.494 526.598Z" fill="#292929"/>
<path d="M638.762 571.582C638.55 571.582 638.338 571.43 638.308 571.188L635.917 553.994C635.887 553.752 636.069 553.51 636.311 553.48C636.553 553.45 636.795 553.631 636.825 553.873L639.216 571.067C639.246 571.309 639.065 571.551 638.822 571.582C638.792 571.582 638.762 571.582 638.762 571.582Z" fill="#292929"/>
<path d="M630.111 645.684C619.913 702.079 597.126 823.646 597.126 823.646L560.602 817.229L566.956 639.388C566.866 624.495 576.246 608.693 594.161 608.845C614.224 609.026 633.681 625.948 630.111 645.684Z" fill="#F9F9F9"/>
<path d="M597.123 824.1C597.092 824.1 597.062 824.1 597.032 824.1L560.507 817.683C560.295 817.652 560.114 817.44 560.144 817.229L566.499 639.388C566.438 630.367 569.858 621.528 575.607 615.807C580.509 610.933 586.925 608.36 594.157 608.421C605.414 608.512 616.853 613.9 623.964 622.497C629.683 629.399 632.013 637.662 630.561 645.775L630.107 645.684L630.561 645.775C620.484 701.534 597.819 822.526 597.577 823.767C597.546 823.949 597.334 824.1 597.123 824.1ZM561.052 816.865L596.76 823.131C598.273 815.019 619.879 699.657 629.653 645.593C631.075 637.753 628.806 629.732 623.268 623.042C616.338 614.657 605.172 609.39 594.157 609.299C587.167 609.238 580.963 611.69 576.243 616.412C570.675 621.982 567.346 630.549 567.407 639.388L561.052 816.865Z" fill="#292929"/>
<path d="M809.86 578.15C804.081 557.99 783.655 545.79 763.198 550.271L595.584 587.019C581.513 588.563 570.044 599.037 567.26 612.931C567.199 613.234 567.139 613.506 567.108 613.809L555.367 774.547L610.26 776.665L629.325 652.707C666.122 647.228 740.624 635.846 779.539 628.006C802.265 623.435 816.245 600.459 809.86 578.15Z" fill="#5856B8"/>
<path d="M503.891 881.796L506.16 889.152L508.672 889.969L617.58 856.217L613.525 843.14C613.041 841.536 611.801 840.295 610.227 839.78L600.211 807.391L560.509 812.173L553.912 825.614L539.084 844.593C533.879 851.253 527.706 857.125 520.806 861.999C513.907 866.873 506.039 872.382 505.555 872.533C504.768 872.775 504.072 879.738 503.921 881.403C503.891 881.675 503.891 881.796 503.891 881.796Z" fill="#292929"/>
<path d="M505.617 887.397L506.162 889.153L508.674 890L617.582 856.248L615.766 850.346L505.617 887.397Z" fill="#292929"/>
<path d="M503.891 881.796L506.16 889.152L617.126 854.764L613.525 843.171C613.041 841.566 611.801 840.325 610.227 839.811L503.921 881.433C503.891 881.675 503.891 881.796 503.891 881.796Z" fill="#292929"/>
<path d="M504.403 883.914C504.222 883.914 504.071 883.824 503.98 883.642C503.889 883.4 503.98 883.158 504.222 883.037L610.044 839.386C610.286 839.295 610.528 839.386 610.649 839.628C610.74 839.87 610.649 840.113 610.407 840.234L504.585 883.884C504.525 883.914 504.464 883.914 504.403 883.914Z" fill="#F9F9F9"/>
<path d="M560.905 838.236C560.784 838.236 560.693 838.205 560.603 838.115C560.542 838.054 554.49 832.636 547.833 834.694C547.59 834.755 547.348 834.633 547.258 834.391C547.197 834.149 547.318 833.907 547.56 833.816C554.732 831.606 560.966 837.176 561.208 837.418C561.389 837.6 561.42 837.872 561.238 838.054C561.178 838.175 561.026 838.236 560.905 838.236Z" fill="#F9F9F9"/>
<path d="M555.06 844.533C554.969 844.533 554.879 844.503 554.788 844.443C554.727 844.382 547.979 839.236 542.684 841.325C542.441 841.415 542.199 841.294 542.109 841.082C542.018 840.84 542.139 840.598 542.351 840.507C548.161 838.207 555.06 843.504 555.363 843.746C555.575 843.898 555.605 844.2 555.454 844.382C555.333 844.473 555.212 844.533 555.06 844.533Z" fill="#F9F9F9"/>
<path d="M548.947 851.465C548.826 851.465 548.705 851.405 548.614 851.314C548.554 851.253 543.621 845.684 537.872 847.47C537.63 847.53 537.387 847.409 537.297 847.167C537.236 846.925 537.357 846.683 537.599 846.592C543.894 844.624 549.068 850.466 549.28 850.708C549.431 850.89 549.431 851.193 549.25 851.344C549.159 851.435 549.038 851.465 548.947 851.465Z" fill="#F9F9F9"/>
<path d="M610.291 777.15C610.261 777.15 610.261 777.15 610.291 777.15L555.368 775.031C555.247 775.031 555.126 774.971 555.035 774.88C554.944 774.789 554.914 774.668 554.914 774.547L566.655 613.809C566.686 613.476 566.746 613.174 566.807 612.871C569.651 598.735 581.18 588.17 595.494 586.596L711.877 561.078C712.119 561.017 712.361 561.169 712.421 561.411C712.482 561.653 712.331 561.895 712.089 561.956L595.675 587.474C595.645 587.474 595.645 587.474 595.615 587.474C581.665 589.018 570.438 599.279 567.684 613.022C567.624 613.295 567.593 613.598 567.533 613.87L555.852 774.123L609.868 776.212L628.871 652.647C628.902 652.465 629.053 652.284 629.265 652.253C632.593 651.769 635.983 651.254 639.402 650.74C673.234 645.715 711.604 640.024 746.979 632.88L770.189 629.702C793.702 626.493 811.011 606.908 811.344 583.145C811.344 582.903 811.556 582.691 811.798 582.691C812.04 582.691 812.252 582.903 812.252 583.145C812.1 594.769 807.773 605.939 800.087 614.657C792.401 623.375 781.84 629.005 770.31 630.579L747.131 633.758C711.786 640.902 673.415 646.593 639.553 651.618C636.255 652.102 632.987 652.586 629.749 653.071L610.745 776.696C610.685 776.969 610.503 777.15 610.291 777.15Z" fill="#292929"/>
<path d="M629.318 653.19C629.197 653.19 629.046 653.13 628.955 653.009L618.636 640.113C618.485 639.932 618.515 639.629 618.696 639.478C618.878 639.326 619.181 639.357 619.332 639.538L629.651 652.434C629.802 652.615 629.772 652.918 629.59 653.069C629.53 653.16 629.439 653.19 629.318 653.19Z" fill="#292929"/>
<path d="M752.998 528.84L640.367 504.866L641.91 497.631L753.845 525.177C754.813 525.419 755.449 526.388 755.237 527.387C754.995 528.416 753.996 529.052 752.998 528.84Z" fill="#F9F9F9"/>
<path d="M753.388 529.323C753.237 529.323 753.055 529.293 752.904 529.263L640.243 505.319C640.122 505.289 640.031 505.228 639.971 505.107C639.91 505.016 639.88 504.895 639.91 504.774L641.454 497.539C641.484 497.418 641.544 497.327 641.665 497.236C641.756 497.176 641.908 497.146 642.029 497.176L753.963 524.722C755.204 525.025 755.96 526.236 755.688 527.477C755.567 528.082 755.204 528.597 754.689 528.96C754.266 529.202 753.812 529.323 753.388 529.323ZM640.879 504.501L753.086 528.385C753.449 528.476 753.842 528.385 754.145 528.173C754.447 527.961 754.689 527.659 754.75 527.265C754.901 526.508 754.447 525.782 753.691 525.6L642.21 498.175L640.879 504.501Z" fill="#292929"/>
<path d="M685.002 512.372L580.603 490.153C578.545 489.699 577.032 487.943 577.002 485.915L575.821 417.533C575.761 414.748 578.394 412.66 581.238 413.265L685.638 435.484C687.695 435.938 689.209 437.694 689.239 439.722L690.419 508.104C690.479 510.888 687.817 512.977 685.002 512.372Z" fill="#F9F9F9"/>
<path d="M686.002 512.916C685.639 512.916 685.275 512.886 684.912 512.795L580.513 490.576C578.213 490.092 576.579 488.155 576.548 485.885L575.368 417.503C575.338 416.08 575.973 414.718 577.093 413.78C578.273 412.811 579.817 412.448 581.33 412.75L685.729 434.969C688.029 435.453 689.663 437.391 689.693 439.661L690.874 508.043C690.904 509.465 690.268 510.828 689.149 511.766C688.241 512.553 687.152 512.916 686.002 512.916ZM580.24 413.598C579.302 413.598 578.394 413.931 577.668 414.506C576.76 415.263 576.246 416.353 576.276 417.503L577.456 485.885C577.486 487.731 578.818 489.305 580.694 489.699L685.094 511.917C686.335 512.19 687.605 511.887 688.574 511.1C689.482 510.343 689.996 509.254 689.966 508.103L688.786 439.722C688.755 437.875 687.424 436.301 685.548 435.908L581.148 413.689C580.845 413.628 580.543 413.598 580.24 413.598Z" fill="#292929"/>
<path d="M679.432 513.189L575.033 490.97C572.975 490.516 571.492 488.7 571.462 486.612L570.766 415.899C570.736 413.023 573.399 410.844 576.213 411.449L680.613 433.668C682.67 434.122 684.153 435.938 684.183 438.027L684.879 508.739C684.91 511.615 682.277 513.795 679.432 513.189Z" fill="#292929"/>
<path d="M624.567 467.608C626.755 467.692 628.631 465.106 628.757 461.832C628.883 458.557 627.212 455.835 625.024 455.75C622.836 455.666 620.96 458.252 620.834 461.527C620.708 464.801 622.379 467.524 624.567 467.608Z" fill="#F9F9F9"/>
<path d="M863.784 413.145L822.539 382.632C811.463 388.414 802.324 387.233 796.847 385.962C786.922 383.631 786.77 375.246 786.77 375.246L744.375 378.092C744.375 378.092 737.354 426.071 732.815 442.689L704.461 520.425L731.635 557.234L743.376 539.677L738.989 562.44L812.099 583.206L843.086 446.655C837.336 420.077 863.784 413.145 863.784 413.145Z" fill="#F9F9F9"/>
<path d="M774.212 440.48C775.248 440.48 776.088 439.64 776.088 438.603C776.088 437.567 775.248 436.727 774.212 436.727C773.176 436.727 772.336 437.567 772.336 438.603C772.336 439.64 773.176 440.48 774.212 440.48Z" fill="#292929"/>
<path d="M767.251 468.631C768.287 468.631 769.127 467.79 769.127 466.754C769.127 465.717 768.287 464.877 767.251 464.877C766.215 464.877 765.375 465.717 765.375 466.754C765.375 467.79 766.215 468.631 767.251 468.631Z" fill="#292929"/>
<path d="M758.9 495.814C759.936 495.814 760.776 494.974 760.776 493.937C760.776 492.901 759.936 492.061 758.9 492.061C757.863 492.061 757.023 492.901 757.023 493.937C757.023 494.974 757.863 495.814 758.9 495.814Z" fill="#292929"/>
<path d="M782.384 414.386C783.42 414.386 784.26 413.546 784.26 412.51C784.26 411.473 783.42 410.633 782.384 410.633C781.348 410.633 780.508 411.473 780.508 412.51C780.508 413.546 781.348 414.386 782.384 414.386Z" fill="#292929"/>
<path d="M731.668 557.658C731.517 557.658 731.396 557.598 731.305 557.477L704.131 520.668C704.04 520.547 704.01 520.395 704.071 520.244L738.598 423.408C738.689 423.165 738.931 423.044 739.173 423.135C739.415 423.226 739.536 423.468 739.445 423.71L705.009 520.304L731.668 556.387L743.046 539.375C743.591 538.376 766.529 497.268 771.915 467.936C777.332 438.271 796.154 386.598 796.336 386.084C796.426 385.842 796.669 385.721 796.911 385.811C797.153 385.902 797.274 386.144 797.183 386.387C797.001 386.901 778.209 438.513 772.793 468.087C767.346 497.783 744.045 539.405 743.833 539.829C743.833 539.829 743.833 539.859 743.803 539.859L732.062 557.416C731.971 557.568 731.82 557.658 731.668 557.658Z" fill="#292929"/>
<path d="M802.509 393.318C799.907 393.318 797.304 393.015 794.823 392.258C780.933 388.111 780.086 375.821 780.086 375.7C780.086 375.458 780.268 375.246 780.51 375.216C780.752 375.186 780.964 375.397 780.994 375.64C780.994 375.761 781.841 387.445 795.095 391.38C809.015 395.527 826.415 385.659 826.597 385.538C826.809 385.417 827.081 385.478 827.202 385.72C827.323 385.932 827.262 386.204 827.02 386.325C826.899 386.446 814.795 393.318 802.509 393.318Z" fill="#292929"/>
<path d="M812.13 583.659C812.1 583.659 812.04 583.659 812.009 583.629L738.899 562.863C738.687 562.803 738.536 562.561 738.566 562.349L742.954 539.585C743.015 539.343 743.226 539.192 743.499 539.222C743.741 539.283 743.892 539.494 743.862 539.767L739.535 562.137L811.797 582.661L827.382 513.946C827.442 513.704 827.684 513.552 827.926 513.613C828.169 513.673 828.32 513.916 828.259 514.158L812.554 583.357C812.524 583.478 812.463 583.569 812.342 583.659C812.312 583.629 812.221 583.659 812.13 583.659Z" fill="#292929"/>
<path d="M869.685 441.478L845.597 528.234C841.754 540.826 828.621 548.061 815.912 544.61C802.657 540.978 802.567 528.082 806.591 514.975L832.313 421.196C835.975 409.239 841.754 408.452 854.01 410.965C868.021 413.81 873.861 427.795 869.685 441.478Z" fill="#F0EDEA"/>
<path fill-rule="evenodd" clip-rule="evenodd" d="M721.079 499.426C721.079 499.426 696.773 484.707 689.647 479.802C683.317 475.455 673.529 483.381 668.428 486.677C667.301 487.403 666.575 488.611 666.491 489.933C666.429 490.912 667.35 491.603 668.632 492.369C670.348 493.389 682.475 488.198 685.205 489.487C687.128 490.382 713.131 514.013 713.131 514.013L721.079 499.426Z" fill="#F9F9F9"/>
<path fill-rule="evenodd" clip-rule="evenodd" d="M721.002 509.381C721.002 509.381 698.834 493.21 691.69 488.32C684.548 483.415 673.772 489.079 670.543 491.455C666.791 493.672 666.59 496.053 667.331 497.23C668.284 498.723 670.346 498.477 672.622 497.746C679.706 495.46 685.204 495.081 687.693 496.251C689.616 497.145 715.158 522.53 715.158 522.53L721.002 509.381Z" fill="#F9F9F9"/>
<path fill-rule="evenodd" clip-rule="evenodd" d="M726.643 515.303C726.643 515.303 704.475 499.131 697.332 494.242C690.189 489.336 676.234 495.547 673.065 497.5C668.543 499.796 670.419 502.226 672.18 502.79C673.895 503.81 687.091 499.085 689.822 500.358C691.745 501.253 719.669 522.673 719.669 522.673L726.643 515.303Z" fill="#F9F9F9"/>
<path fill-rule="evenodd" clip-rule="evenodd" d="M725.249 521.529C725.249 521.529 704.411 506.746 697.718 502.242C691.024 497.738 673.446 500.736 672.68 503.773C672.164 506.999 674.281 506.892 675.704 507.2C678.095 507.647 686.278 507.263 690.203 509.444C690.728 509.73 695.759 518.426 702.896 522.784C711.271 527.915 725.249 521.529 725.249 521.529Z" fill="#F9F9F9"/>
<path d="M669.057 492.937C668.905 492.937 668.754 492.877 668.663 492.725C668.542 492.513 668.603 492.241 668.815 492.09C669.299 491.787 680.374 484.855 683.34 484.461C686.85 483.977 696.594 489.214 696.987 489.426C697.199 489.547 697.29 489.819 697.169 490.031C697.048 490.243 696.776 490.334 696.564 490.213C696.473 490.152 686.699 484.885 683.461 485.339C681.221 485.642 673.233 490.394 669.299 492.846C669.208 492.907 669.117 492.937 669.057 492.937Z" fill="#292929"/>
<path d="M672.622 498.204C672.441 498.204 672.289 498.113 672.199 497.932C672.108 497.69 672.199 497.447 672.441 497.326C672.895 497.145 683.516 492.695 686.482 492.301C690.022 491.817 696.77 496.146 697.073 496.327C697.285 496.449 697.345 496.751 697.224 496.963C697.103 497.175 696.801 497.236 696.589 497.114C696.528 497.084 689.81 492.786 686.603 493.24C683.788 493.633 672.925 498.174 672.804 498.204C672.743 498.174 672.683 498.204 672.622 498.204Z" fill="#292929"/>
<path d="M698.558 504.744C698.468 504.744 698.377 504.713 698.286 504.653C698.226 504.623 692.083 500.264 688.875 500.687C686 501.081 673.17 503.654 673.049 503.684C672.807 503.745 672.564 503.563 672.504 503.321C672.443 503.079 672.625 502.837 672.867 502.776C673.382 502.655 685.849 500.173 688.754 499.779C692.294 499.295 698.558 503.714 698.801 503.896C699.012 504.047 699.043 504.32 698.922 504.532C698.861 504.683 698.71 504.744 698.558 504.744Z" fill="#292929"/>
<path d="M814.128 504.228L716.901 496.842C716.901 496.842 706.34 523.843 708.155 524.267C709.971 524.691 822.087 545.759 822.087 545.759L814.128 504.228Z" fill="#F9F9F9"/>
<path d="M723.31 500.687C723.22 500.687 723.159 500.656 723.068 500.626C722.796 500.475 695.138 483.947 690.871 481.192C686.846 478.589 684.698 478.983 684.667 479.013C684.425 479.073 684.183 478.922 684.123 478.68C684.062 478.438 684.213 478.196 684.456 478.135C684.546 478.105 686.937 477.59 691.355 480.436C695.592 483.19 723.22 499.688 723.522 499.839C723.734 499.96 723.795 500.233 723.674 500.475C723.613 500.596 723.462 500.687 723.31 500.687Z" fill="#292929"/>
<path d="M711.389 525.539C709.422 525.539 707.455 525.116 704.641 524.147C698.831 522.149 690.207 510.222 689.844 509.708C689.692 509.496 689.753 509.223 689.934 509.072C690.146 508.921 690.419 508.981 690.57 509.163C690.661 509.284 699.376 521.362 704.913 523.269C710.36 525.146 712.569 524.873 717.048 523.632C717.29 523.572 717.532 523.723 717.593 523.965C717.653 524.208 717.502 524.45 717.26 524.51C714.93 525.176 713.175 525.539 711.389 525.539Z" fill="#292929"/>
<path d="M815.91 544.579C829.074 548.272 842.751 540.856 846.897 527.839L872.558 441.961C877.097 427.582 868.776 412.296 854.251 408.33C840.149 404.456 831.948 406.332 828.014 420.439L798.329 513.218C794.516 526.719 802.384 540.795 815.91 544.579Z" fill="#F9F9F9"/>
<path d="M807.649 502.26L730.181 496.842L725.219 528.354L819.299 545.245L807.649 502.26Z" fill="#F9F9F9"/>
<path d="M730.182 496.843L719.863 496.268L713.992 525.993L725.219 528.355L730.182 496.843Z" fill="#F9F9F9"/>
<path d="M725.279 528.444C725.249 528.444 725.219 528.444 725.219 528.444C724.977 528.414 724.795 528.172 724.855 527.93L729.788 496.781C729.818 496.539 730.06 496.357 730.302 496.418C730.545 496.448 730.726 496.69 730.666 496.933L725.733 528.081C725.703 528.293 725.491 528.444 725.279 528.444Z" fill="#292929"/>
<path d="M720.501 525.599C721.537 525.599 722.377 524.759 722.377 523.722C722.377 522.686 721.537 521.846 720.501 521.846C719.465 521.846 718.625 522.686 718.625 523.722C718.625 524.759 719.465 525.599 720.501 525.599Z" fill="#292929"/>
<path d="M824.744 546.395C823.836 546.395 822.928 546.335 822.021 546.214C798.599 543.187 746.308 532.804 724.006 528.384C718.378 527.264 714.292 526.447 713.99 526.417C713.869 526.417 713.748 526.356 713.657 526.235C713.566 526.144 713.536 525.993 713.566 525.872L719.437 496.176C719.467 495.964 719.679 495.783 719.921 495.813C721.888 495.934 797.298 501.564 800.505 501.807C800.596 501.807 800.687 501.837 800.778 501.897L811.641 511.039C811.823 511.191 811.853 511.493 811.702 511.675C811.55 511.857 811.248 511.887 811.066 511.735L800.324 502.684C796.632 502.412 726.457 497.145 720.314 496.721L714.625 525.569C715.624 525.751 718.196 526.265 724.248 527.446C746.55 531.865 798.811 542.218 822.202 545.245C834.821 546.88 845.019 536.376 847.591 525.297L872.405 440.054C875.098 430.852 871.709 419.773 864.537 414.264L822.354 382.964C822.142 382.812 822.111 382.54 822.263 382.328C822.414 382.116 822.686 382.086 822.898 382.237L865.082 413.537C872.526 419.258 876.066 430.791 873.282 440.327L848.469 525.569C845.927 536.255 836.606 546.395 824.744 546.395Z" fill="#292929"/>
<path d="M800.415 502.715C800.354 502.715 800.324 502.715 800.263 502.685C800.021 502.594 799.9 502.352 799.991 502.11L819.963 444.111C820.054 443.869 820.296 443.748 820.538 443.839C820.78 443.93 820.901 444.172 820.81 444.414L800.838 502.413C800.778 502.594 800.596 502.715 800.415 502.715Z" fill="#292929"/>
<path d="M695.985 457.884C695.924 457.884 695.864 457.884 695.834 457.854C695.592 457.763 695.471 457.491 695.561 457.279L719.588 393.619C723.311 384.599 732.358 378.242 742.102 377.758L786.767 374.821C787.009 374.791 787.221 375.003 787.252 375.245C787.282 375.548 788.038 382.964 796.905 385.87C805.922 388.837 822.233 382.298 822.384 382.238C822.626 382.147 822.868 382.268 822.99 382.48C823.08 382.722 822.959 382.964 822.747 383.085C822.051 383.358 805.953 389.805 796.632 386.748C788.462 384.054 786.737 377.515 786.435 375.76L742.163 378.666C732.752 379.12 724.037 385.265 720.436 393.952L696.409 457.612C696.348 457.763 696.167 457.884 695.985 457.884Z" fill="#292929"/>
<path d="M896.857 784.961H809.222C803.352 784.961 798.57 780.178 798.57 774.305V702.806C798.57 696.933 803.352 692.15 809.222 692.15H907.509V774.305C907.509 780.178 902.728 784.961 896.857 784.961Z" fill="#292929"/>
<path d="M910.084 773.003H822.449C816.578 773.003 811.797 768.221 811.797 762.348V690.849C811.797 684.976 816.578 680.193 822.449 680.193H910.084C915.954 680.193 920.736 684.976 920.736 690.849V762.348C920.736 768.251 915.954 773.003 910.084 773.003Z" fill="#5856B8"/>
</g>
<defs>
<filter id="filter0_f_703_1328" x="3.64062" y="155.293" width="938.492" height="938.488" filterUnits="userSpaceOnUse" color-interpolation-filters="sRGB">
<feFlood flood-opacity="0" result="BackgroundImageFix"/>
<feBlend mode="normal" in="SourceGraphic" in2="BackgroundImageFix" result="shape"/>
<feGaussianBlur stdDeviation="86" result="effect1_foregroundBlur_703_1328"/>
</filter>
<filter id="filter1_f_703_1328" x="349.242" y="0.244141" width="938.492" height="938.488" filterUnits="userSpaceOnUse" color-interpolation-filters="sRGB">
<feFlood flood-opacity="0" result="BackgroundImageFix"/>
<feBlend mode="normal" in="SourceGraphic" in2="BackgroundImageFix" result="shape"/>
<feGaussianBlur stdDeviation="86" result="effect1_foregroundBlur_703_1328"/>
</filter>
<clipPath id="clip0_703_1328">
<rect width="738" height="682" fill="white" transform="translate(252 208)"/>
</clipPath>
</defs>
</svg>
