<svg width="230" height="41" viewBox="0 0 230 41" fill="none" xmlns="http://www.w3.org/2000/svg">
<path d="M0.5 13.9482V21.2235C2.99721 21.2218 5.47026 21.7103 7.77763 22.6611C10.085 23.6119 12.1814 25.0063 13.9469 26.7646C15.712 28.5222 17.1118 30.6089 18.0663 32.9054C19.0207 35.2019 19.5112 37.6633 19.5096 40.1486H26.8121C26.8055 33.2028 24.0314 26.5432 19.0985 21.6312C14.1656 16.7193 7.47686 13.9562 0.5 13.9482H0.5Z" fill="white"/>
<path d="M37.0183 0.850586H25.4453C31.2998 4.54422 36.2606 9.48219 39.9715 15.3102V3.78863C39.971 3.00922 39.6596 2.26192 39.1058 1.71099C38.552 1.16006 37.8012 0.850586 37.0183 0.850586Z" fill="white"/>
<path d="M7.77141 0.850586H0.5V7.40094C9.22129 7.40997 17.5828 10.863 23.7498 17.0024C29.9168 23.1418 33.3855 31.466 33.3948 40.1486H39.9734V32.9095C38.486 24.9532 34.6133 17.6319 28.8653 11.9093C23.1172 6.18681 15.7632 2.33137 7.77141 0.850586Z" fill="white"/>
<path d="M54.4453 34.1354V8.34863H71.519V12.8437H59.8973V18.9882H70.3858V23.4832H59.8973V34.1354H54.4453Z" fill="white"/>
<path d="M74.9511 34.1354V14.7953H80.1512V18.1698H80.3527C80.7053 16.9694 81.297 16.0628 82.1281 15.4501C82.9591 14.8289 83.916 14.5183 84.9989 14.5183C85.2675 14.5183 85.5571 14.5351 85.8676 14.5687C86.1782 14.6023 86.451 14.6484 86.6861 14.7072V19.4667C86.4343 19.3911 86.0859 19.324 85.641 19.2652C85.1961 19.2064 84.789 19.1771 84.4197 19.1771C83.6306 19.1771 82.9255 19.3491 82.3043 19.6933C81.6916 20.0291 81.2047 20.4991 80.8438 21.1035C80.4912 21.7079 80.3149 22.4046 80.3149 23.1937V34.1354H74.9511Z" fill="white"/>
<path d="M97.4746 34.5131C95.5188 34.5131 93.8273 34.0976 92.4003 33.2666C90.9817 32.4272 89.8863 31.2604 89.114 29.7663C88.3418 28.2637 87.9556 26.5219 87.9556 24.5409C87.9556 22.5431 88.3418 20.7971 89.114 19.303C89.8863 17.8004 90.9817 16.6336 92.4003 15.8026C93.8273 14.9632 95.5188 14.5435 97.4746 14.5435C99.4304 14.5435 101.118 14.9632 102.536 15.8026C103.963 16.6336 105.063 17.8004 105.835 19.303C106.607 20.7971 106.994 22.5431 106.994 24.5409C106.994 26.5219 106.607 28.2637 105.835 29.7663C105.063 31.2604 103.963 32.4272 102.536 33.2666C101.118 34.0976 99.4304 34.5131 97.4746 34.5131ZM97.4998 30.358C98.3895 30.358 99.1324 30.1062 99.7284 29.6026C100.324 29.0905 100.773 28.3938 101.076 27.5124C101.386 26.631 101.542 25.628 101.542 24.5031C101.542 23.3783 101.386 22.3752 101.076 21.4938C100.773 20.6125 100.324 19.9157 99.7284 19.4037C99.1324 18.8917 98.3895 18.6356 97.4998 18.6356C96.6016 18.6356 95.8461 18.8917 95.2334 19.4037C94.629 19.9157 94.1715 20.6125 93.8609 21.4938C93.5587 22.3752 93.4076 23.3783 93.4076 24.5031C93.4076 25.628 93.5587 26.631 93.8609 27.5124C94.1715 28.3938 94.629 29.0905 95.2334 29.6026C95.8461 30.1062 96.6016 30.358 97.4998 30.358Z" fill="white"/>
<path d="M116.022 22.9544V34.1354H110.659V14.7953H115.771V18.2075H115.997C116.425 17.0827 117.143 16.1929 118.15 15.5382C119.158 14.8751 120.379 14.5435 121.814 14.5435C123.157 14.5435 124.328 14.8373 125.327 15.4249C126.326 16.0125 127.103 16.8519 127.657 17.9431C128.211 19.026 128.488 20.3187 128.488 21.8212V34.1354H123.124V22.7781C123.132 21.5946 122.83 20.6712 122.217 20.0081C121.605 19.3365 120.761 19.0008 119.686 19.0008C118.965 19.0008 118.327 19.1561 117.773 19.4667C117.227 19.7772 116.799 20.2305 116.488 20.8265C116.186 21.4141 116.031 22.1234 116.022 22.9544Z" fill="white"/>
<path d="M143.179 14.7953V18.8245H131.533V14.7953H143.179ZM134.177 10.1618H139.541V28.1924C139.541 28.6876 139.616 29.0737 139.767 29.3507C139.918 29.6194 140.128 29.8082 140.397 29.9174C140.674 30.0265 140.993 30.081 141.354 30.081C141.606 30.081 141.857 30.0601 142.109 30.0181C142.361 29.9677 142.554 29.9299 142.688 29.9048L143.532 33.8962C143.263 33.9801 142.886 34.0766 142.399 34.1858C141.912 34.3033 141.32 34.3746 140.623 34.3998C139.331 34.4502 138.198 34.2781 137.224 33.8836C136.259 33.4891 135.507 32.8763 134.97 32.0453C134.433 31.2142 134.168 30.165 134.177 28.8975V10.1618Z" fill="white"/>
<path d="M155.457 34.5131C153.468 34.5131 151.755 34.1102 150.32 33.3044C148.893 32.4902 147.793 31.3402 147.021 29.8544C146.249 28.3602 145.862 26.5933 145.862 24.5535C145.862 22.5641 146.249 20.8181 147.021 19.3156C147.793 17.813 148.88 16.642 150.282 15.8026C151.692 14.9632 153.346 14.5435 155.243 14.5435C156.519 14.5435 157.707 14.7492 158.806 15.1605C159.914 15.5634 160.88 16.172 161.702 16.9862C162.533 17.8004 163.18 18.8245 163.641 20.0584C164.103 21.284 164.334 22.7194 164.334 24.3646V25.8378H148.003V22.5137H159.285C159.285 21.7415 159.117 21.0573 158.781 20.4614C158.445 19.8654 157.979 19.3995 157.383 19.0637C156.796 18.7196 156.112 18.5475 155.331 18.5475C154.517 18.5475 153.795 18.7364 153.165 19.1141C152.544 19.4834 152.057 19.9829 151.705 20.6125C151.352 21.2336 151.172 21.9261 151.163 22.69V25.8504C151.163 26.8073 151.34 27.6341 151.692 28.3309C152.053 29.0276 152.561 29.5648 153.216 29.9425C153.87 30.3203 154.647 30.5091 155.545 30.5091C156.141 30.5091 156.687 30.4252 157.182 30.2573C157.677 30.0894 158.101 29.8376 158.454 29.5018C158.806 29.1661 159.075 28.7548 159.259 28.2679L164.22 28.5953C163.969 29.7872 163.452 30.8281 162.672 31.7179C161.899 32.5993 160.901 33.2876 159.675 33.7828C158.458 34.2697 157.052 34.5131 155.457 34.5131Z" fill="white"/>
<path d="M173.375 22.9544V34.1354H168.011V14.7953H173.123V18.2075H173.35C173.778 17.0827 174.496 16.1929 175.503 15.5382C176.51 14.8751 177.732 14.5435 179.167 14.5435C180.51 14.5435 181.681 14.8373 182.68 15.4249C183.679 16.0125 184.455 16.8519 185.009 17.9431C185.563 19.026 185.84 20.3187 185.84 21.8212V34.1354H180.477V22.7781C180.485 21.5946 180.183 20.6712 179.57 20.0081C178.957 19.3365 178.114 19.0008 177.039 19.0008C176.317 19.0008 175.679 19.1561 175.125 19.4667C174.58 19.7772 174.152 20.2305 173.841 20.8265C173.539 21.4141 173.384 22.1234 173.375 22.9544Z" fill="white"/>
<path d="M197.372 34.4502C195.903 34.4502 194.572 34.0724 193.38 33.317C192.197 32.5531 191.257 31.4325 190.56 29.9551C189.872 28.4694 189.528 26.6478 189.528 24.4905C189.528 22.2745 189.884 20.432 190.598 18.963C191.311 17.4856 192.26 16.3818 193.443 15.6515C194.635 14.9128 195.941 14.5435 197.359 14.5435C198.442 14.5435 199.344 14.7282 200.066 15.0975C200.797 15.4585 201.384 15.9117 201.829 16.4574C202.282 16.9946 202.627 17.5234 202.862 18.0439H203.025V8.34863H208.377V34.1354H203.088V31.038H202.862C202.61 31.5752 202.253 32.1082 201.791 32.6371C201.338 33.1575 200.746 33.5898 200.016 33.9339C199.294 34.2781 198.413 34.4502 197.372 34.4502ZM199.072 30.1818C199.936 30.1818 200.667 29.9467 201.263 29.4767C201.867 28.9982 202.329 28.3309 202.648 27.4747C202.975 26.6185 203.139 25.6154 203.139 24.4654C203.139 23.3154 202.979 22.3165 202.66 21.4687C202.341 20.6209 201.88 19.9661 201.275 19.5044C200.671 19.0428 199.936 18.8119 199.072 18.8119C198.19 18.8119 197.447 19.0511 196.843 19.5296C196.239 20.0081 195.781 20.6712 195.471 21.519C195.16 22.3668 195.005 23.3489 195.005 24.4654C195.005 25.5902 195.16 26.5849 195.471 27.4495C195.79 28.3057 196.247 28.9772 196.843 29.4641C197.447 29.9425 198.19 30.1818 199.072 30.1818Z" fill="white"/>
<path d="M229.055 20.3103L224.145 20.6125C224.061 20.1927 223.88 19.815 223.603 19.4792C223.326 19.1351 222.961 18.8623 222.508 18.6608C222.063 18.451 221.53 18.346 220.909 18.346C220.078 18.346 219.377 18.5223 218.806 18.8749C218.235 19.219 217.95 19.6807 217.95 20.2599C217.95 20.7216 218.135 21.1119 218.504 21.4309C218.873 21.7499 219.507 22.0059 220.405 22.1989L223.906 22.9041C225.786 23.2902 227.188 23.9113 228.111 24.7676C229.035 25.6238 229.496 26.7486 229.496 28.142C229.496 29.4095 229.123 30.5217 228.376 31.4787C227.637 32.4356 226.621 33.1827 225.328 33.7199C224.044 34.2487 222.563 34.5131 220.884 34.5131C218.324 34.5131 216.284 33.9801 214.764 32.9141C213.254 31.8396 212.368 30.379 212.108 28.5323L217.383 28.2553C217.543 29.036 217.929 29.632 218.542 30.0433C219.155 30.4462 219.939 30.6476 220.896 30.6476C221.837 30.6476 222.592 30.4672 223.163 30.1062C223.742 29.7369 224.036 29.2626 224.044 28.6834C224.036 28.1966 223.83 27.7978 223.427 27.4873C223.024 27.1683 222.403 26.9248 221.564 26.757L218.214 26.0896C216.326 25.7119 214.92 25.0571 213.996 24.1254C213.081 23.1937 212.624 22.0059 212.624 20.5621C212.624 19.3198 212.96 18.2495 213.631 17.3513C214.311 16.4532 215.264 15.7607 216.489 15.2738C217.723 14.7869 219.167 14.5435 220.821 14.5435C223.264 14.5435 225.186 15.0597 226.588 16.0922C227.998 17.1247 228.82 18.5307 229.055 20.3103Z" fill="white"/>
</svg>
