<svg width="1024" height="828" viewBox="0 0 1024 828" fill="none" xmlns="http://www.w3.org/2000/svg">
<g opacity="0.45">
<g filter="url(#filter0_f_886_5414)">
<ellipse cx="697.423" cy="502.463" rx="153.776" ry="152.86" fill="#009D9D" fill-opacity="0.2"/>
</g>
<g filter="url(#filter1_f_886_5414)">
<ellipse cx="326.663" cy="325.831" rx="153.776" ry="152.86" fill="#1D4ED8" fill-opacity="0.3"/>
</g>
</g>
<path fill-rule="evenodd" clip-rule="evenodd" d="M634.421 151.203C635.802 151.203 636.921 150.084 636.921 148.703C636.921 147.322 635.802 146.203 634.421 146.203C633.04 146.203 631.921 147.322 631.921 148.703C631.921 150.084 633.04 151.203 634.421 151.203ZM634.421 187.873C635.802 187.873 636.921 186.753 636.921 185.372C636.921 183.992 635.802 182.872 634.421 182.872C633.04 182.872 631.921 183.992 631.921 185.372C631.921 186.753 633.04 187.873 634.421 187.873ZM636.921 222.041C636.921 223.421 635.802 224.541 634.421 224.541C633.04 224.541 631.921 223.421 631.921 222.041C631.921 220.66 633.04 219.54 634.421 219.54C635.802 219.54 636.921 220.66 636.921 222.041ZM634.421 169.538C635.802 169.538 636.921 168.419 636.921 167.038C636.921 165.657 635.802 164.538 634.421 164.538C633.04 164.538 631.921 165.657 631.921 167.038C631.921 168.419 633.04 169.538 634.421 169.538ZM636.921 203.706C636.921 205.087 635.802 206.206 634.421 206.206C633.04 206.206 631.921 205.087 631.921 203.706C631.921 202.325 633.04 201.206 634.421 201.206C635.802 201.206 636.921 202.325 636.921 203.706ZM634.421 242.875C635.802 242.875 636.921 241.756 636.921 240.375C636.921 238.994 635.802 237.875 634.421 237.875C633.04 237.875 631.921 238.994 631.921 240.375C631.921 241.756 633.04 242.875 634.421 242.875ZM710.266 148.703C710.266 150.084 709.146 151.203 707.766 151.203C706.385 151.203 705.266 150.084 705.266 148.703C705.266 147.322 706.385 146.203 707.766 146.203C709.146 146.203 710.266 147.322 710.266 148.703ZM707.766 187.873C709.146 187.873 710.266 186.753 710.266 185.372C710.266 183.992 709.146 182.872 707.766 182.872C706.385 182.872 705.266 183.992 705.266 185.372C705.266 186.753 706.385 187.873 707.766 187.873ZM710.266 222.041C710.266 223.421 709.146 224.541 707.766 224.541C706.385 224.541 705.266 223.421 705.266 222.041C705.266 220.66 706.385 219.54 707.766 219.54C709.146 219.54 710.266 220.66 710.266 222.041ZM707.766 169.538C709.146 169.538 710.266 168.419 710.266 167.038C710.266 165.657 709.146 164.538 707.766 164.538C706.385 164.538 705.266 165.657 705.266 167.038C705.266 168.419 706.385 169.538 707.766 169.538ZM710.266 203.706C710.266 205.087 709.146 206.206 707.766 206.206C706.385 206.206 705.266 205.087 705.266 203.706C705.266 202.325 706.385 201.206 707.766 201.206C709.146 201.206 710.266 202.325 710.266 203.706ZM707.766 242.875C709.146 242.875 710.266 241.756 710.266 240.375C710.266 238.994 709.146 237.875 707.766 237.875C706.385 237.875 705.266 238.994 705.266 240.375C705.266 241.756 706.385 242.875 707.766 242.875ZM673.594 148.703C673.594 150.084 672.474 151.203 671.093 151.203C669.713 151.203 668.593 150.084 668.593 148.703C668.593 147.322 669.713 146.203 671.093 146.203C672.474 146.203 673.594 147.322 673.594 148.703ZM671.093 187.873C672.474 187.873 673.594 186.753 673.594 185.372C673.594 183.992 672.474 182.872 671.093 182.872C669.713 182.872 668.593 183.992 668.593 185.372C668.593 186.753 669.713 187.873 671.093 187.873ZM673.594 222.041C673.594 223.421 672.474 224.541 671.093 224.541C669.713 224.541 668.593 223.421 668.593 222.041C668.593 220.66 669.713 219.54 671.093 219.54C672.474 219.54 673.594 220.66 673.594 222.041ZM671.093 169.538C672.474 169.538 673.594 168.419 673.594 167.038C673.594 165.657 672.474 164.538 671.093 164.538C669.713 164.538 668.593 165.657 668.593 167.038C668.593 168.419 669.713 169.538 671.093 169.538ZM673.594 203.706C673.594 205.087 672.474 206.206 671.093 206.206C669.713 206.206 668.593 205.087 668.593 203.706C668.593 202.325 669.713 201.206 671.093 201.206C672.474 201.206 673.594 202.325 673.594 203.706ZM671.093 242.875C672.474 242.875 673.594 241.756 673.594 240.375C673.594 238.994 672.474 237.875 671.093 237.875C669.713 237.875 668.593 238.994 668.593 240.375C668.593 241.756 669.713 242.875 671.093 242.875ZM655.249 148.703C655.249 150.084 654.13 151.203 652.749 151.203C651.368 151.203 650.249 150.084 650.249 148.703C650.249 147.322 651.368 146.203 652.749 146.203C654.13 146.203 655.249 147.322 655.249 148.703ZM652.749 187.873C654.13 187.873 655.249 186.753 655.249 185.372C655.249 183.992 654.13 182.872 652.749 182.872C651.368 182.872 650.249 183.992 650.249 185.372C650.249 186.753 651.368 187.873 652.749 187.873ZM655.249 222.041C655.249 223.421 654.13 224.541 652.749 224.541C651.368 224.541 650.249 223.421 650.249 222.041C650.249 220.66 651.368 219.54 652.749 219.54C654.13 219.54 655.249 220.66 655.249 222.041ZM652.749 169.538C654.13 169.538 655.249 168.419 655.249 167.038C655.249 165.657 654.13 164.538 652.749 164.538C651.368 164.538 650.249 165.657 650.249 167.038C650.249 168.419 651.368 169.538 652.749 169.538ZM655.249 203.706C655.249 205.087 654.13 206.206 652.749 206.206C651.368 206.206 650.249 205.087 650.249 203.706C650.249 202.325 651.368 201.206 652.749 201.206C654.13 201.206 655.249 202.325 655.249 203.706ZM652.749 242.875C654.13 242.875 655.249 241.756 655.249 240.375C655.249 238.994 654.13 237.875 652.749 237.875C651.368 237.875 650.249 238.994 650.249 240.375C650.249 241.756 651.368 242.875 652.749 242.875ZM728.594 148.703C728.594 150.084 727.474 151.203 726.094 151.203C724.713 151.203 723.593 150.084 723.593 148.703C723.593 147.322 724.713 146.203 726.094 146.203C727.474 146.203 728.594 147.322 728.594 148.703ZM726.094 187.873C727.474 187.873 728.594 186.753 728.594 185.372C728.594 183.992 727.474 182.872 726.094 182.872C724.713 182.872 723.593 183.992 723.593 185.372C723.593 186.753 724.713 187.873 726.094 187.873ZM728.594 222.041C728.594 223.421 727.474 224.541 726.094 224.541C724.713 224.541 723.593 223.421 723.593 222.041C723.593 220.66 724.713 219.54 726.094 219.54C727.474 219.54 728.594 220.66 728.594 222.041ZM726.094 169.538C727.474 169.538 728.594 168.419 728.594 167.038C728.594 165.657 727.474 164.538 726.094 164.538C724.713 164.538 723.593 165.657 723.593 167.038C723.593 168.419 724.713 169.538 726.094 169.538ZM728.594 203.706C728.594 205.087 727.474 206.206 726.094 206.206C724.713 206.206 723.593 205.087 723.593 203.706C723.593 202.325 724.713 201.206 726.094 201.206C727.474 201.206 728.594 202.325 728.594 203.706ZM726.094 242.875C727.474 242.875 728.594 241.756 728.594 240.375C728.594 238.994 727.474 237.875 726.094 237.875C724.713 237.875 723.593 238.994 723.593 240.375C723.593 241.756 724.713 242.875 726.094 242.875ZM691.922 148.703C691.922 150.084 690.802 151.203 689.421 151.203C688.041 151.203 686.921 150.084 686.921 148.703C686.921 147.322 688.041 146.203 689.421 146.203C690.802 146.203 691.922 147.322 691.922 148.703ZM689.421 187.873C690.802 187.873 691.922 186.753 691.922 185.372C691.922 183.992 690.802 182.872 689.421 182.872C688.041 182.872 686.921 183.992 686.921 185.372C686.921 186.753 688.041 187.873 689.421 187.873ZM691.922 222.041C691.922 223.421 690.802 224.541 689.421 224.541C688.041 224.541 686.921 223.421 686.921 222.041C686.921 220.66 688.041 219.54 689.421 219.54C690.802 219.54 691.922 220.66 691.922 222.041ZM689.421 169.538C690.802 169.538 691.922 168.419 691.922 167.038C691.922 165.657 690.802 164.538 689.421 164.538C688.041 164.538 686.921 165.657 686.921 167.038C686.921 168.419 688.041 169.538 689.421 169.538ZM691.922 203.706C691.922 205.087 690.802 206.206 689.421 206.206C688.041 206.206 686.921 205.087 686.921 203.706C686.921 202.325 688.041 201.206 689.421 201.206C690.802 201.206 691.922 202.325 691.922 203.706ZM689.421 242.875C690.802 242.875 691.922 241.756 691.922 240.375C691.922 238.994 690.802 237.875 689.421 237.875C688.041 237.875 686.921 238.994 686.921 240.375C686.921 241.756 688.041 242.875 689.421 242.875Z" fill="#55AAF1"/>
<path d="M237.192 534.691C237.192 544.137 239.072 553.491 242.725 562.218C246.377 570.945 251.731 578.874 258.48 585.554C265.229 592.233 273.241 597.531 282.059 601.146C290.876 604.761 300.327 606.621 309.872 606.621L309.872 534.691L237.192 534.691Z" fill="#1A4EDA"/>
<g filter="url(#filter2_d_886_5414)">
<g filter="url(#filter3_d_886_5414)">
<rect x="279.362" y="186.144" width="426.143" height="318.951" rx="10" fill="white"/>
</g>
<rect x="312.613" y="268.663" width="359.635" height="183.512" fill="#EDEDF3"/>
<rect x="337.245" y="332.707" width="183.516" height="23.4009" fill="white"/>
<rect x="337.66" y="368.847" width="260.014" height="23.3238" fill="#009D9D"/>
<rect x="337.245" y="293.295" width="154.872" height="23.4009" fill="#1A4EDA"/>
<rect x="337.245" y="405.374" width="113.31" height="23.4009" fill="#FBA803"/>
<path d="M313.893 240.093V228.573H315.821V238.285H320.909V240.093H313.893ZM322.424 230.141V228.373H324.352V230.141H322.424ZM322.424 240.093V231.453H324.352V240.093H322.424ZM330.085 240.333C329.018 240.333 328.152 240.093 327.485 239.613C326.818 239.133 326.413 238.458 326.269 237.589L328.237 237.285C328.338 237.711 328.562 238.047 328.909 238.293C329.256 238.538 329.693 238.661 330.221 238.661C330.685 238.661 331.042 238.57 331.293 238.389C331.549 238.202 331.677 237.949 331.677 237.629C331.677 237.431 331.629 237.274 331.533 237.157C331.442 237.034 331.24 236.917 330.925 236.805C330.61 236.693 330.128 236.551 329.477 236.381C328.752 236.189 328.176 235.983 327.749 235.765C327.322 235.541 327.016 235.277 326.829 234.973C326.642 234.669 326.549 234.301 326.549 233.869C326.549 233.33 326.69 232.861 326.973 232.461C327.256 232.061 327.65 231.754 328.157 231.541C328.664 231.322 329.261 231.213 329.949 231.213C330.621 231.213 331.216 231.317 331.733 231.525C332.256 231.733 332.677 232.029 332.997 232.413C333.317 232.797 333.514 233.247 333.589 233.765L331.621 234.117C331.573 233.749 331.405 233.458 331.117 233.245C330.834 233.031 330.456 232.911 329.981 232.885C329.528 232.858 329.162 232.927 328.885 233.093C328.608 233.253 328.469 233.479 328.469 233.773C328.469 233.938 328.525 234.079 328.637 234.197C328.749 234.314 328.973 234.431 329.309 234.549C329.65 234.666 330.157 234.81 330.829 234.981C331.517 235.157 332.066 235.359 332.477 235.589C332.893 235.813 333.192 236.082 333.373 236.397C333.56 236.711 333.653 237.093 333.653 237.541C333.653 238.41 333.336 239.093 332.701 239.589C332.072 240.085 331.2 240.333 330.085 240.333ZM340.469 240.093C339.898 240.199 339.338 240.245 338.789 240.229C338.245 240.218 337.757 240.119 337.325 239.933C336.893 239.741 336.565 239.439 336.341 239.029C336.144 238.655 336.04 238.274 336.029 237.885C336.018 237.495 336.013 237.055 336.013 236.565V229.053H337.933V236.453C337.933 236.799 337.936 237.103 337.941 237.365C337.952 237.626 338.008 237.839 338.109 238.005C338.301 238.325 338.608 238.503 339.029 238.541C339.45 238.578 339.93 238.557 340.469 238.477V240.093ZM334.445 232.965V231.453H340.469V232.965H334.445ZM349.346 240.333C348.482 240.333 347.727 240.138 347.082 239.749C346.437 239.359 345.935 238.823 345.578 238.141C345.226 237.453 345.05 236.663 345.05 235.773C345.05 234.866 345.231 234.071 345.594 233.389C345.957 232.706 346.461 232.173 347.106 231.789C347.751 231.405 348.498 231.213 349.346 231.213C350.215 231.213 350.973 231.407 351.618 231.797C352.263 232.186 352.765 232.725 353.122 233.413C353.479 234.095 353.658 234.882 353.658 235.773C353.658 236.669 353.477 237.461 353.114 238.149C352.757 238.831 352.255 239.367 351.61 239.757C350.965 240.141 350.21 240.333 349.346 240.333ZM349.346 238.525C350.114 238.525 350.685 238.269 351.058 237.757C351.431 237.245 351.618 236.583 351.618 235.773C351.618 234.935 351.429 234.269 351.05 233.773C350.671 233.271 350.103 233.021 349.346 233.021C348.829 233.021 348.402 233.138 348.066 233.373C347.735 233.602 347.49 233.925 347.33 234.341C347.17 234.751 347.09 235.229 347.09 235.773C347.09 236.61 347.279 237.279 347.658 237.781C348.042 238.277 348.605 238.525 349.346 238.525ZM356.173 240.093V231.317C356.173 231.098 356.181 230.858 356.197 230.597C356.213 230.33 356.258 230.066 356.333 229.805C356.407 229.543 356.543 229.306 356.741 229.093C356.986 228.821 357.25 228.634 357.533 228.533C357.821 228.426 358.103 228.367 358.381 228.357C358.658 228.341 358.901 228.333 359.109 228.333H360.189V229.901H359.189C358.821 229.901 358.546 229.994 358.365 230.181C358.189 230.362 358.101 230.602 358.101 230.901V240.093H356.173ZM354.781 232.965V231.453H360.189V232.965H354.781ZM364.671 240.093V228.573H372.111V230.381H366.599V233.221H371.151V235.029H366.599V238.285H372.111V240.093H364.671ZM380.006 240.093V235.933C380.006 235.661 379.987 235.359 379.95 235.029C379.913 234.698 379.825 234.381 379.686 234.077C379.553 233.767 379.35 233.514 379.078 233.317C378.811 233.119 378.449 233.021 377.99 233.021C377.745 233.021 377.502 233.061 377.262 233.141C377.022 233.221 376.803 233.359 376.606 233.557C376.414 233.749 376.259 234.015 376.142 234.357C376.025 234.693 375.966 235.125 375.966 235.653L374.822 235.165C374.822 234.429 374.963 233.762 375.246 233.165C375.534 232.567 375.955 232.093 376.51 231.741C377.065 231.383 377.747 231.205 378.558 231.205C379.198 231.205 379.726 231.311 380.142 231.525C380.558 231.738 380.889 232.01 381.134 232.341C381.379 232.671 381.561 233.023 381.678 233.397C381.795 233.77 381.87 234.125 381.902 234.461C381.939 234.791 381.958 235.061 381.958 235.269V240.093H380.006ZM374.014 240.093V231.453H375.734V234.133H375.966V240.093H374.014ZM387.678 244.173C387.198 244.173 386.736 244.098 386.294 243.949C385.856 243.799 385.462 243.583 385.11 243.301C384.758 243.023 384.47 242.687 384.246 242.293L386.022 241.413C386.187 241.727 386.419 241.959 386.718 242.109C387.022 242.263 387.344 242.341 387.686 242.341C388.086 242.341 388.443 242.269 388.758 242.125C389.072 241.986 389.315 241.778 389.486 241.501C389.662 241.229 389.744 240.887 389.734 240.477V238.021H389.974V231.453H391.662V240.509C391.662 240.727 391.651 240.935 391.63 241.133C391.614 241.335 391.584 241.533 391.542 241.725C391.414 242.285 391.168 242.743 390.806 243.101C390.443 243.463 389.992 243.733 389.454 243.909C388.92 244.085 388.328 244.173 387.678 244.173ZM387.51 240.333C386.715 240.333 386.022 240.133 385.43 239.733C384.838 239.333 384.379 238.789 384.054 238.101C383.728 237.413 383.566 236.637 383.566 235.773C383.566 234.898 383.728 234.119 384.054 233.437C384.384 232.749 384.851 232.207 385.454 231.813C386.056 231.413 386.766 231.213 387.582 231.213C388.403 231.213 389.091 231.413 389.646 231.813C390.206 232.207 390.63 232.749 390.918 233.437C391.206 234.125 391.35 234.903 391.35 235.773C391.35 236.631 391.206 237.407 390.918 238.101C390.63 238.789 390.2 239.333 389.63 239.733C389.059 240.133 388.352 240.333 387.51 240.333ZM387.806 238.605C388.323 238.605 388.739 238.487 389.054 238.253C389.374 238.013 389.606 237.679 389.75 237.253C389.899 236.826 389.974 236.333 389.974 235.773C389.974 235.207 389.899 234.714 389.75 234.293C389.606 233.866 389.379 233.535 389.07 233.301C388.76 233.061 388.36 232.941 387.87 232.941C387.352 232.941 386.926 233.069 386.59 233.325C386.254 233.575 386.006 233.917 385.846 234.349C385.686 234.775 385.606 235.25 385.606 235.773C385.606 236.301 385.683 236.781 385.838 237.213C385.998 237.639 386.24 237.978 386.566 238.229C386.891 238.479 387.304 238.605 387.806 238.605ZM394.065 230.141V228.373H395.993V230.141H394.065ZM394.065 240.093V231.453H395.993V240.093H394.065ZM404.365 240.093V235.933C404.365 235.661 404.347 235.359 404.309 235.029C404.272 234.698 404.184 234.381 404.045 234.077C403.912 233.767 403.709 233.514 403.437 233.317C403.171 233.119 402.808 233.021 402.349 233.021C402.104 233.021 401.861 233.061 401.621 233.141C401.381 233.221 401.163 233.359 400.965 233.557C400.773 233.749 400.619 234.015 400.501 234.357C400.384 234.693 400.325 235.125 400.325 235.653L399.181 235.165C399.181 234.429 399.323 233.762 399.605 233.165C399.893 232.567 400.315 232.093 400.869 231.741C401.424 231.383 402.107 231.205 402.917 231.205C403.557 231.205 404.085 231.311 404.501 231.525C404.917 231.738 405.248 232.01 405.493 232.341C405.739 232.671 405.92 233.023 406.037 233.397C406.155 233.77 406.229 234.125 406.261 234.461C406.299 234.791 406.317 235.061 406.317 235.269V240.093H404.365ZM398.373 240.093V231.453H400.093V234.133H400.325V240.093H398.373ZM412.192 240.333C411.318 240.333 410.55 240.143 409.888 239.765C409.227 239.386 408.71 238.861 408.336 238.189C407.968 237.517 407.784 236.743 407.784 235.869C407.784 234.925 407.966 234.106 408.328 233.413C408.691 232.714 409.195 232.173 409.84 231.789C410.486 231.405 411.232 231.213 412.08 231.213C412.976 231.213 413.736 231.423 414.36 231.845C414.99 232.261 415.456 232.85 415.76 233.613C416.064 234.375 416.179 235.274 416.104 236.309H414.192V235.605C414.187 234.666 414.022 233.981 413.696 233.549C413.371 233.117 412.859 232.901 412.16 232.901C411.371 232.901 410.784 233.146 410.4 233.637C410.016 234.122 409.824 234.834 409.824 235.773C409.824 236.647 410.016 237.325 410.4 237.805C410.784 238.285 411.344 238.525 412.08 238.525C412.555 238.525 412.963 238.421 413.304 238.213C413.651 237.999 413.918 237.693 414.104 237.293L416.008 237.869C415.678 238.647 415.166 239.253 414.472 239.685C413.784 240.117 413.024 240.333 412.192 240.333ZM409.216 236.309V234.853H415.16V236.309H409.216ZM421.817 240.333C420.943 240.333 420.175 240.143 419.513 239.765C418.852 239.386 418.335 238.861 417.961 238.189C417.593 237.517 417.409 236.743 417.409 235.869C417.409 234.925 417.591 234.106 417.953 233.413C418.316 232.714 418.82 232.173 419.465 231.789C420.111 231.405 420.857 231.213 421.705 231.213C422.601 231.213 423.361 231.423 423.985 231.845C424.615 232.261 425.081 232.85 425.385 233.613C425.689 234.375 425.804 235.274 425.729 236.309H423.817V235.605C423.812 234.666 423.647 233.981 423.321 233.549C422.996 233.117 422.484 232.901 421.785 232.901C420.996 232.901 420.409 233.146 420.025 233.637C419.641 234.122 419.449 234.834 419.449 235.773C419.449 236.647 419.641 237.325 420.025 237.805C420.409 238.285 420.969 238.525 421.705 238.525C422.18 238.525 422.588 238.421 422.929 238.213C423.276 237.999 423.543 237.693 423.729 237.293L425.633 237.869C425.303 238.647 424.791 239.253 424.097 239.685C423.409 240.117 422.649 240.333 421.817 240.333ZM418.841 236.309V234.853H424.785V236.309H418.841ZM427.514 240.093V231.453H429.218V233.557L429.01 233.285C429.117 232.997 429.258 232.735 429.434 232.501C429.616 232.261 429.832 232.063 430.082 231.909C430.296 231.765 430.53 231.653 430.786 231.573C431.048 231.487 431.314 231.437 431.586 231.421C431.858 231.399 432.122 231.41 432.378 231.453V233.253C432.122 233.178 431.826 233.154 431.49 233.181C431.16 233.207 430.861 233.301 430.594 233.461C430.328 233.605 430.109 233.789 429.938 234.013C429.773 234.237 429.65 234.493 429.57 234.781C429.49 235.063 429.45 235.37 429.45 235.701V240.093H427.514ZM436.929 240.333C435.862 240.333 434.995 240.093 434.329 239.613C433.662 239.133 433.257 238.458 433.113 237.589L435.081 237.285C435.182 237.711 435.406 238.047 435.753 238.293C436.099 238.538 436.537 238.661 437.065 238.661C437.529 238.661 437.886 238.57 438.137 238.389C438.393 238.202 438.521 237.949 438.521 237.629C438.521 237.431 438.473 237.274 438.377 237.157C438.286 237.034 438.083 236.917 437.769 236.805C437.454 236.693 436.971 236.551 436.321 236.381C435.595 236.189 435.019 235.983 434.593 235.765C434.166 235.541 433.859 235.277 433.673 234.973C433.486 234.669 433.393 234.301 433.393 233.869C433.393 233.33 433.534 232.861 433.817 232.461C434.099 232.061 434.494 231.754 435.001 231.541C435.507 231.322 436.105 231.213 436.793 231.213C437.465 231.213 438.059 231.317 438.577 231.525C439.099 231.733 439.521 232.029 439.841 232.413C440.161 232.797 440.358 233.247 440.433 233.765L438.465 234.117C438.417 233.749 438.249 233.458 437.961 233.245C437.678 233.031 437.299 232.911 436.825 232.885C436.371 232.858 436.006 232.927 435.729 233.093C435.451 233.253 435.313 233.479 435.313 233.773C435.313 233.938 435.369 234.079 435.481 234.197C435.593 234.314 435.817 234.431 436.153 234.549C436.494 234.666 437.001 234.81 437.673 234.981C438.361 235.157 438.91 235.359 439.321 235.589C439.737 235.813 440.035 236.082 440.217 236.397C440.403 236.711 440.497 237.093 440.497 237.541C440.497 238.41 440.179 239.093 439.545 239.589C438.915 240.085 438.043 240.333 436.929 240.333Z" fill="black"/>
<path fill-rule="evenodd" clip-rule="evenodd" d="M686.489 216.934L675.931 206.377L677.691 204.617L688.248 215.175L686.489 216.934Z" fill="black"/>
<path fill-rule="evenodd" clip-rule="evenodd" d="M688.245 206.377L677.687 216.934L675.928 215.175L686.485 204.617L688.245 206.377Z" fill="black"/>
</g>
<g clip-path="url(#clip0_886_5414)">
<path d="M676.559 293.295C702.834 293.295 724.133 271.995 724.133 245.721C724.133 219.446 702.834 198.146 676.559 198.146C650.285 198.146 628.985 219.446 628.985 245.721C628.985 271.995 650.285 293.295 676.559 293.295Z" fill="#1A4EDA"/>
<path d="M676.562 284.22C697.825 284.22 715.062 266.983 715.062 245.721C715.062 224.458 697.825 207.221 676.562 207.221C655.299 207.221 638.062 224.458 638.062 245.721C638.062 266.983 655.299 284.22 676.562 284.22Z" fill="url(#paint0_linear_886_5414)"/>
<path d="M664.874 262.29C664.622 262.29 664.367 262.211 664.151 262.046C663.625 261.646 663.522 260.896 663.922 260.369L675.361 245.318V214.245C675.361 213.584 675.896 213.049 676.557 213.049C677.217 213.049 677.753 213.584 677.753 214.245V245.721C677.753 245.983 677.668 246.236 677.509 246.444L665.826 261.816C665.591 262.126 665.234 262.289 664.873 262.289L664.874 262.29Z" fill="#333333"/>
<path d="M676.562 250.439C679.168 250.439 681.28 248.326 681.28 245.72C681.28 243.114 679.168 241.002 676.562 241.002C673.956 241.002 671.844 243.114 671.844 245.72C671.844 248.326 673.956 250.439 676.562 250.439Z" fill="#333333"/>
</g>
<path d="M627.608 213.655H558.541" stroke="#1A4EDA" stroke-width="10" stroke-linecap="round"/>
<path d="M620.523 232.253L582.45 232.253" stroke="#1A4EDA" stroke-width="10" stroke-linecap="round"/>
<path d="M620.515 249.694L538.921 249.694" stroke="#1A4EDA" stroke-width="10" stroke-linecap="round"/>
<path d="M620.51 266.438L573.587 266.438" stroke="#1A4EDA" stroke-width="10" stroke-linecap="round"/>
<path d="M629.369 280.927L597.057 280.927" stroke="#1A4EDA" stroke-width="10" stroke-linecap="round"/>
<g clip-path="url(#clip1_886_5414)" filter="url(#filter4_d_886_5414)">
<path fill-rule="evenodd" clip-rule="evenodd" d="M347.744 410.853C347.744 407.825 350.198 405.371 353.226 405.371H548.937C551.965 405.371 554.419 407.825 554.419 410.853V481.952C554.419 484.979 551.965 487.433 548.937 487.433H353.226C350.198 487.433 347.744 484.979 347.744 481.952V410.853Z" fill="white"/>
<path d="M433.964 446.571C433.031 446.571 432.224 446.458 431.544 446.231C430.864 446.004 430.297 445.711 429.844 445.351C429.404 444.978 429.071 444.578 428.844 444.151C428.617 443.711 428.497 443.278 428.484 442.851C428.484 442.731 428.524 442.638 428.604 442.571C428.697 442.491 428.804 442.451 428.924 442.451H430.724C430.857 442.451 430.971 442.478 431.064 442.531C431.157 442.584 431.237 442.691 431.304 442.851C431.424 443.211 431.617 443.498 431.884 443.711C432.164 443.924 432.484 444.078 432.844 444.171C433.204 444.251 433.584 444.291 433.984 444.291C434.784 444.291 435.417 444.104 435.884 443.731C436.364 443.344 436.604 442.798 436.604 442.091C436.604 441.384 436.384 440.878 435.944 440.571C435.504 440.251 434.891 440.091 434.104 440.091H432.044C431.897 440.091 431.777 440.051 431.684 439.971C431.591 439.878 431.544 439.758 431.544 439.611V438.771C431.544 438.638 431.571 438.524 431.624 438.431C431.691 438.324 431.757 438.238 431.824 438.171L435.404 434.671H429.684C429.537 434.671 429.417 434.624 429.324 434.531C429.244 434.438 429.204 434.324 429.204 434.191V432.871C429.204 432.724 429.244 432.604 429.324 432.511C429.417 432.418 429.537 432.371 429.684 432.371H438.264C438.411 432.371 438.531 432.418 438.624 432.511C438.717 432.604 438.764 432.724 438.764 432.871V434.071C438.764 434.191 438.737 434.298 438.684 434.391C438.631 434.484 438.571 434.564 438.504 434.631L435.044 438.191L435.284 438.211C436.097 438.278 436.817 438.464 437.444 438.771C438.084 439.064 438.577 439.498 438.924 440.071C439.284 440.644 439.464 441.364 439.464 442.231C439.464 443.138 439.224 443.918 438.744 444.571C438.277 445.211 437.631 445.704 436.804 446.051C435.977 446.398 435.031 446.571 433.964 446.571ZM446.902 446.571C445.955 446.571 445.148 446.431 444.482 446.151C443.815 445.871 443.268 445.484 442.842 444.991C442.415 444.498 442.095 443.931 441.882 443.291C441.668 442.638 441.542 441.944 441.502 441.211C441.488 440.851 441.475 440.458 441.462 440.031C441.462 439.591 441.462 439.151 441.462 438.711C441.475 438.271 441.488 437.864 441.502 437.491C441.528 436.758 441.655 436.071 441.882 435.431C442.108 434.778 442.435 434.211 442.862 433.731C443.302 433.251 443.855 432.871 444.522 432.591C445.188 432.311 445.982 432.171 446.902 432.171C447.835 432.171 448.635 432.311 449.302 432.591C449.968 432.871 450.515 433.251 450.942 433.731C451.382 434.211 451.708 434.778 451.922 435.431C452.148 436.071 452.275 436.758 452.302 437.491C452.328 437.864 452.342 438.271 452.342 438.711C452.342 439.151 452.342 439.591 452.342 440.031C452.342 440.458 452.328 440.851 452.302 441.211C452.275 441.944 452.155 442.638 451.942 443.291C451.728 443.931 451.408 444.498 450.982 444.991C450.555 445.484 450.002 445.871 449.322 446.151C448.655 446.431 447.848 446.571 446.902 446.571ZM446.902 444.271C447.768 444.271 448.402 443.991 448.802 443.431C449.215 442.858 449.428 442.084 449.442 441.111C449.468 440.724 449.482 440.338 449.482 439.951C449.482 439.551 449.482 439.151 449.482 438.751C449.482 438.351 449.468 437.971 449.442 437.611C449.428 436.664 449.215 435.904 448.802 435.331C448.402 434.744 447.768 434.451 446.902 434.451C446.048 434.451 445.415 434.744 445.002 435.331C444.602 435.904 444.388 436.664 444.362 437.611C444.362 437.971 444.355 438.351 444.342 438.751C444.342 439.151 444.342 439.551 444.342 439.951C444.355 440.338 444.362 440.724 444.362 441.111C444.388 442.084 444.608 442.858 445.022 443.431C445.435 443.991 446.062 444.271 446.902 444.271ZM460.046 446.571C459.1 446.571 458.293 446.431 457.626 446.151C456.96 445.871 456.413 445.484 455.986 444.991C455.56 444.498 455.24 443.931 455.026 443.291C454.813 442.638 454.686 441.944 454.646 441.211C454.633 440.851 454.62 440.458 454.606 440.031C454.606 439.591 454.606 439.151 454.606 438.711C454.62 438.271 454.633 437.864 454.646 437.491C454.673 436.758 454.8 436.071 455.026 435.431C455.253 434.778 455.58 434.211 456.006 433.731C456.446 433.251 457 432.871 457.666 432.591C458.333 432.311 459.126 432.171 460.046 432.171C460.98 432.171 461.78 432.311 462.446 432.591C463.113 432.871 463.66 433.251 464.086 433.731C464.526 434.211 464.853 434.778 465.066 435.431C465.293 436.071 465.42 436.758 465.446 437.491C465.473 437.864 465.486 438.271 465.486 438.711C465.486 439.151 465.486 439.591 465.486 440.031C465.486 440.458 465.473 440.851 465.446 441.211C465.42 441.944 465.3 442.638 465.086 443.291C464.873 443.931 464.553 444.498 464.126 444.991C463.7 445.484 463.146 445.871 462.466 446.151C461.8 446.431 460.993 446.571 460.046 446.571ZM460.046 444.271C460.913 444.271 461.546 443.991 461.946 443.431C462.36 442.858 462.573 442.084 462.586 441.111C462.613 440.724 462.626 440.338 462.626 439.951C462.626 439.551 462.626 439.151 462.626 438.751C462.626 438.351 462.613 437.971 462.586 437.611C462.573 436.664 462.36 435.904 461.946 435.331C461.546 434.744 460.913 434.451 460.046 434.451C459.193 434.451 458.56 434.744 458.146 435.331C457.746 435.904 457.533 436.664 457.506 437.611C457.506 437.971 457.5 438.351 457.486 438.751C457.486 439.151 457.486 439.551 457.486 439.951C457.5 440.338 457.506 440.724 457.506 441.111C457.533 442.084 457.753 442.858 458.166 443.431C458.58 443.991 459.206 444.271 460.046 444.271Z" fill="#333333"/>
<ellipse cx="389.986" cy="445.1" rx="22.7472" ry="22.795" fill="#009D9D"/>
<path fill-rule="evenodd" clip-rule="evenodd" d="M395.727 438.326C395.727 435.596 393.452 433.383 390.644 433.383C387.837 433.383 385.562 435.596 385.562 438.326V442.034C385.562 444.765 387.837 446.978 390.644 446.978C393.452 446.978 395.727 444.765 395.727 442.034V438.326ZM378.304 455.983V457.395L402.265 457.388V455.983C402.265 452.082 399.015 448.92 395.004 448.92H385.565C381.555 448.92 378.304 452.082 378.304 455.983ZM381.94 436.915H383.386C383.787 436.915 384.113 437.231 384.113 437.621C384.113 438.011 383.787 438.327 383.386 438.327H381.94V439.738C381.94 440.128 381.615 440.445 381.214 440.445C380.813 440.445 380.488 440.128 380.488 439.738V438.327H379.03C378.629 438.327 378.304 438.011 378.304 437.621C378.304 437.231 378.629 436.915 379.03 436.915H380.488V435.501C380.488 435.111 380.813 434.795 381.214 434.795C381.615 434.795 381.94 435.111 381.94 435.501V436.915Z" fill="white"/>
<path d="M429.064 460.371C428.976 460.371 428.908 460.347 428.86 460.299C428.812 460.243 428.788 460.175 428.788 460.095V452.259C428.788 452.171 428.812 452.103 428.86 452.055C428.908 451.999 428.976 451.971 429.064 451.971H429.676C429.764 451.971 429.832 451.999 429.88 452.055C429.936 452.103 429.964 452.171 429.964 452.259V455.571H434.092V452.259C434.092 452.171 434.116 452.103 434.164 452.055C434.22 451.999 434.288 451.971 434.368 451.971H434.98C435.068 451.971 435.136 451.999 435.184 452.055C435.24 452.103 435.268 452.171 435.268 452.259V460.095C435.268 460.175 435.24 460.243 435.184 460.299C435.136 460.347 435.068 460.371 434.98 460.371H434.368C434.288 460.371 434.22 460.347 434.164 460.299C434.116 460.243 434.092 460.175 434.092 460.095V456.651H429.964V460.095C429.964 460.175 429.936 460.243 429.88 460.299C429.832 460.347 429.764 460.371 429.676 460.371H429.064ZM437.463 460.371C437.383 460.371 437.315 460.347 437.259 460.299C437.211 460.243 437.187 460.175 437.187 460.095V454.407C437.187 454.327 437.211 454.263 437.259 454.215C437.315 454.159 437.383 454.131 437.463 454.131H438.039C438.119 454.131 438.183 454.159 438.231 454.215C438.279 454.263 438.303 454.327 438.303 454.407V460.095C438.303 460.175 438.279 460.243 438.231 460.299C438.183 460.347 438.119 460.371 438.039 460.371H437.463ZM437.367 452.967C437.287 452.967 437.219 452.943 437.163 452.895C437.115 452.839 437.091 452.771 437.091 452.691V452.043C437.091 451.963 437.115 451.899 437.163 451.851C437.219 451.795 437.287 451.767 437.367 451.767H438.123C438.203 451.767 438.267 451.795 438.315 451.851C438.371 451.899 438.399 451.963 438.399 452.043V452.691C438.399 452.771 438.371 452.839 438.315 452.895C438.267 452.943 438.203 452.967 438.123 452.967H437.367ZM440.369 460.371C440.289 460.371 440.221 460.347 440.165 460.299C440.117 460.243 440.093 460.175 440.093 460.095V454.419C440.093 454.339 440.117 454.271 440.165 454.215C440.221 454.159 440.289 454.131 440.369 454.131H440.921C441.001 454.131 441.069 454.159 441.125 454.215C441.181 454.271 441.209 454.339 441.209 454.419V454.947C441.369 454.675 441.589 454.471 441.869 454.335C442.149 454.199 442.485 454.131 442.877 454.131H443.357C443.437 454.131 443.501 454.159 443.549 454.215C443.597 454.263 443.621 454.327 443.621 454.407V454.899C443.621 454.979 443.597 455.043 443.549 455.091C443.501 455.139 443.437 455.163 443.357 455.163H442.637C442.205 455.163 441.865 455.291 441.617 455.547C441.369 455.795 441.245 456.135 441.245 456.567V460.095C441.245 460.175 441.217 460.243 441.161 460.299C441.105 460.347 441.037 460.371 440.957 460.371H440.369ZM447.018 460.491C446.194 460.491 445.538 460.239 445.05 459.735C444.562 459.223 444.294 458.527 444.246 457.647C444.238 457.543 444.234 457.411 444.234 457.251C444.234 457.083 444.238 456.947 444.246 456.843C444.278 456.275 444.41 455.779 444.642 455.355C444.874 454.923 445.19 454.591 445.59 454.359C445.998 454.127 446.474 454.011 447.018 454.011C447.626 454.011 448.134 454.139 448.542 454.395C448.958 454.651 449.274 455.015 449.49 455.487C449.706 455.959 449.814 456.511 449.814 457.143V457.347C449.814 457.435 449.786 457.503 449.73 457.551C449.682 457.599 449.618 457.623 449.538 457.623H445.386C445.386 457.631 445.386 457.647 445.386 457.671C445.386 457.695 445.386 457.715 445.386 457.731C445.402 458.059 445.474 458.367 445.602 458.655C445.73 458.935 445.914 459.163 446.154 459.339C446.394 459.515 446.682 459.603 447.018 459.603C447.306 459.603 447.546 459.559 447.738 459.471C447.93 459.383 448.086 459.287 448.206 459.183C448.326 459.071 448.406 458.987 448.446 458.931C448.518 458.827 448.574 458.767 448.614 458.751C448.654 458.727 448.718 458.715 448.806 458.715H449.382C449.462 458.715 449.526 458.739 449.574 458.787C449.63 458.827 449.654 458.887 449.646 458.967C449.638 459.087 449.574 459.235 449.454 459.411C449.334 459.579 449.162 459.747 448.938 459.915C448.714 460.083 448.442 460.223 448.122 460.335C447.802 460.439 447.434 460.491 447.018 460.491ZM445.386 456.795H448.674V456.759C448.674 456.399 448.606 456.079 448.47 455.799C448.342 455.519 448.154 455.299 447.906 455.139C447.658 454.971 447.362 454.887 447.018 454.887C446.674 454.887 446.378 454.971 446.13 455.139C445.89 455.299 445.706 455.519 445.578 455.799C445.45 456.079 445.386 456.399 445.386 456.759V456.795ZM453.529 460.491C453.089 460.491 452.709 460.415 452.389 460.263C452.069 460.103 451.805 459.891 451.597 459.627C451.397 459.355 451.245 459.047 451.141 458.703C451.045 458.359 450.989 457.995 450.973 457.611C450.965 457.483 450.961 457.363 450.961 457.251C450.961 457.139 450.965 457.019 450.973 456.891C450.989 456.515 451.045 456.155 451.141 455.811C451.245 455.467 451.397 455.159 451.597 454.887C451.805 454.615 452.069 454.403 452.389 454.251C452.709 454.091 453.089 454.011 453.529 454.011C454.001 454.011 454.393 454.095 454.705 454.263C455.017 454.431 455.273 454.639 455.473 454.887V452.127C455.473 452.047 455.497 451.983 455.545 451.935C455.601 451.879 455.669 451.851 455.749 451.851H456.325C456.405 451.851 456.469 451.879 456.517 451.935C456.573 451.983 456.601 452.047 456.601 452.127V460.095C456.601 460.175 456.573 460.243 456.517 460.299C456.469 460.347 456.405 460.371 456.325 460.371H455.785C455.697 460.371 455.629 460.347 455.581 460.299C455.533 460.243 455.509 460.175 455.509 460.095V459.591C455.309 459.847 455.049 460.063 454.729 460.239C454.409 460.407 454.009 460.491 453.529 460.491ZM453.781 459.519C454.181 459.519 454.501 459.427 454.741 459.243C454.981 459.059 455.161 458.827 455.281 458.547C455.401 458.259 455.465 457.967 455.473 457.671C455.481 457.543 455.485 457.391 455.485 457.215C455.485 457.031 455.481 456.875 455.473 456.747C455.465 456.467 455.397 456.191 455.269 455.919C455.149 455.647 454.965 455.423 454.717 455.247C454.477 455.071 454.165 454.983 453.781 454.983C453.373 454.983 453.049 455.075 452.809 455.259C452.569 455.435 452.397 455.671 452.293 455.967C452.189 456.255 452.129 456.567 452.113 456.903C452.105 457.135 452.105 457.367 452.113 457.599C452.129 457.935 452.189 458.251 452.293 458.547C452.397 458.835 452.569 459.071 452.809 459.255C453.049 459.431 453.373 459.519 453.781 459.519ZM461.759 460.371C461.671 460.371 461.603 460.347 461.555 460.299C461.507 460.243 461.483 460.175 461.483 460.095V452.259C461.483 452.171 461.507 452.103 461.555 452.055C461.603 451.999 461.671 451.971 461.759 451.971H466.715C466.803 451.971 466.871 451.999 466.919 452.055C466.967 452.103 466.991 452.171 466.991 452.259V452.715C466.991 452.803 466.967 452.871 466.919 452.919C466.871 452.967 466.803 452.991 466.715 452.991H462.635V455.619H466.451C466.539 455.619 466.607 455.647 466.655 455.703C466.703 455.751 466.727 455.819 466.727 455.907V456.351C466.727 456.431 466.703 456.499 466.655 456.555C466.607 456.603 466.539 456.627 466.451 456.627H462.635V459.351H466.811C466.899 459.351 466.967 459.375 467.015 459.423C467.063 459.471 467.087 459.539 467.087 459.627V460.095C467.087 460.175 467.063 460.243 467.015 460.299C466.967 460.347 466.899 460.371 466.811 460.371H461.759ZM468.881 460.371C468.801 460.371 468.733 460.347 468.677 460.299C468.629 460.243 468.605 460.175 468.605 460.095V454.407C468.605 454.327 468.629 454.263 468.677 454.215C468.733 454.159 468.801 454.131 468.881 454.131H469.445C469.525 454.131 469.589 454.159 469.637 454.215C469.693 454.263 469.721 454.327 469.721 454.407V454.935C469.929 454.663 470.189 454.443 470.501 454.275C470.821 454.099 471.229 454.011 471.725 454.011C472.245 454.011 472.685 454.127 473.045 454.359C473.413 454.583 473.689 454.899 473.873 455.307C474.057 455.707 474.149 456.175 474.149 456.711V460.095C474.149 460.175 474.125 460.243 474.077 460.299C474.029 460.347 473.965 460.371 473.885 460.371H473.285C473.205 460.371 473.137 460.347 473.081 460.299C473.033 460.243 473.009 460.175 473.009 460.095V456.771C473.009 456.211 472.873 455.775 472.601 455.463C472.329 455.143 471.929 454.983 471.401 454.983C470.905 454.983 470.505 455.143 470.201 455.463C469.905 455.775 469.757 456.211 469.757 456.771V460.095C469.757 460.175 469.729 460.243 469.673 460.299C469.625 460.347 469.561 460.371 469.481 460.371H468.881ZM478.438 463.011C477.894 463.011 477.446 462.939 477.094 462.795C476.75 462.651 476.478 462.475 476.278 462.267C476.086 462.067 475.946 461.863 475.858 461.655C475.778 461.455 475.734 461.295 475.726 461.175C475.718 461.095 475.742 461.027 475.798 460.971C475.862 460.915 475.93 460.887 476.002 460.887H476.578C476.65 460.887 476.71 460.903 476.758 460.935C476.806 460.967 476.846 461.035 476.878 461.139C476.926 461.259 476.998 461.391 477.094 461.535C477.19 461.687 477.338 461.815 477.538 461.919C477.738 462.031 478.018 462.087 478.378 462.087C478.754 462.087 479.07 462.035 479.326 461.931C479.582 461.835 479.774 461.659 479.902 461.403C480.038 461.155 480.106 460.811 480.106 460.371V459.555C479.914 459.803 479.662 460.011 479.35 460.179C479.038 460.339 478.646 460.419 478.174 460.419C477.726 460.419 477.342 460.343 477.022 460.191C476.702 460.031 476.438 459.819 476.23 459.555C476.03 459.283 475.878 458.975 475.774 458.631C475.678 458.287 475.622 457.927 475.606 457.551C475.598 457.327 475.598 457.107 475.606 456.891C475.622 456.515 475.678 456.155 475.774 455.811C475.878 455.467 476.03 455.159 476.23 454.887C476.438 454.615 476.702 454.403 477.022 454.251C477.342 454.091 477.726 454.011 478.174 454.011C478.654 454.011 479.05 454.103 479.362 454.287C479.682 454.463 479.942 454.679 480.142 454.935V454.419C480.142 454.339 480.166 454.271 480.214 454.215C480.27 454.159 480.338 454.131 480.418 454.131H480.97C481.05 454.131 481.118 454.159 481.174 454.215C481.23 454.271 481.258 454.339 481.258 454.419V460.239C481.258 460.775 481.166 461.251 480.982 461.667C480.806 462.083 480.51 462.411 480.094 462.651C479.686 462.891 479.134 463.011 478.438 463.011ZM478.414 459.459C478.814 459.459 479.134 459.367 479.374 459.183C479.622 458.999 479.802 458.767 479.914 458.487C480.034 458.207 480.098 457.923 480.106 457.635C480.114 457.523 480.118 457.387 480.118 457.227C480.118 457.059 480.114 456.919 480.106 456.807C480.098 456.519 480.034 456.235 479.914 455.955C479.802 455.675 479.622 455.443 479.374 455.259C479.134 455.075 478.814 454.983 478.414 454.983C478.014 454.983 477.694 455.075 477.454 455.259C477.214 455.435 477.042 455.671 476.938 455.967C476.834 456.255 476.774 456.567 476.758 456.903C476.75 457.111 476.75 457.323 476.758 457.539C476.774 457.875 476.834 458.191 476.938 458.487C477.042 458.775 477.214 459.011 477.454 459.195C477.694 459.371 478.014 459.459 478.414 459.459ZM483.318 460.371C483.238 460.371 483.17 460.347 483.114 460.299C483.066 460.243 483.042 460.175 483.042 460.095V454.407C483.042 454.327 483.066 454.263 483.114 454.215C483.17 454.159 483.238 454.131 483.318 454.131H483.894C483.974 454.131 484.038 454.159 484.086 454.215C484.134 454.263 484.158 454.327 484.158 454.407V460.095C484.158 460.175 484.134 460.243 484.086 460.299C484.038 460.347 483.974 460.371 483.894 460.371H483.318ZM483.222 452.967C483.142 452.967 483.074 452.943 483.018 452.895C482.97 452.839 482.946 452.771 482.946 452.691V452.043C482.946 451.963 482.97 451.899 483.018 451.851C483.074 451.795 483.142 451.767 483.222 451.767H483.978C484.058 451.767 484.122 451.795 484.17 451.851C484.226 451.899 484.254 451.963 484.254 452.043V452.691C484.254 452.771 484.226 452.839 484.17 452.895C484.122 452.943 484.058 452.967 483.978 452.967H483.222ZM486.224 460.371C486.144 460.371 486.076 460.347 486.02 460.299C485.972 460.243 485.948 460.175 485.948 460.095V454.407C485.948 454.327 485.972 454.263 486.02 454.215C486.076 454.159 486.144 454.131 486.224 454.131H486.788C486.868 454.131 486.932 454.159 486.98 454.215C487.036 454.263 487.064 454.327 487.064 454.407V454.935C487.272 454.663 487.532 454.443 487.844 454.275C488.164 454.099 488.572 454.011 489.068 454.011C489.588 454.011 490.028 454.127 490.388 454.359C490.756 454.583 491.032 454.899 491.216 455.307C491.4 455.707 491.492 456.175 491.492 456.711V460.095C491.492 460.175 491.468 460.243 491.42 460.299C491.372 460.347 491.308 460.371 491.228 460.371H490.628C490.548 460.371 490.48 460.347 490.424 460.299C490.376 460.243 490.352 460.175 490.352 460.095V456.771C490.352 456.211 490.216 455.775 489.944 455.463C489.672 455.143 489.272 454.983 488.744 454.983C488.248 454.983 487.848 455.143 487.544 455.463C487.248 455.775 487.1 456.211 487.1 456.771V460.095C487.1 460.175 487.072 460.243 487.016 460.299C486.968 460.347 486.904 460.371 486.824 460.371H486.224ZM495.71 460.491C494.886 460.491 494.23 460.239 493.742 459.735C493.254 459.223 492.986 458.527 492.938 457.647C492.93 457.543 492.926 457.411 492.926 457.251C492.926 457.083 492.93 456.947 492.938 456.843C492.97 456.275 493.102 455.779 493.334 455.355C493.566 454.923 493.882 454.591 494.282 454.359C494.69 454.127 495.166 454.011 495.71 454.011C496.318 454.011 496.826 454.139 497.234 454.395C497.65 454.651 497.966 455.015 498.182 455.487C498.398 455.959 498.506 456.511 498.506 457.143V457.347C498.506 457.435 498.478 457.503 498.422 457.551C498.374 457.599 498.31 457.623 498.23 457.623H494.078C494.078 457.631 494.078 457.647 494.078 457.671C494.078 457.695 494.078 457.715 494.078 457.731C494.094 458.059 494.166 458.367 494.294 458.655C494.422 458.935 494.606 459.163 494.846 459.339C495.086 459.515 495.374 459.603 495.71 459.603C495.998 459.603 496.238 459.559 496.43 459.471C496.622 459.383 496.778 459.287 496.898 459.183C497.018 459.071 497.098 458.987 497.138 458.931C497.21 458.827 497.266 458.767 497.306 458.751C497.346 458.727 497.41 458.715 497.498 458.715H498.074C498.154 458.715 498.218 458.739 498.266 458.787C498.322 458.827 498.346 458.887 498.338 458.967C498.33 459.087 498.266 459.235 498.146 459.411C498.026 459.579 497.854 459.747 497.63 459.915C497.406 460.083 497.134 460.223 496.814 460.335C496.494 460.439 496.126 460.491 495.71 460.491ZM494.078 456.795H497.366V456.759C497.366 456.399 497.298 456.079 497.162 455.799C497.034 455.519 496.846 455.299 496.598 455.139C496.35 454.971 496.054 454.887 495.71 454.887C495.366 454.887 495.07 454.971 494.822 455.139C494.582 455.299 494.398 455.519 494.27 455.799C494.142 456.079 494.078 456.399 494.078 456.759V456.795ZM502.425 460.491C501.601 460.491 500.945 460.239 500.457 459.735C499.969 459.223 499.701 458.527 499.653 457.647C499.645 457.543 499.641 457.411 499.641 457.251C499.641 457.083 499.645 456.947 499.653 456.843C499.685 456.275 499.817 455.779 500.049 455.355C500.281 454.923 500.597 454.591 500.997 454.359C501.405 454.127 501.881 454.011 502.425 454.011C503.033 454.011 503.541 454.139 503.949 454.395C504.365 454.651 504.681 455.015 504.897 455.487C505.113 455.959 505.221 456.511 505.221 457.143V457.347C505.221 457.435 505.193 457.503 505.137 457.551C505.089 457.599 505.025 457.623 504.945 457.623H500.793C500.793 457.631 500.793 457.647 500.793 457.671C500.793 457.695 500.793 457.715 500.793 457.731C500.809 458.059 500.881 458.367 501.009 458.655C501.137 458.935 501.321 459.163 501.561 459.339C501.801 459.515 502.089 459.603 502.425 459.603C502.713 459.603 502.953 459.559 503.145 459.471C503.337 459.383 503.493 459.287 503.613 459.183C503.733 459.071 503.813 458.987 503.853 458.931C503.925 458.827 503.981 458.767 504.021 458.751C504.061 458.727 504.125 458.715 504.213 458.715H504.789C504.869 458.715 504.933 458.739 504.981 458.787C505.037 458.827 505.061 458.887 505.053 458.967C505.045 459.087 504.981 459.235 504.861 459.411C504.741 459.579 504.569 459.747 504.345 459.915C504.121 460.083 503.849 460.223 503.529 460.335C503.209 460.439 502.841 460.491 502.425 460.491ZM500.793 456.795H504.081V456.759C504.081 456.399 504.013 456.079 503.877 455.799C503.749 455.519 503.561 455.299 503.313 455.139C503.065 454.971 502.769 454.887 502.425 454.887C502.081 454.887 501.785 454.971 501.537 455.139C501.297 455.299 501.113 455.519 500.985 455.799C500.857 456.079 500.793 456.399 500.793 456.759V456.795ZM506.931 460.371C506.851 460.371 506.783 460.347 506.727 460.299C506.679 460.243 506.655 460.175 506.655 460.095V454.419C506.655 454.339 506.679 454.271 506.727 454.215C506.783 454.159 506.851 454.131 506.931 454.131H507.483C507.563 454.131 507.631 454.159 507.687 454.215C507.743 454.271 507.771 454.339 507.771 454.419V454.947C507.931 454.675 508.151 454.471 508.431 454.335C508.711 454.199 509.047 454.131 509.439 454.131H509.919C509.999 454.131 510.063 454.159 510.111 454.215C510.159 454.263 510.183 454.327 510.183 454.407V454.899C510.183 454.979 510.159 455.043 510.111 455.091C510.063 455.139 509.999 455.163 509.919 455.163H509.199C508.767 455.163 508.427 455.291 508.179 455.547C507.931 455.795 507.807 456.135 507.807 456.567V460.095C507.807 460.175 507.779 460.243 507.723 460.299C507.667 460.347 507.599 460.371 507.519 460.371H506.931Z" fill="#333333"/>
</g>
<g clip-path="url(#clip2_886_5414)" filter="url(#filter5_d_886_5414)">
<path fill-rule="evenodd" clip-rule="evenodd" d="M335.928 510.574C335.928 507.547 338.382 505.093 341.409 505.093H537.121C540.148 505.093 542.603 507.547 542.603 510.574V581.673C542.603 584.701 540.148 587.155 537.121 587.155H341.409C338.382 587.155 335.928 584.701 335.928 581.673V510.574Z" fill="white"/>
<path d="M415.771 546.095C415.637 546.095 415.524 546.048 415.431 545.955C415.337 545.861 415.291 545.748 415.291 545.615V544.595C415.291 544.475 415.317 544.335 415.371 544.175C415.437 544.001 415.577 543.828 415.791 543.655L418.951 540.515C419.831 539.821 420.537 539.235 421.071 538.755C421.617 538.261 422.011 537.815 422.251 537.415C422.504 537.001 422.631 536.595 422.631 536.195C422.631 535.595 422.464 535.108 422.131 534.735C421.811 534.361 421.297 534.175 420.591 534.175C420.124 534.175 419.731 534.275 419.411 534.475C419.091 534.661 418.837 534.915 418.651 535.235C418.477 535.555 418.357 535.908 418.291 536.295C418.264 536.468 418.191 536.588 418.071 536.655C417.951 536.721 417.831 536.755 417.711 536.755H415.931C415.811 536.755 415.711 536.715 415.631 536.635C415.551 536.555 415.511 536.461 415.511 536.355C415.524 535.781 415.644 535.228 415.871 534.695C416.097 534.148 416.424 533.668 416.851 533.255C417.291 532.828 417.824 532.488 418.451 532.235C419.077 531.981 419.784 531.855 420.571 531.855C421.677 531.855 422.591 532.041 423.311 532.415C424.044 532.788 424.591 533.295 424.951 533.935C425.324 534.575 425.511 535.295 425.511 536.095C425.511 536.721 425.391 537.301 425.151 537.835C424.911 538.355 424.564 538.861 424.111 539.355C423.657 539.835 423.111 540.328 422.471 540.835L419.631 543.715H425.331C425.477 543.715 425.591 543.761 425.671 543.855C425.764 543.935 425.811 544.048 425.811 544.195V545.615C425.811 545.748 425.764 545.861 425.671 545.955C425.591 546.048 425.477 546.095 425.331 546.095H415.771ZM433.333 546.295C432.387 546.295 431.58 546.155 430.913 545.875C430.247 545.595 429.7 545.208 429.273 544.715C428.847 544.221 428.527 543.655 428.313 543.015C428.1 542.361 427.973 541.668 427.933 540.935C427.92 540.575 427.907 540.181 427.893 539.755C427.893 539.315 427.893 538.875 427.893 538.435C427.907 537.995 427.92 537.588 427.933 537.215C427.96 536.481 428.087 535.795 428.313 535.155C428.54 534.501 428.867 533.935 429.293 533.455C429.733 532.975 430.287 532.595 430.953 532.315C431.62 532.035 432.413 531.895 433.333 531.895C434.267 531.895 435.067 532.035 435.733 532.315C436.4 532.595 436.947 532.975 437.373 533.455C437.813 533.935 438.14 534.501 438.353 535.155C438.58 535.795 438.707 536.481 438.733 537.215C438.76 537.588 438.773 537.995 438.773 538.435C438.773 538.875 438.773 539.315 438.773 539.755C438.773 540.181 438.76 540.575 438.733 540.935C438.707 541.668 438.587 542.361 438.373 543.015C438.16 543.655 437.84 544.221 437.413 544.715C436.987 545.208 436.433 545.595 435.753 545.875C435.087 546.155 434.28 546.295 433.333 546.295ZM433.333 543.995C434.2 543.995 434.833 543.715 435.233 543.155C435.647 542.581 435.86 541.808 435.873 540.835C435.9 540.448 435.913 540.061 435.913 539.675C435.913 539.275 435.913 538.875 435.913 538.475C435.913 538.075 435.9 537.695 435.873 537.335C435.86 536.388 435.647 535.628 435.233 535.055C434.833 534.468 434.2 534.175 433.333 534.175C432.48 534.175 431.847 534.468 431.433 535.055C431.033 535.628 430.82 536.388 430.793 537.335C430.793 537.695 430.787 538.075 430.773 538.475C430.773 538.875 430.773 539.275 430.773 539.675C430.787 540.061 430.793 540.448 430.793 540.835C430.82 541.808 431.04 542.581 431.453 543.155C431.867 543.715 432.493 543.995 433.333 543.995Z" fill="#333333"/>
<ellipse cx="376.61" cy="544.821" rx="22.7472" ry="22.795" fill="#FBA803"/>
<path fill-rule="evenodd" clip-rule="evenodd" d="M377.269 533.104C380.076 533.104 382.352 535.317 382.352 538.047V541.755C382.352 544.485 380.076 546.699 377.269 546.699C374.462 546.699 372.186 544.485 372.186 541.755V538.047C372.186 535.317 374.462 533.104 377.269 533.104ZM364.928 557.116V555.703C364.928 551.803 368.179 548.641 372.189 548.641H381.629C385.639 548.641 388.89 551.803 388.89 555.703V557.108L364.928 557.116ZM370.011 536.635H365.654C365.253 536.635 364.928 536.952 364.928 537.342C364.928 537.732 365.253 538.048 365.654 538.048H370.011C370.412 538.048 370.737 537.732 370.737 537.342C370.737 536.952 370.412 536.635 370.011 536.635Z" fill="white"/>
<path d="M418.603 560.215C417.931 560.215 417.351 560.095 416.863 559.855C416.383 559.615 416.011 559.251 415.747 558.763C415.491 558.267 415.363 557.631 415.363 556.855V551.983C415.363 551.895 415.387 551.827 415.435 551.779C415.483 551.723 415.551 551.695 415.639 551.695H416.251C416.339 551.695 416.407 551.723 416.455 551.779C416.511 551.827 416.539 551.895 416.539 551.983V556.879C416.539 557.663 416.723 558.243 417.091 558.619C417.459 558.995 417.963 559.183 418.603 559.183C419.235 559.183 419.735 558.995 420.103 558.619C420.479 558.243 420.667 557.663 420.667 556.879V551.983C420.667 551.895 420.691 551.827 420.739 551.779C420.795 551.723 420.863 551.695 420.943 551.695H421.567C421.647 551.695 421.711 551.723 421.759 551.779C421.815 551.827 421.843 551.895 421.843 551.983V556.855C421.843 557.631 421.711 558.267 421.447 558.763C421.191 559.251 420.823 559.615 420.343 559.855C419.863 560.095 419.283 560.215 418.603 560.215ZM423.969 560.095C423.889 560.095 423.821 560.071 423.765 560.023C423.717 559.967 423.693 559.899 423.693 559.819V554.131C423.693 554.051 423.717 553.987 423.765 553.939C423.821 553.883 423.889 553.855 423.969 553.855H424.533C424.613 553.855 424.677 553.883 424.725 553.939C424.781 553.987 424.809 554.051 424.809 554.131V554.659C425.017 554.387 425.277 554.167 425.589 553.999C425.909 553.823 426.317 553.735 426.813 553.735C427.333 553.735 427.773 553.851 428.133 554.083C428.501 554.307 428.777 554.623 428.961 555.031C429.145 555.431 429.237 555.899 429.237 556.435V559.819C429.237 559.899 429.213 559.967 429.165 560.023C429.117 560.071 429.053 560.095 428.973 560.095H428.373C428.293 560.095 428.225 560.071 428.169 560.023C428.121 559.967 428.097 559.899 428.097 559.819V556.495C428.097 555.935 427.961 555.499 427.689 555.187C427.417 554.867 427.017 554.707 426.489 554.707C425.993 554.707 425.593 554.867 425.289 555.187C424.993 555.499 424.845 555.935 424.845 556.495V559.819C424.845 559.899 424.817 559.967 424.761 560.023C424.713 560.071 424.649 560.095 424.569 560.095H423.969ZM433.25 560.215C432.81 560.215 432.43 560.139 432.11 559.987C431.79 559.827 431.526 559.615 431.318 559.351C431.118 559.079 430.966 558.771 430.862 558.427C430.766 558.083 430.71 557.719 430.694 557.335C430.686 557.207 430.682 557.087 430.682 556.975C430.682 556.863 430.686 556.743 430.694 556.615C430.71 556.239 430.766 555.879 430.862 555.535C430.966 555.191 431.118 554.883 431.318 554.611C431.526 554.339 431.79 554.127 432.11 553.975C432.43 553.815 432.81 553.735 433.25 553.735C433.722 553.735 434.114 553.819 434.426 553.987C434.738 554.155 434.994 554.363 435.194 554.611V551.851C435.194 551.771 435.218 551.707 435.266 551.659C435.322 551.603 435.39 551.575 435.47 551.575H436.046C436.126 551.575 436.19 551.603 436.238 551.659C436.294 551.707 436.322 551.771 436.322 551.851V559.819C436.322 559.899 436.294 559.967 436.238 560.023C436.19 560.071 436.126 560.095 436.046 560.095H435.506C435.418 560.095 435.35 560.071 435.302 560.023C435.254 559.967 435.23 559.899 435.23 559.819V559.315C435.03 559.571 434.77 559.787 434.45 559.963C434.13 560.131 433.73 560.215 433.25 560.215ZM433.502 559.243C433.902 559.243 434.222 559.151 434.462 558.967C434.702 558.783 434.882 558.551 435.002 558.271C435.122 557.983 435.186 557.691 435.194 557.395C435.202 557.267 435.206 557.115 435.206 556.939C435.206 556.755 435.202 556.599 435.194 556.471C435.186 556.191 435.118 555.915 434.99 555.643C434.87 555.371 434.686 555.147 434.438 554.971C434.198 554.795 433.886 554.707 433.502 554.707C433.094 554.707 432.77 554.799 432.53 554.983C432.29 555.159 432.118 555.395 432.014 555.691C431.91 555.979 431.85 556.291 431.834 556.627C431.826 556.859 431.826 557.091 431.834 557.323C431.85 557.659 431.91 557.975 432.014 558.271C432.118 558.559 432.29 558.795 432.53 558.979C432.77 559.155 433.094 559.243 433.502 559.243ZM440.591 560.215C439.767 560.215 439.111 559.963 438.623 559.459C438.135 558.947 437.867 558.251 437.819 557.371C437.811 557.267 437.807 557.135 437.807 556.975C437.807 556.807 437.811 556.671 437.819 556.567C437.851 555.999 437.983 555.503 438.215 555.079C438.447 554.647 438.763 554.315 439.163 554.083C439.571 553.851 440.047 553.735 440.591 553.735C441.199 553.735 441.707 553.863 442.115 554.119C442.531 554.375 442.847 554.739 443.063 555.211C443.279 555.683 443.387 556.235 443.387 556.867V557.071C443.387 557.159 443.359 557.227 443.303 557.275C443.255 557.323 443.191 557.347 443.111 557.347H438.959C438.959 557.355 438.959 557.371 438.959 557.395C438.959 557.419 438.959 557.439 438.959 557.455C438.975 557.783 439.047 558.091 439.175 558.379C439.303 558.659 439.487 558.887 439.727 559.063C439.967 559.239 440.255 559.327 440.591 559.327C440.879 559.327 441.119 559.283 441.311 559.195C441.503 559.107 441.659 559.011 441.779 558.907C441.899 558.795 441.979 558.711 442.019 558.655C442.091 558.551 442.147 558.491 442.187 558.475C442.227 558.451 442.291 558.439 442.379 558.439H442.955C443.035 558.439 443.099 558.463 443.147 558.511C443.203 558.551 443.227 558.611 443.219 558.691C443.211 558.811 443.147 558.959 443.027 559.135C442.907 559.303 442.735 559.471 442.511 559.639C442.287 559.807 442.015 559.947 441.695 560.059C441.375 560.163 441.007 560.215 440.591 560.215ZM438.959 556.519H442.247V556.483C442.247 556.123 442.179 555.803 442.043 555.523C441.915 555.243 441.727 555.023 441.479 554.863C441.231 554.695 440.935 554.611 440.591 554.611C440.247 554.611 439.951 554.695 439.703 554.863C439.463 555.023 439.279 555.243 439.151 555.523C439.023 555.803 438.959 556.123 438.959 556.483V556.519ZM445.098 560.095C445.018 560.095 444.95 560.071 444.894 560.023C444.846 559.967 444.822 559.899 444.822 559.819V554.143C444.822 554.063 444.846 553.995 444.894 553.939C444.95 553.883 445.018 553.855 445.098 553.855H445.65C445.73 553.855 445.798 553.883 445.854 553.939C445.91 553.995 445.938 554.063 445.938 554.143V554.671C446.098 554.399 446.318 554.195 446.598 554.059C446.878 553.923 447.214 553.855 447.606 553.855H448.086C448.166 553.855 448.23 553.883 448.278 553.939C448.326 553.987 448.35 554.051 448.35 554.131V554.623C448.35 554.703 448.326 554.767 448.278 554.815C448.23 554.863 448.166 554.887 448.086 554.887H447.366C446.934 554.887 446.594 555.015 446.346 555.271C446.098 555.519 445.974 555.859 445.974 556.291V559.819C445.974 559.899 445.946 559.967 445.89 560.023C445.834 560.071 445.766 560.095 445.686 560.095H445.098ZM452.472 560.095C452.384 560.095 452.316 560.071 452.268 560.023C452.22 559.967 452.196 559.899 452.196 559.819V551.983C452.196 551.895 452.22 551.827 452.268 551.779C452.316 551.723 452.384 551.695 452.472 551.695H455.4C456.304 551.695 457.02 551.907 457.548 552.331C458.076 552.755 458.34 553.383 458.34 554.215C458.34 554.831 458.184 555.335 457.872 555.727C457.568 556.111 457.152 556.379 456.624 556.531L458.472 559.723C458.496 559.771 458.508 559.815 458.508 559.855C458.508 559.919 458.48 559.975 458.424 560.023C458.376 560.071 458.32 560.095 458.256 560.095H457.68C457.544 560.095 457.444 560.059 457.38 559.987C457.316 559.915 457.26 559.843 457.212 559.771L455.472 556.723H453.372V559.819C453.372 559.899 453.344 559.967 453.288 560.023C453.24 560.071 453.172 560.095 453.084 560.095H452.472ZM453.372 555.703H455.352C455.952 555.703 456.4 555.579 456.696 555.331C456.992 555.075 457.14 554.699 457.14 554.203C457.14 553.715 456.992 553.343 456.696 553.087C456.408 552.831 455.96 552.703 455.352 552.703H453.372V555.703ZM462.317 560.215C461.493 560.215 460.837 559.963 460.349 559.459C459.861 558.947 459.593 558.251 459.545 557.371C459.537 557.267 459.533 557.135 459.533 556.975C459.533 556.807 459.537 556.671 459.545 556.567C459.577 555.999 459.709 555.503 459.941 555.079C460.173 554.647 460.489 554.315 460.889 554.083C461.297 553.851 461.773 553.735 462.317 553.735C462.925 553.735 463.433 553.863 463.841 554.119C464.257 554.375 464.573 554.739 464.789 555.211C465.005 555.683 465.113 556.235 465.113 556.867V557.071C465.113 557.159 465.085 557.227 465.029 557.275C464.981 557.323 464.917 557.347 464.837 557.347H460.685C460.685 557.355 460.685 557.371 460.685 557.395C460.685 557.419 460.685 557.439 460.685 557.455C460.701 557.783 460.773 558.091 460.901 558.379C461.029 558.659 461.213 558.887 461.453 559.063C461.693 559.239 461.981 559.327 462.317 559.327C462.605 559.327 462.845 559.283 463.037 559.195C463.229 559.107 463.385 559.011 463.505 558.907C463.625 558.795 463.705 558.711 463.745 558.655C463.817 558.551 463.873 558.491 463.913 558.475C463.953 558.451 464.017 558.439 464.105 558.439H464.681C464.761 558.439 464.825 558.463 464.873 558.511C464.929 558.551 464.953 558.611 464.945 558.691C464.937 558.811 464.873 558.959 464.753 559.135C464.633 559.303 464.461 559.471 464.237 559.639C464.013 559.807 463.741 559.947 463.421 560.059C463.101 560.163 462.733 560.215 462.317 560.215ZM460.685 556.519H463.973V556.483C463.973 556.123 463.905 555.803 463.769 555.523C463.641 555.243 463.453 555.023 463.205 554.863C462.957 554.695 462.661 554.611 462.317 554.611C461.973 554.611 461.677 554.695 461.429 554.863C461.189 555.023 461.005 555.243 460.877 555.523C460.749 555.803 460.685 556.123 460.685 556.483V556.519ZM468.509 560.095C468.389 560.095 468.293 560.067 468.221 560.011C468.157 559.955 468.105 559.883 468.065 559.795L465.845 554.227C465.829 554.187 465.821 554.147 465.821 554.107C465.821 554.035 465.845 553.975 465.893 553.927C465.941 553.879 466.001 553.855 466.073 553.855H466.649C466.737 553.855 466.805 553.879 466.853 553.927C466.901 553.975 466.929 554.019 466.937 554.059L468.773 558.787L470.597 554.059C470.613 554.019 470.641 553.975 470.681 553.927C470.729 553.879 470.797 553.855 470.885 553.855H471.473C471.537 553.855 471.593 553.879 471.641 553.927C471.697 553.975 471.725 554.035 471.725 554.107C471.725 554.147 471.717 554.187 471.701 554.227L469.469 559.795C469.437 559.883 469.385 559.955 469.313 560.011C469.249 560.067 469.153 560.095 469.025 560.095H468.509ZM473.258 560.095C473.178 560.095 473.11 560.071 473.054 560.023C473.006 559.967 472.982 559.899 472.982 559.819V554.131C472.982 554.051 473.006 553.987 473.054 553.939C473.11 553.883 473.178 553.855 473.258 553.855H473.834C473.914 553.855 473.978 553.883 474.026 553.939C474.074 553.987 474.098 554.051 474.098 554.131V559.819C474.098 559.899 474.074 559.967 474.026 560.023C473.978 560.071 473.914 560.095 473.834 560.095H473.258ZM473.162 552.691C473.082 552.691 473.014 552.667 472.958 552.619C472.91 552.563 472.886 552.495 472.886 552.415V551.767C472.886 551.687 472.91 551.623 472.958 551.575C473.014 551.519 473.082 551.491 473.162 551.491H473.918C473.998 551.491 474.062 551.519 474.11 551.575C474.166 551.623 474.194 551.687 474.194 551.767V552.415C474.194 552.495 474.166 552.563 474.11 552.619C474.062 552.667 473.998 552.691 473.918 552.691H473.162ZM478.372 560.215C477.548 560.215 476.892 559.963 476.404 559.459C475.916 558.947 475.648 558.251 475.6 557.371C475.592 557.267 475.588 557.135 475.588 556.975C475.588 556.807 475.592 556.671 475.6 556.567C475.632 555.999 475.764 555.503 475.996 555.079C476.228 554.647 476.544 554.315 476.944 554.083C477.352 553.851 477.828 553.735 478.372 553.735C478.98 553.735 479.488 553.863 479.896 554.119C480.312 554.375 480.628 554.739 480.844 555.211C481.06 555.683 481.168 556.235 481.168 556.867V557.071C481.168 557.159 481.14 557.227 481.084 557.275C481.036 557.323 480.972 557.347 480.892 557.347H476.74C476.74 557.355 476.74 557.371 476.74 557.395C476.74 557.419 476.74 557.439 476.74 557.455C476.756 557.783 476.828 558.091 476.956 558.379C477.084 558.659 477.268 558.887 477.508 559.063C477.748 559.239 478.036 559.327 478.372 559.327C478.66 559.327 478.9 559.283 479.092 559.195C479.284 559.107 479.44 559.011 479.56 558.907C479.68 558.795 479.76 558.711 479.8 558.655C479.872 558.551 479.928 558.491 479.968 558.475C480.008 558.451 480.072 558.439 480.16 558.439H480.736C480.816 558.439 480.88 558.463 480.928 558.511C480.984 558.551 481.008 558.611 481 558.691C480.992 558.811 480.928 558.959 480.808 559.135C480.688 559.303 480.516 559.471 480.292 559.639C480.068 559.807 479.796 559.947 479.476 560.059C479.156 560.163 478.788 560.215 478.372 560.215ZM476.74 556.519H480.028V556.483C480.028 556.123 479.96 555.803 479.824 555.523C479.696 555.243 479.508 555.023 479.26 554.863C479.012 554.695 478.716 554.611 478.372 554.611C478.028 554.611 477.732 554.695 477.484 554.863C477.244 555.023 477.06 555.243 476.932 555.523C476.804 555.803 476.74 556.123 476.74 556.483V556.519ZM484.095 560.095C483.991 560.095 483.911 560.071 483.855 560.023C483.799 559.967 483.751 559.891 483.711 559.795L482.007 554.227C481.991 554.187 481.983 554.147 481.983 554.107C481.983 554.035 482.007 553.975 482.055 553.927C482.111 553.879 482.171 553.855 482.235 553.855H482.763C482.851 553.855 482.919 553.879 482.967 553.927C483.015 553.975 483.047 554.019 483.063 554.059L484.395 558.583L485.823 554.107C485.839 554.051 485.871 553.995 485.919 553.939C485.975 553.883 486.055 553.855 486.159 553.855H486.567C486.671 553.855 486.751 553.883 486.807 553.939C486.863 553.995 486.895 554.051 486.903 554.107L488.331 558.583L489.663 554.059C489.671 554.019 489.699 553.975 489.747 553.927C489.795 553.879 489.863 553.855 489.951 553.855H490.479C490.551 553.855 490.611 553.879 490.659 553.927C490.707 553.975 490.731 554.035 490.731 554.107C490.731 554.147 490.723 554.187 490.707 554.227L489.003 559.795C488.979 559.891 488.935 559.967 488.871 560.023C488.815 560.071 488.731 560.095 488.619 560.095H488.151C488.047 560.095 487.959 560.071 487.887 560.023C487.823 559.967 487.779 559.891 487.755 559.795L486.363 555.499L484.971 559.795C484.939 559.891 484.891 559.967 484.827 560.023C484.763 560.071 484.675 560.095 484.563 560.095H484.095Z" fill="#333333"/>
</g>
<g filter="url(#filter6_d_886_5414)">
<rect x="580.759" y="321.703" width="226.937" height="257.331" rx="10" fill="white"/>
<path d="M765.901 374.097H665.603C662.078 374.097 659.22 376.954 659.22 380.479V381.097C659.22 384.622 662.078 387.48 665.603 387.48H765.901C769.426 387.48 772.284 384.622 772.284 381.097V380.479C772.284 376.954 769.426 374.097 765.901 374.097Z" fill="#E0E0E0"/>
<path d="M641.822 366.123H621.236C618.36 366.123 616.028 368.454 616.028 371.33V391.917C616.028 394.793 618.36 397.124 621.236 397.124H641.822C644.698 397.124 647.03 394.793 647.03 391.917V371.33C647.03 368.454 644.698 366.123 641.822 366.123Z" fill="#009D9D"/>
<path d="M620.817 382.07L623.937 378.949L629.965 384.299L640.026 374.208L642.923 377.328L629.52 390.327L620.817 382.07Z" fill="white"/>
<path d="M765.901 422.198H665.603C662.078 422.198 659.22 425.056 659.22 428.581V429.199C659.22 432.724 662.078 435.581 665.603 435.581H765.901C769.426 435.581 772.284 432.724 772.284 429.199V428.581C772.284 425.056 769.426 422.198 765.901 422.198Z" fill="#E0E0E0"/>
<path d="M641.822 414.215H621.236C618.36 414.215 616.028 416.546 616.028 419.422V440.009C616.028 442.885 618.36 445.216 621.236 445.216H641.822C644.698 445.216 647.03 442.885 647.03 440.009V419.422C647.03 416.546 644.698 414.215 641.822 414.215Z" fill="#009D9D"/>
<path d="M620.817 430.172L623.937 427.041L629.965 432.401L640.026 422.3L642.923 425.42L629.52 438.418L620.817 430.172Z" fill="white"/>
<path d="M765.901 470.291H665.603C662.078 470.291 659.22 473.149 659.22 476.674V477.292C659.22 480.817 662.078 483.674 665.603 483.674H765.901C769.426 483.674 772.284 480.817 772.284 477.292V476.674C772.284 473.149 769.426 470.291 765.901 470.291Z" fill="#E0E0E0"/>
<path d="M641.822 462.317H621.236C618.36 462.317 616.028 464.649 616.028 467.525V488.111C616.028 490.987 618.36 493.319 621.236 493.319H641.822C644.698 493.319 647.03 490.987 647.03 488.111V467.525C647.03 464.649 644.698 462.317 641.822 462.317Z" fill="#009D9D"/>
<path d="M620.817 478.264L623.937 475.144L629.965 480.493L640.026 470.402L642.923 473.523L629.52 486.521L620.817 478.264Z" fill="white"/>
<path d="M765.901 518.394H665.603C662.078 518.394 659.22 521.251 659.22 524.776V525.394C659.22 528.919 662.078 531.777 665.603 531.777H765.901C769.426 531.777 772.284 528.919 772.284 525.394V524.776C772.284 521.251 769.426 518.394 765.901 518.394Z" fill="#E0E0E0"/>
<path d="M641.822 510.41H621.236C618.36 510.41 616.028 512.742 616.028 515.618V536.204C616.028 539.08 618.36 541.411 621.236 541.411H641.822C644.698 541.411 647.03 539.08 647.03 536.204V515.618C647.03 512.742 644.698 510.41 641.822 510.41Z" fill="#009D9D"/>
<path d="M620.817 526.367L623.937 523.236L629.965 528.596L640.026 518.495L642.923 521.616L629.52 534.614L620.817 526.367Z" fill="white"/>
</g>
<defs>
<filter id="filter0_f_886_5414" x="371.647" y="177.603" width="651.551" height="649.721" filterUnits="userSpaceOnUse" color-interpolation-filters="sRGB">
<feFlood flood-opacity="0" result="BackgroundImageFix"/>
<feBlend mode="normal" in="SourceGraphic" in2="BackgroundImageFix" result="shape"/>
<feGaussianBlur stdDeviation="86" result="effect1_foregroundBlur_886_5414"/>
</filter>
<filter id="filter1_f_886_5414" x="0.887482" y="0.970703" width="651.551" height="649.721" filterUnits="userSpaceOnUse" color-interpolation-filters="sRGB">
<feFlood flood-opacity="0" result="BackgroundImageFix"/>
<feBlend mode="normal" in="SourceGraphic" in2="BackgroundImageFix" result="shape"/>
<feGaussianBlur stdDeviation="86" result="effect1_foregroundBlur_886_5414"/>
</filter>
<filter id="filter2_d_886_5414" x="217.396" y="132.109" width="542.143" height="434.951" filterUnits="userSpaceOnUse" color-interpolation-filters="sRGB">
<feFlood flood-opacity="0" result="BackgroundImageFix"/>
<feColorMatrix in="SourceAlpha" type="matrix" values="0 0 0 0 0 0 0 0 0 0 0 0 0 0 0 0 0 0 127 0" result="hardAlpha"/>
<feOffset dx="-3.96587" dy="3.96587"/>
<feGaussianBlur stdDeviation="29"/>
<feColorMatrix type="matrix" values="0 0 0 0 0.124583 0 0 0 0 0.225021 0 0 0 0 0.766667 0 0 0 0.1 0"/>
<feBlend mode="normal" in2="BackgroundImageFix" result="effect1_dropShadow_886_5414"/>
<feBlend mode="normal" in="SourceGraphic" in2="effect1_dropShadow_886_5414" result="shape"/>
</filter>
<filter id="filter3_d_886_5414" x="276.214" y="184.847" width="432.439" height="325.247" filterUnits="userSpaceOnUse" color-interpolation-filters="sRGB">
<feFlood flood-opacity="0" result="BackgroundImageFix"/>
<feColorMatrix in="SourceAlpha" type="matrix" values="0 0 0 0 0 0 0 0 0 0 0 0 0 0 0 0 0 0 127 0" result="hardAlpha"/>
<feOffset dy="1.85185"/>
<feGaussianBlur stdDeviation="1.57407"/>
<feColorMatrix type="matrix" values="0 0 0 0 0 0 0 0 0 0 0 0 0 0 0 0 0 0 0.01 0"/>
<feBlend mode="normal" in2="BackgroundImageFix" result="effect1_dropShadow_886_5414"/>
<feBlend mode="normal" in="SourceGraphic" in2="effect1_dropShadow_886_5414" result="shape"/>
</filter>
<filter id="filter4_d_886_5414" x="341.744" y="399.371" width="226.675" height="102.062" filterUnits="userSpaceOnUse" color-interpolation-filters="sRGB">
<feFlood flood-opacity="0" result="BackgroundImageFix"/>
<feColorMatrix in="SourceAlpha" type="matrix" values="0 0 0 0 0 0 0 0 0 0 0 0 0 0 0 0 0 0 127 0" result="hardAlpha"/>
<feOffset dx="4" dy="4"/>
<feGaussianBlur stdDeviation="5"/>
<feComposite in2="hardAlpha" operator="out"/>
<feColorMatrix type="matrix" values="0 0 0 0 0 0 0 0 0 0 0 0 0 0 0 0 0 0 0.08 0"/>
<feBlend mode="normal" in2="BackgroundImageFix" result="effect1_dropShadow_886_5414"/>
<feBlend mode="normal" in="SourceGraphic" in2="effect1_dropShadow_886_5414" result="shape"/>
</filter>
<filter id="filter5_d_886_5414" x="330.086" y="499.271" width="227.688" height="102.062" filterUnits="userSpaceOnUse" color-interpolation-filters="sRGB">
<feFlood flood-opacity="0" result="BackgroundImageFix"/>
<feColorMatrix in="SourceAlpha" type="matrix" values="0 0 0 0 0 0 0 0 0 0 0 0 0 0 0 0 0 0 127 0" result="hardAlpha"/>
<feOffset dx="4" dy="4"/>
<feGaussianBlur stdDeviation="5"/>
<feComposite in2="hardAlpha" operator="out"/>
<feColorMatrix type="matrix" values="0 0 0 0 0 0 0 0 0 0 0 0 0 0 0 0 0 0 0.08 0"/>
<feBlend mode="normal" in2="BackgroundImageFix" result="effect1_dropShadow_886_5414"/>
<feBlend mode="normal" in="SourceGraphic" in2="effect1_dropShadow_886_5414" result="shape"/>
</filter>
<filter id="filter6_d_886_5414" x="574.759" y="315.703" width="246.937" height="277.33" filterUnits="userSpaceOnUse" color-interpolation-filters="sRGB">
<feFlood flood-opacity="0" result="BackgroundImageFix"/>
<feColorMatrix in="SourceAlpha" type="matrix" values="0 0 0 0 0 0 0 0 0 0 0 0 0 0 0 0 0 0 127 0" result="hardAlpha"/>
<feOffset dx="4" dy="4"/>
<feGaussianBlur stdDeviation="5"/>
<feComposite in2="hardAlpha" operator="out"/>
<feColorMatrix type="matrix" values="0 0 0 0 0 0 0 0 0 0 0 0 0 0 0 0 0 0 0.08 0"/>
<feBlend mode="normal" in2="BackgroundImageFix" result="effect1_dropShadow_886_5414"/>
<feBlend mode="normal" in="SourceGraphic" in2="effect1_dropShadow_886_5414" result="shape"/>
</filter>
<linearGradient id="paint0_linear_886_5414" x1="638.062" y1="245.721" x2="715.062" y2="245.721" gradientUnits="userSpaceOnUse">
<stop stop-color="#FDFEFF"/>
<stop offset="0.16" stop-color="#F2F6FE"/>
<stop offset="0.82" stop-color="#F2F6FE"/>
<stop offset="0.89" stop-color="#E9EFFA"/>
<stop offset="0.99" stop-color="#D4DFF1"/>
<stop offset="1" stop-color="#D1DDF0"/>
</linearGradient>
<clipPath id="clip0_886_5414">
<rect width="95.1484" height="95.1484" fill="white" transform="translate(628.985 198.146)"/>
</clipPath>
<clipPath id="clip1_886_5414">
<rect width="206.675" height="82.0621" fill="white" transform="translate(347.744 405.371)"/>
</clipPath>
<clipPath id="clip2_886_5414">
<rect width="207.688" height="82.0621" fill="white" transform="translate(336.086 505.271)"/>
</clipPath>
</defs>
</svg>
