<svg width="900" height="751" viewBox="0 0 900 751" fill="none" xmlns="http://www.w3.org/2000/svg">
<path fill-rule="evenodd" clip-rule="evenodd" d="M252.452 152.019C252.452 153.434 251.304 154.582 249.889 154.582C248.473 154.582 247.326 153.434 247.326 152.019C247.326 150.603 248.473 149.456 249.889 149.456C251.304 149.456 252.452 150.603 252.452 152.019ZM174.712 154.582C176.127 154.582 177.275 153.434 177.275 152.019C177.275 150.604 176.127 149.456 174.712 149.456C173.297 149.456 172.149 150.604 172.149 152.019C172.149 153.434 173.297 154.582 174.712 154.582ZM174.712 192.17C176.128 192.17 177.275 191.022 177.275 189.607C177.275 188.191 176.128 187.044 174.712 187.044C173.297 187.044 172.149 188.191 172.149 189.607C172.149 191.022 173.297 192.17 174.712 192.17ZM177.275 227.196C177.275 228.611 176.128 229.759 174.712 229.759C173.297 229.759 172.149 228.611 172.149 227.196C172.149 225.78 173.297 224.633 174.712 224.633C176.128 224.633 177.275 225.78 177.275 227.196ZM174.712 173.376C176.128 173.376 177.275 172.228 177.275 170.813C177.275 169.397 176.128 168.25 174.712 168.25C173.297 168.25 172.149 169.397 172.149 170.813C172.149 172.228 173.297 173.376 174.712 173.376ZM177.275 208.401C177.275 209.816 176.128 210.964 174.712 210.964C173.297 210.964 172.149 209.816 172.149 208.401C172.149 206.985 173.297 205.838 174.712 205.838C176.128 205.838 177.275 206.985 177.275 208.401ZM174.712 248.552C176.128 248.552 177.275 247.404 177.275 245.989C177.275 244.573 176.128 243.426 174.712 243.426C173.297 243.426 172.149 244.573 172.149 245.989C172.149 247.404 173.297 248.552 174.712 248.552ZM249.889 192.17C251.304 192.17 252.452 191.022 252.452 189.607C252.452 188.191 251.304 187.044 249.889 187.044C248.473 187.044 247.326 188.191 247.326 189.607C247.326 191.022 248.473 192.17 249.889 192.17ZM252.452 227.196C252.452 228.611 251.304 229.759 249.889 229.759C248.473 229.759 247.326 228.611 247.326 227.196C247.326 225.78 248.473 224.633 249.889 224.633C251.304 224.633 252.452 225.78 252.452 227.196ZM249.889 173.376C251.304 173.376 252.452 172.228 252.452 170.813C252.452 169.397 251.304 168.25 249.889 168.25C248.473 168.25 247.326 169.397 247.326 170.813C247.326 172.228 248.473 173.376 249.889 173.376ZM252.452 208.401C252.452 209.816 251.304 210.964 249.889 210.964C248.473 210.964 247.326 209.816 247.326 208.401C247.326 206.985 248.473 205.838 249.889 205.838C251.304 205.838 252.452 206.985 252.452 208.401ZM249.889 248.552C251.304 248.552 252.452 247.404 252.452 245.989C252.452 244.573 251.304 243.426 249.889 243.426C248.473 243.426 247.326 244.573 247.326 245.989C247.326 247.404 248.473 248.552 249.889 248.552ZM214.863 152.019C214.863 153.434 213.716 154.582 212.3 154.582C210.885 154.582 209.738 153.434 209.738 152.019C209.738 150.603 210.885 149.456 212.3 149.456C213.716 149.456 214.863 150.603 214.863 152.019ZM212.3 192.17C213.716 192.17 214.863 191.022 214.863 189.607C214.863 188.191 213.716 187.044 212.3 187.044C210.885 187.044 209.738 188.191 209.738 189.607C209.738 191.022 210.885 192.17 212.3 192.17ZM214.863 227.196C214.863 228.611 213.716 229.759 212.3 229.759C210.885 229.759 209.738 228.611 209.738 227.196C209.738 225.78 210.885 224.633 212.3 224.633C213.716 224.633 214.863 225.78 214.863 227.196ZM212.3 173.376C213.716 173.376 214.863 172.228 214.863 170.813C214.863 169.397 213.716 168.25 212.3 168.25C210.885 168.25 209.738 169.397 209.738 170.813C209.738 172.228 210.885 173.376 212.3 173.376ZM214.863 208.401C214.863 209.816 213.716 210.964 212.3 210.964C210.885 210.964 209.738 209.816 209.738 208.401C209.738 206.985 210.885 205.838 212.3 205.838C213.716 205.838 214.863 206.985 214.863 208.401ZM212.3 248.552C213.716 248.552 214.863 247.404 214.863 245.989C214.863 244.573 213.716 243.426 212.3 243.426C210.885 243.426 209.738 244.573 209.738 245.989C209.738 247.404 210.885 248.552 212.3 248.552ZM196.069 152.019C196.069 153.434 194.922 154.582 193.506 154.582C192.091 154.582 190.943 153.434 190.943 152.019C190.943 150.603 192.091 149.456 193.506 149.456C194.922 149.456 196.069 150.603 196.069 152.019ZM193.506 192.17C194.922 192.17 196.069 191.022 196.069 189.607C196.069 188.191 194.922 187.044 193.506 187.044C192.091 187.044 190.943 188.191 190.943 189.607C190.943 191.022 192.091 192.17 193.506 192.17ZM196.069 227.196C196.069 228.611 194.922 229.759 193.506 229.759C192.091 229.759 190.943 228.611 190.943 227.196C190.943 225.78 192.091 224.633 193.506 224.633C194.922 224.633 196.069 225.78 196.069 227.196ZM193.506 173.376C194.922 173.376 196.069 172.228 196.069 170.813C196.069 169.397 194.922 168.25 193.506 168.25C192.091 168.25 190.943 169.397 190.943 170.813C190.943 172.228 192.091 173.376 193.506 173.376ZM196.069 208.401C196.069 209.816 194.922 210.964 193.506 210.964C192.091 210.964 190.943 209.816 190.943 208.401C190.943 206.985 192.091 205.838 193.506 205.838C194.922 205.838 196.069 206.985 196.069 208.401ZM193.506 248.552C194.922 248.552 196.069 247.404 196.069 245.989C196.069 244.573 194.922 243.426 193.506 243.426C192.091 243.426 190.943 244.573 190.943 245.989C190.943 247.404 192.091 248.552 193.506 248.552ZM271.246 152.019C271.246 153.434 270.098 154.582 268.683 154.582C267.267 154.582 266.12 153.434 266.12 152.019C266.12 150.603 267.267 149.456 268.683 149.456C270.098 149.456 271.246 150.603 271.246 152.019ZM268.683 192.17C270.098 192.17 271.246 191.022 271.246 189.607C271.246 188.191 270.098 187.044 268.683 187.044C267.267 187.044 266.12 188.191 266.12 189.607C266.12 191.022 267.267 192.17 268.683 192.17ZM271.246 227.196C271.246 228.611 270.098 229.759 268.683 229.759C267.267 229.759 266.12 228.611 266.12 227.196C266.12 225.78 267.267 224.633 268.683 224.633C270.098 224.633 271.246 225.78 271.246 227.196ZM268.683 173.376C270.098 173.376 271.246 172.228 271.246 170.813C271.246 169.397 270.098 168.25 268.683 168.25C267.267 168.25 266.12 169.397 266.12 170.813C266.12 172.228 267.267 173.376 268.683 173.376ZM271.246 208.401C271.246 209.816 270.098 210.964 268.683 210.964C267.267 210.964 266.12 209.816 266.12 208.401C266.12 206.985 267.267 205.838 268.683 205.838C270.098 205.838 271.246 206.985 271.246 208.401ZM268.683 248.552C270.098 248.552 271.246 247.404 271.246 245.989C271.246 244.573 270.098 243.426 268.683 243.426C267.267 243.426 266.12 244.573 266.12 245.989C266.12 247.404 267.267 248.552 268.683 248.552ZM233.657 152.019C233.657 153.434 232.51 154.582 231.094 154.582C229.679 154.582 228.532 153.434 228.532 152.019C228.532 150.603 229.679 149.456 231.094 149.456C232.51 149.456 233.657 150.603 233.657 152.019ZM231.094 192.17C232.51 192.17 233.657 191.022 233.657 189.607C233.657 188.191 232.51 187.044 231.094 187.044C229.679 187.044 228.532 188.191 228.532 189.607C228.532 191.022 229.679 192.17 231.094 192.17ZM233.657 227.196C233.657 228.611 232.51 229.759 231.094 229.759C229.679 229.759 228.532 228.611 228.532 227.196C228.532 225.78 229.679 224.633 231.094 224.633C232.51 224.633 233.657 225.78 233.657 227.196ZM231.094 173.376C232.51 173.376 233.657 172.228 233.657 170.813C233.657 169.397 232.51 168.25 231.094 168.25C229.679 168.25 228.532 169.397 228.532 170.813C228.532 172.228 229.679 173.376 231.094 173.376ZM233.657 208.401C233.657 209.816 232.51 210.964 231.094 210.964C229.679 210.964 228.532 209.816 228.532 208.401C228.532 206.985 229.679 205.838 231.094 205.838C232.51 205.838 233.657 206.985 233.657 208.401ZM231.094 248.552C232.51 248.552 233.657 247.404 233.657 245.989C233.657 244.573 232.51 243.426 231.094 243.426C229.679 243.426 228.532 244.573 228.532 245.989C228.532 247.404 229.679 248.552 231.094 248.552Z" fill="#55AAF1"/>
<g filter="url(#filter0_f_887_8418)">
<circle r="128.895" transform="matrix(-1 0 0 1 300.895 449.903)" fill="#009D9D" fill-opacity="0.2"/>
</g>
<g filter="url(#filter1_f_887_8418)">
<circle r="128.895" transform="matrix(-1 0 0 1 598.404 300.962)" fill="#1D4ED8" fill-opacity="0.3"/>
</g>
<g filter="url(#filter2_d_887_8418)">
<g clip-path="url(#clip0_887_8418)">
<path fill-rule="evenodd" clip-rule="evenodd" d="M206.774 209.227H652.589C652.623 209.227 652.65 209.254 652.65 209.288V482.566C652.65 482.6 652.623 482.627 652.589 482.627H206.774C206.74 482.627 206.713 482.6 206.713 482.566V209.285C206.713 209.251 206.74 209.224 206.774 209.224" fill="white"/>
<path fill-rule="evenodd" clip-rule="evenodd" d="M375.809 451.358H407.702C409.166 451.358 410.361 450.161 410.361 448.696C410.361 447.232 409.166 446.035 407.702 446.035H375.809C374.345 446.035 373.151 447.232 373.151 448.696C373.151 450.161 374.345 451.358 375.809 451.358Z" fill="#E6E6E6"/>
<path fill-rule="evenodd" clip-rule="evenodd" d="M389.878 439.774H437.717C439.18 439.774 440.375 438.577 440.375 437.113C440.375 435.648 439.18 434.451 437.717 434.451H389.878C388.414 434.451 387.219 435.648 387.219 437.113C387.219 438.577 388.414 439.774 389.878 439.774Z" fill="#E6E6E6"/>
<path fill-rule="evenodd" clip-rule="evenodd" d="M390.031 428.191H429.271C430.734 428.191 431.929 426.994 431.929 425.53C431.929 424.065 430.734 422.868 429.271 422.868H390.031C388.568 422.868 387.373 424.065 387.373 425.53C387.373 426.994 388.568 428.191 390.031 428.191Z" fill="#E6E6E6"/>
<path fill-rule="evenodd" clip-rule="evenodd" d="M390.031 416.607H509.16C510.623 416.607 511.818 415.41 511.818 413.945C511.818 412.481 510.623 411.284 509.16 411.284H390.031C388.568 411.284 387.373 412.481 387.373 413.945C387.373 415.41 388.568 416.607 390.031 416.607Z" fill="#E6E6E6"/>
<path fill-rule="evenodd" clip-rule="evenodd" d="M452.567 439.774H483.833C485.296 439.774 486.491 438.577 486.491 437.113C486.491 435.648 485.296 434.451 483.833 434.451H452.567C451.104 434.451 449.909 435.648 449.909 437.113C449.909 438.577 451.104 439.774 452.567 439.774Z" fill="#E6E6E6"/>
<path fill-rule="evenodd" clip-rule="evenodd" d="M440.767 428.191H533.709C535.172 428.191 536.367 426.994 536.367 425.53C536.367 424.065 535.172 422.868 533.709 422.868H440.767C439.304 422.868 438.109 424.065 438.109 425.53C438.109 426.994 439.304 428.191 440.767 428.191Z" fill="#EB6502"/>
<path fill-rule="evenodd" clip-rule="evenodd" d="M547.699 428.191H572.633C574.096 428.191 575.291 426.994 575.291 425.53C575.291 424.065 574.096 422.868 572.633 422.868H547.699C546.236 422.868 545.041 424.065 545.041 425.53C545.041 426.994 546.236 428.191 547.699 428.191Z" fill="#1A4EDA"/>
<path fill-rule="evenodd" clip-rule="evenodd" d="M585.687 428.191H610.622C612.085 428.191 613.28 426.994 613.28 425.53C613.28 424.065 612.085 422.868 610.622 422.868H585.687C584.224 422.868 583.029 424.065 583.029 425.53C583.029 426.994 584.224 428.191 585.687 428.191Z" fill="#FBA803"/>
<path fill-rule="evenodd" clip-rule="evenodd" d="M375.809 404.946H407.702C409.166 404.946 410.361 403.749 410.361 402.284C410.361 400.819 409.166 399.623 407.702 399.623H375.809C374.345 399.623 373.151 400.819 373.151 402.284C373.151 403.749 374.345 404.946 375.809 404.946Z" fill="#E6E6E6"/>
<path fill-rule="evenodd" clip-rule="evenodd" d="M389.878 303.139H437.717C439.18 303.139 440.375 301.943 440.375 300.478C440.375 299.013 439.18 297.816 437.717 297.816H389.878C388.414 297.816 387.219 299.013 387.219 300.478C387.219 301.943 388.414 303.139 389.878 303.139Z" fill="#E6E6E6"/>
<path fill-rule="evenodd" clip-rule="evenodd" d="M390.031 291.555H429.271C430.734 291.555 431.929 290.359 431.929 288.894C431.929 287.429 430.734 286.232 429.271 286.232H390.031C388.568 286.232 387.373 287.429 387.373 288.894C387.373 290.359 388.568 291.555 390.031 291.555Z" fill="#E6E6E6"/>
<path fill-rule="evenodd" clip-rule="evenodd" d="M390.031 279.972H509.16C510.623 279.972 511.818 278.776 511.818 277.311C511.818 275.846 510.623 274.649 509.16 274.649H390.031C388.568 274.649 387.373 275.846 387.373 277.311C387.373 278.776 388.568 279.972 390.031 279.972Z" fill="#1A4EDA"/>
<path fill-rule="evenodd" clip-rule="evenodd" d="M452.567 303.139H483.833C485.296 303.139 486.491 301.943 486.491 300.478C486.491 299.013 485.296 297.816 483.833 297.816H452.567C451.104 297.816 449.909 299.013 449.909 300.478C449.909 301.943 451.104 303.139 452.567 303.139Z" fill="#E6E6E6"/>
<path fill-rule="evenodd" clip-rule="evenodd" d="M440.767 291.555H533.709C535.172 291.555 536.367 290.359 536.367 288.894C536.367 287.429 535.172 286.232 533.709 286.232H440.767C439.304 286.232 438.109 287.429 438.109 288.894C438.109 290.359 439.304 291.555 440.767 291.555Z" fill="#009D9D"/>
<path fill-rule="evenodd" clip-rule="evenodd" d="M547.699 291.555H572.633C574.096 291.555 575.291 290.359 575.291 288.894C575.291 287.429 574.096 286.232 572.633 286.232H547.699C546.236 286.232 545.041 287.429 545.041 288.894C545.041 290.359 546.236 291.555 547.699 291.555Z" fill="#FBA803"/>
<path fill-rule="evenodd" clip-rule="evenodd" d="M585.687 291.555H610.622C612.085 291.555 613.28 290.359 613.28 288.894C613.28 287.429 612.085 286.232 610.622 286.232H585.687C584.224 286.232 583.029 287.429 583.029 288.894C583.029 290.359 584.224 291.555 585.687 291.555Z" fill="#E6E6E6"/>
<path fill-rule="evenodd" clip-rule="evenodd" d="M390.658 389.467H422.552C424.015 389.467 425.21 388.271 425.21 386.806C425.21 385.341 424.015 384.145 422.552 384.145H390.658C389.195 384.145 388 385.341 388 386.806C388 388.271 389.195 389.467 390.658 389.467Z" fill="#E6E6E6"/>
<path fill-rule="evenodd" clip-rule="evenodd" d="M389.878 377.883H437.717C439.18 377.883 440.375 376.687 440.375 375.222C440.375 373.757 439.18 372.561 437.717 372.561H389.878C388.414 372.561 387.219 373.757 387.219 375.222C387.219 376.687 388.414 377.883 389.878 377.883Z" fill="#E6E6E6"/>
<path fill-rule="evenodd" clip-rule="evenodd" d="M390.031 366.304H429.271C430.734 366.304 431.929 365.108 431.929 363.643C431.929 362.178 430.734 360.981 429.271 360.981H390.031C388.568 360.981 387.373 362.178 387.373 363.643C387.373 365.108 388.568 366.304 390.031 366.304Z" fill="#E6E6E6"/>
<path fill-rule="evenodd" clip-rule="evenodd" d="M390.031 354.72H441.509C442.972 354.72 444.167 353.524 444.167 352.059C444.167 350.594 442.972 349.397 441.509 349.397H390.031C388.568 349.397 387.373 350.594 387.373 352.059C387.373 353.524 388.568 354.72 390.031 354.72Z" fill="#FBA803"/>
<path fill-rule="evenodd" clip-rule="evenodd" d="M452.567 377.883H483.833C485.296 377.883 486.491 376.687 486.491 375.222C486.491 373.757 485.296 372.561 483.833 372.561H452.567C451.104 372.561 449.909 373.757 449.909 375.222C449.909 376.687 451.104 377.883 452.567 377.883Z" fill="#E6E6E6"/>
<path fill-rule="evenodd" clip-rule="evenodd" d="M440.767 366.304H533.709C535.172 366.304 536.367 365.108 536.367 363.643C536.367 362.178 535.172 360.981 533.709 360.981H440.767C439.304 360.981 438.109 362.178 438.109 363.643C438.109 365.108 439.304 366.304 440.767 366.304Z" fill="#333333"/>
<path fill-rule="evenodd" clip-rule="evenodd" d="M547.699 366.304H572.633C574.096 366.304 575.291 365.108 575.291 363.643C575.291 362.178 574.096 360.981 572.633 360.981H547.699C546.236 360.981 545.041 362.178 545.041 363.643C545.041 365.108 546.236 366.304 547.699 366.304Z" fill="#E6E6E6"/>
<path fill-rule="evenodd" clip-rule="evenodd" d="M585.687 366.304H610.622C612.085 366.304 613.28 365.108 613.28 363.643C613.28 362.178 612.085 360.981 610.622 360.981H585.687C584.224 360.981 583.029 362.178 583.029 363.643C583.029 365.108 584.224 366.304 585.687 366.304Z" fill="#E6E6E6"/>
<path fill-rule="evenodd" clip-rule="evenodd" d="M427.946 267.988H520.888C522.351 267.988 523.546 266.791 523.546 265.326C523.546 263.861 522.351 262.665 520.888 262.665H427.946C426.483 262.665 425.288 263.861 425.288 265.326C425.288 266.791 426.483 267.988 427.946 267.988Z" fill="#E6E6E6"/>
<path fill-rule="evenodd" clip-rule="evenodd" d="M534.878 267.988H559.812C561.276 267.988 562.47 266.791 562.47 265.326C562.47 263.861 561.276 262.665 559.812 262.665H534.878C533.415 262.665 532.22 263.861 532.22 265.326C532.22 266.791 533.415 267.988 534.878 267.988Z" fill="#E6E6E6"/>
<path fill-rule="evenodd" clip-rule="evenodd" d="M572.867 267.988H597.801C599.264 267.988 600.459 266.791 600.459 265.326C600.459 263.861 599.264 262.665 597.801 262.665H572.867C571.403 262.665 570.208 263.861 570.208 265.326C570.208 266.791 571.403 267.988 572.867 267.988Z" fill="#E6E6E6"/>
<path fill-rule="evenodd" clip-rule="evenodd" d="M427.946 257.029H468.592C470.055 257.029 471.25 255.832 471.25 254.367C471.25 252.902 470.055 251.706 468.592 251.706H427.946C426.483 251.706 425.288 252.902 425.288 254.367C425.288 255.832 426.483 257.029 427.946 257.029Z" fill="#009D9D"/>
<path fill-rule="evenodd" clip-rule="evenodd" d="M482.82 257.029H546.605C548.068 257.029 549.263 255.832 549.263 254.367C549.263 252.902 548.068 251.706 546.605 251.706H482.82C481.357 251.706 480.162 252.902 480.162 254.367C480.162 255.832 481.357 257.029 482.82 257.029Z" fill="#EB6502"/>
<path fill-rule="evenodd" clip-rule="evenodd" d="M562.902 257.03H616.645C618.108 257.03 619.303 255.833 619.303 254.368C619.303 252.903 618.108 251.707 616.645 251.707H562.902C561.439 251.707 560.244 252.903 560.244 254.368C560.244 255.833 561.439 257.03 562.902 257.03Z" fill="#E6E6E6"/>
<path fill-rule="evenodd" clip-rule="evenodd" d="M427.946 343.164H520.888C522.351 343.164 523.546 341.968 523.546 340.503C523.546 339.038 522.351 337.842 520.888 337.842H427.946C426.483 337.842 425.288 339.038 425.288 340.503C425.288 341.968 426.483 343.164 427.946 343.164Z" fill="#E6E6E6"/>
<path fill-rule="evenodd" clip-rule="evenodd" d="M534.878 343.164H559.812C561.276 343.164 562.47 341.968 562.47 340.503C562.47 339.038 561.276 337.842 559.812 337.842H534.878C533.415 337.842 532.22 339.038 532.22 340.503C532.22 341.968 533.415 343.164 534.878 343.164Z" fill="#E6E6E6"/>
<path fill-rule="evenodd" clip-rule="evenodd" d="M572.867 343.164H597.801C599.264 343.164 600.459 341.968 600.459 340.503C600.459 339.038 599.264 337.842 597.801 337.842H572.867C571.403 337.842 570.208 339.038 570.208 340.503C570.208 341.968 571.403 343.164 572.867 343.164Z" fill="#E6E6E6"/>
<path fill-rule="evenodd" clip-rule="evenodd" d="M427.946 330.873H468.592C470.055 330.873 471.25 329.677 471.25 328.212C471.25 326.747 470.055 325.551 468.592 325.551H427.946C426.483 325.551 425.288 326.747 425.288 328.212C425.288 329.677 426.483 330.873 427.946 330.873Z" fill="#E6E6E6"/>
<path fill-rule="evenodd" clip-rule="evenodd" d="M482.82 330.873H546.605C548.068 330.873 549.263 329.677 549.263 328.212C549.263 326.747 548.068 325.551 546.605 325.551H482.82C481.357 325.551 480.162 326.747 480.162 328.212C480.162 329.677 481.357 330.873 482.82 330.873Z" fill="#E6E6E6"/>
<path fill-rule="evenodd" clip-rule="evenodd" d="M562.902 330.873H616.645C618.108 330.873 619.303 329.677 619.303 328.212C619.303 326.747 618.108 325.551 616.645 325.551H562.902C561.439 325.551 560.244 326.747 560.244 328.212C560.244 329.677 561.439 330.873 562.902 330.873Z" fill="#E6E6E6"/>
<path fill-rule="evenodd" clip-rule="evenodd" d="M452.6 354.72H480.312C481.775 354.72 482.97 353.524 482.97 352.059C482.97 350.594 481.775 349.397 480.312 349.397H452.6C451.137 349.397 449.942 350.594 449.942 352.059C449.942 353.524 451.137 354.72 452.6 354.72Z" fill="#333333"/>
<path fill-rule="evenodd" clip-rule="evenodd" d="M490.002 354.72H517.713C519.176 354.72 520.371 353.524 520.371 352.059C520.371 350.594 519.176 349.397 517.713 349.397H490.002C488.538 349.397 487.344 350.594 487.344 352.059C487.344 353.524 488.538 354.72 490.002 354.72Z" fill="#333333"/>
<path fill-rule="evenodd" clip-rule="evenodd" d="M375.809 317.682H416.872C418.335 317.682 419.53 316.486 419.53 315.021C419.53 313.556 418.335 312.359 416.872 312.359H375.809C374.345 312.359 373.151 313.556 373.151 315.021C373.151 316.486 374.345 317.682 375.809 317.682Z" fill="#E6E6E6"/>
<path fill-rule="evenodd" clip-rule="evenodd" d="M427.96 317.682H455.671C457.134 317.682 458.329 316.486 458.329 315.021C458.329 313.556 457.134 312.359 455.671 312.359H427.96C426.496 312.359 425.302 313.556 425.302 315.021C425.302 316.486 426.496 317.682 427.96 317.682Z" fill="#E6E6E6"/>
<path fill-rule="evenodd" clip-rule="evenodd" d="M468.157 317.682H495.869C497.332 317.682 498.527 316.486 498.527 315.021C498.527 313.556 497.332 312.359 495.869 312.359H468.157C466.694 312.359 465.499 313.556 465.499 315.021C465.499 316.486 466.694 317.682 468.157 317.682Z" fill="#E6E6E6"/>
<path fill-rule="evenodd" clip-rule="evenodd" d="M390.031 267.988H416.137C417.6 267.988 418.795 266.791 418.795 265.326C418.795 263.861 417.6 262.665 416.137 262.665H390.031C388.568 262.665 387.373 263.861 387.373 265.326C387.373 266.791 388.568 267.988 390.031 267.988Z" fill="#E6E6E6"/>
<path fill-rule="evenodd" clip-rule="evenodd" d="M363.502 257.029H415.35C416.813 257.029 418.008 255.832 418.008 254.367C418.008 252.902 416.813 251.706 415.35 251.706H363.502C362.039 251.706 360.844 252.902 360.844 254.367C360.844 255.832 362.039 257.029 363.502 257.029Z" fill="#E6E6E6"/>
<path fill-rule="evenodd" clip-rule="evenodd" d="M363.502 243.471H431.781C433.244 243.471 434.439 242.275 434.439 240.81C434.439 239.345 433.244 238.148 431.781 238.148H363.502C362.039 238.148 360.844 239.345 360.844 240.81C360.844 242.275 362.039 243.471 363.502 243.471Z" fill="#E6E6E6"/>
<path fill-rule="evenodd" clip-rule="evenodd" d="M335.297 243.471H337.796C339.259 243.471 340.454 242.275 340.454 240.81C340.454 239.345 339.259 238.148 337.796 238.148H335.297C333.834 238.148 332.639 239.345 332.639 240.81C332.639 242.275 333.834 243.471 335.297 243.471Z" fill="#B1CBEF"/>
<path fill-rule="evenodd" clip-rule="evenodd" d="M335.297 257.029H337.796C339.259 257.029 340.454 255.832 340.454 254.367C340.454 252.902 339.259 251.706 337.796 251.706H335.297C333.834 251.706 332.639 252.902 332.639 254.367C332.639 255.832 333.834 257.029 335.297 257.029Z" fill="#B1CBEF"/>
<path fill-rule="evenodd" clip-rule="evenodd" d="M334.823 303.139H336.989C338.452 303.139 339.647 301.943 339.647 300.478C339.647 299.013 338.452 297.816 336.989 297.816H334.823C333.36 297.816 332.165 299.013 332.165 300.478C332.165 301.943 333.36 303.139 334.823 303.139Z" fill="#B1CBEF"/>
<path fill-rule="evenodd" clip-rule="evenodd" d="M334.977 291.555H336.987C338.45 291.555 339.645 290.359 339.645 288.894C339.645 287.429 338.45 286.232 336.987 286.232H334.977C333.514 286.232 332.319 287.429 332.319 288.894C332.319 290.359 333.514 291.555 334.977 291.555Z" fill="#B1CBEF"/>
<path fill-rule="evenodd" clip-rule="evenodd" d="M334.977 279.972H336.987C338.45 279.972 339.645 278.776 339.645 277.311C339.645 275.846 338.45 274.649 336.987 274.649H334.977C333.514 274.649 332.319 275.846 332.319 277.311C332.319 278.776 333.514 279.972 334.977 279.972Z" fill="#B1CBEF"/>
<path fill-rule="evenodd" clip-rule="evenodd" d="M334.977 267.988H336.987C338.45 267.988 339.645 266.791 339.645 265.326C339.645 263.861 338.45 262.665 336.987 262.665H334.977C333.514 262.665 332.319 263.861 332.319 265.326C332.319 266.791 333.514 267.988 334.977 267.988Z" fill="#B1CBEF"/>
<path fill-rule="evenodd" clip-rule="evenodd" d="M335.13 343.164H336.991C338.454 343.164 339.649 341.968 339.649 340.503C339.649 339.038 338.454 337.842 336.991 337.842H335.13C333.667 337.842 332.472 339.038 332.472 340.503C332.472 341.968 333.667 343.164 335.13 343.164Z" fill="#B1CBEF"/>
<path fill-rule="evenodd" clip-rule="evenodd" d="M335.13 330.873H336.991C338.454 330.873 339.649 329.677 339.649 328.212C339.649 326.747 338.454 325.551 336.991 325.551H335.13C333.667 325.551 332.472 326.747 332.472 328.212C332.472 329.677 333.667 330.873 335.13 330.873Z" fill="#B1CBEF"/>
<path fill-rule="evenodd" clip-rule="evenodd" d="M335.144 317.682H336.99C338.454 317.682 339.649 316.486 339.649 315.021C339.649 313.556 338.454 312.359 336.99 312.359H335.144C333.681 312.359 332.486 313.556 332.486 315.021C332.486 316.486 333.681 317.682 335.144 317.682Z" fill="#B1CBEF"/>
<path fill-rule="evenodd" clip-rule="evenodd" d="M335.938 389.467H336.994C338.457 389.467 339.652 388.271 339.652 386.806C339.652 385.341 338.457 384.145 336.994 384.145H335.938C334.475 384.145 333.28 385.341 333.28 386.806C333.28 388.271 334.475 389.467 335.938 389.467Z" fill="#B1CBEF"/>
<path fill-rule="evenodd" clip-rule="evenodd" d="M335.13 377.883H336.991C338.454 377.883 339.649 376.687 339.649 375.222C339.649 373.757 338.454 372.561 336.991 372.561H335.13C333.667 372.561 332.472 373.757 332.472 375.222C332.472 376.687 333.667 377.883 335.13 377.883Z" fill="#B1CBEF"/>
<path fill-rule="evenodd" clip-rule="evenodd" d="M335.29 366.304H336.988C338.451 366.304 339.646 365.108 339.646 363.643C339.646 362.178 338.451 360.981 336.988 360.981H335.29C333.827 360.981 332.632 362.178 332.632 363.643C332.632 365.108 333.827 366.304 335.29 366.304Z" fill="#B1CBEF"/>
<path fill-rule="evenodd" clip-rule="evenodd" d="M335.29 354.72H336.991C338.454 354.72 339.649 353.524 339.649 352.059C339.649 350.594 338.454 349.397 336.991 349.397H335.29C333.827 349.397 332.632 350.594 332.632 352.059C332.632 353.524 333.827 354.72 335.29 354.72Z" fill="#B1CBEF"/>
<path fill-rule="evenodd" clip-rule="evenodd" d="M336.211 451.358H336.989C338.452 451.358 339.647 450.161 339.647 448.696C339.647 447.232 338.452 446.035 336.989 446.035H336.211C334.748 446.035 333.553 447.232 333.553 448.696C333.553 450.161 334.748 451.358 336.211 451.358Z" fill="#B1CBEF"/>
<path fill-rule="evenodd" clip-rule="evenodd" d="M336.211 439.774H336.989C338.452 439.774 339.647 438.577 339.647 437.113C339.647 435.648 338.452 434.451 336.989 434.451H336.211C334.748 434.451 333.553 435.648 333.553 437.113C333.553 438.577 334.748 439.774 336.211 439.774Z" fill="#B1CBEF"/>
<path fill-rule="evenodd" clip-rule="evenodd" d="M336.111 428.191H336.987C338.45 428.191 339.645 426.994 339.645 425.53C339.645 424.065 338.45 422.868 336.987 422.868H336.111C334.648 422.868 333.453 424.065 333.453 425.53C333.453 426.994 334.648 428.191 336.111 428.191Z" fill="#B1CBEF"/>
<path fill-rule="evenodd" clip-rule="evenodd" d="M335.938 416.607H336.994C338.457 416.607 339.652 415.41 339.652 413.945C339.652 412.481 338.457 411.284 336.994 411.284H335.938C334.475 411.284 333.28 412.481 333.28 413.945C333.28 415.41 334.475 416.607 335.938 416.607Z" fill="#B1CBEF"/>
<path fill-rule="evenodd" clip-rule="evenodd" d="M335.938 404.946H336.994C338.457 404.946 339.652 403.749 339.652 402.284C339.652 400.819 338.457 399.623 336.994 399.623H335.938C334.475 399.623 333.28 400.819 333.28 402.284C333.28 403.749 334.475 404.946 335.938 404.946Z" fill="#B1CBEF"/>
<path d="M652.646 193.878H206.713V209.282H652.646V193.878Z" fill="#1A4EDA"/>
<path d="M625.769 198.231H621.091V202.915H625.769V198.231Z" fill="#E6E6E6"/>
<path d="M634.032 198.231H629.354V202.915H634.032V198.231Z" fill="#E6E6E6"/>
<path d="M642.294 198.231H637.616V202.915H642.294V198.231Z" fill="#E6E6E6"/>
</g>
</g>
<path d="M336.689 238.301H231.362C228.6 238.301 226.362 240.539 226.362 243.301V522.047C226.362 524.808 228.6 527.047 231.362 527.047H336.689C339.451 527.047 341.689 524.808 341.689 522.047V243.301C341.689 240.539 339.451 238.301 336.689 238.301Z" fill="#E6E6E6"/>
<rect x="247.719" y="277.597" width="75.1765" height="4.27139" fill="white"/>
<rect width="75.1765" height="4.27139" transform="matrix(1 -8.74228e-08 -8.74228e-08 -1 247.719 438.202)" fill="#333333"/>
<rect x="247.719" y="293.827" width="28.1912" height="4.27139" fill="white"/>
<rect width="28.1912" height="4.27139" transform="matrix(1 -8.74228e-08 -8.74228e-08 -1 247.719 421.97)" fill="#333333"/>
<rect x="283.598" y="293.827" width="11.9599" height="4.27139" fill="white"/>
<rect width="11.9599" height="4.27139" transform="matrix(1 -8.74228e-08 -8.74228e-08 -1 283.598 421.97)" fill="#333333"/>
<rect x="247.719" y="308.351" width="56.3824" height="4.27139" fill="white"/>
<rect width="56.3824" height="4.27139" transform="matrix(1 -8.74228e-08 -8.74228e-08 -1 247.719 407.446)" fill="#333333"/>
<rect x="247.719" y="341.668" width="75.1765" height="4.27139" fill="#333333"/>
<rect x="247.719" y="354.481" width="47.8396" height="4.27139" fill="#333333"/>
<rect x="247.719" y="368.151" width="63.2166" height="4.27139" fill="#333333"/>
<path d="M655.732 312.687L627.004 328.48L598.155 283.079L633.048 270.958L655.732 312.687Z" fill="#292C47"/>
<path d="M653.913 311.325L627.047 326.092L600.069 283.635L632.699 272.301L653.913 311.325Z" fill="white"/>
<path d="M663.749 303.385C663.749 303.385 658.75 300.994 656.556 299.744C654.361 298.495 648.715 296.779 648.258 296.371C647.801 295.964 631.524 294.96 630.535 294.108C629.547 293.256 628.589 296.104 632.808 297.03C637.026 297.954 642.899 300.214 643.219 301.865C643.539 303.512 638.885 303.904 638.413 305.263C637.94 306.621 638.546 306.316 639.212 306.609C639.88 306.901 644.748 304.202 646.89 304.967C649.032 305.732 652.306 304.672 653.947 305.235C655.589 305.797 663.569 308.483 663.569 308.483L663.749 303.391V303.385Z" fill="#EEA886"/>
<path d="M625.609 322.785C625.609 322.785 621.409 319.005 619.376 317.422C617.343 315.84 613.528 311.189 612.966 310.919C612.403 310.648 605.119 295.698 603.931 295.098C602.744 294.498 605.054 292.487 607.569 296.102C610.084 299.718 614.498 304.372 616.177 304.033C617.856 303.694 616.41 299.155 617.507 298.182C618.605 297.209 618.552 297.896 619.087 298.412C619.621 298.928 618.975 304.567 620.532 306.287C622.087 308.006 622.363 311.503 623.532 312.831C624.701 314.158 630.337 320.634 630.337 320.634L625.609 322.788V322.785Z" fill="#EEA886"/>
<path d="M716.07 524.86C716.07 524.86 716.978 531.168 717.093 532.113C717.208 533.061 727.202 531.556 727.202 531.556L728.011 524.049C728.011 524.049 717.32 523.971 716.07 524.86Z" fill="#424773"/>
<path d="M716.987 531.316C716.987 531.316 713.819 535.118 710.757 536.771C707.695 538.428 702.879 539.084 701.07 540.8C699.764 542.038 696.307 547.366 709.028 547.26C721.749 547.152 727.883 548.013 729.245 545.97C730.606 543.928 727.274 530.89 727.274 530.89C727.274 530.89 724.261 531.975 716.987 531.316Z" fill="#292C47"/>
<path d="M644.457 524.86C644.457 524.86 645.364 531.168 645.479 532.113C645.594 533.061 655.589 531.556 655.589 531.556L656.397 524.049C656.397 524.049 645.706 523.971 644.457 524.86Z" fill="#424773"/>
<path d="M645.377 531.315C645.377 531.315 642.209 535.117 639.147 536.771C636.085 538.428 624.813 539.789 623.003 541.502C621.695 542.74 619.522 547.723 637.422 547.257C650.137 546.924 656.277 548.009 657.638 545.966C659 543.924 655.667 530.886 655.667 530.886C655.667 530.886 652.829 532.042 645.38 531.312L645.377 531.315Z" fill="#292C47"/>
<path d="M707.792 362.794C707.792 362.794 717.184 377.716 716.484 391.202C715.785 404.691 719.888 419.414 721.3 433.503C722.873 449.212 729.308 486.396 729.541 494.799C729.774 503.202 728.543 530.031 728.543 530.031L715.66 530.326C715.66 530.326 704.839 465.318 702.038 458.684C699.237 452.05 685.337 404.762 684.871 399.456C684.405 394.149 707.795 362.794 707.795 362.794H707.792Z" fill="#292C47"/>
<path d="M658.356 364.818C658.356 364.818 651.278 401.785 650.345 410.039C649.413 418.292 648.788 449.986 648.321 455.147C647.855 460.308 645.206 522.66 642.716 530.326H659.186C659.186 530.326 671.83 484.997 671.83 463.55C671.83 442.103 681.598 416.925 687.905 402.773C694.21 388.622 708.644 388.287 712.521 362.033C712.521 362.033 663.604 356.49 658.356 364.818Z" fill="#292C47"/>
<path d="M692.125 237.349C692.125 237.349 679.519 232.639 673.709 242.236C667.898 251.833 668.458 271.042 674.809 273.405C681.164 275.767 690.708 274.53 693.959 268.527C697.211 262.524 700.149 253.844 700.009 248.043C699.869 242.242 695.433 239.025 692.125 237.352V237.349Z" fill="#EEA886"/>
<path d="M676.173 273.843C676.173 273.843 676.698 277.247 675.831 278.922C674.963 280.598 692.161 280.642 692.161 280.642C692.161 280.642 693.557 271.524 696.202 263.817C698.848 256.113 676.173 273.84 676.173 273.84V273.843Z" fill="#EEA886"/>
<path d="M696.207 263.82C696.207 263.82 695.019 265.778 690.176 265.017C685.329 264.258 679.42 257.811 677.396 257.102C675.372 256.393 675.353 255.205 675.353 255.205L674.088 257.055L671.94 257.192C671.94 257.192 673.898 251.425 670.942 249.075C667.986 246.722 674.01 230.41 689.548 235.841C689.548 235.841 701.483 239.13 701.047 245.919C700.612 252.706 698.874 260.437 696.204 263.82H696.207Z" fill="#3A3F47"/>
<path d="M674.807 278.72C674.807 278.72 674.863 275.518 676.315 275.211C677.767 274.903 692.341 273.501 694.125 274.203V277.934C694.125 277.934 690.693 280.048 674.811 278.72H674.807Z" fill="#E2D2CA"/>
<path d="M675.673 252.74C675.947 251.602 678.841 248.347 679.948 251.832C681.058 255.317 678.272 260.002 676.721 259.601C675.17 259.2 674.983 255.628 675.673 252.74Z" fill="#EEA886"/>
<path d="M616.974 316.571C616.974 316.571 616.989 316.568 616.999 316.571C616.898 316.615 616.882 316.618 616.974 316.571Z" fill="#323657"/>
<path d="M718.392 398.34C718.392 398.34 710.661 400.616 697.48 402.071C684.298 403.523 651.361 401.546 651.153 399.988C650.944 398.431 658.237 341.997 657.824 339.09C657.411 336.184 657.187 325.828 657.187 325.828C657.025 328.666 654.134 340.256 650.643 346.573C649.381 348.855 645.153 356.011 643.113 354.382C633.246 346.505 617.966 316.816 616.996 316.564C617.811 316.21 624.237 313.25 625.138 312.952C625.928 312.687 633.047 320.226 637.359 324.899C639.283 326.982 640.648 328.495 640.648 328.495C641.895 325.694 646.43 308.04 647.839 301.931C651.019 288.153 650.531 287.578 650.531 287.578C660.174 284.662 674.813 278.724 674.813 278.724L694.128 277.938C694.128 277.938 711.855 281.839 718.837 284.994C719.499 285.293 719.502 300.809 721.321 304.878L715.532 317.089C715.532 317.089 712.19 341.279 711.494 352.038C711.174 356.975 718.389 398.347 718.389 398.347L718.392 398.34Z" fill="#FAA704"/>
<path d="M722.121 325.016C721.617 326.645 719.326 328.019 717.84 328.622C716.889 329.007 715.822 329.132 714.747 328.933L713.991 328.793L700.754 326.337C700.754 326.337 697.857 292.983 718.838 284.99C719.391 285.171 726.756 310.081 722.124 325.016H722.121Z" fill="#FAA704"/>
<path d="M717.838 328.621C716.887 329.006 715.82 329.13 714.745 328.931L713.989 328.791L715.295 311.746L717.838 328.621Z" fill="#AB9546"/>
<path d="M640.651 328.493L639.034 335.345C639.034 335.345 637.278 328.471 637.362 324.899C639.286 326.982 640.651 328.496 640.651 328.496V328.493Z" fill="#AB9546"/>
<path d="M695.715 238.482C695.715 238.482 712.235 236.411 695.995 264.008L695.715 238.482Z" fill="#3A3F47"/>
<path d="M611.434 280.645L609.755 277.76L622.98 273.196L624.658 276.066L611.434 280.645Z" fill="#292C47"/>
<g opacity="0.95" filter="url(#filter3_d_887_8418)">
<path d="M214.565 152.457H353.295C364.248 152.457 373.141 161.349 373.141 172.302V311.029C373.141 321.982 364.248 330.875 353.295 330.875H214.565C203.612 330.875 194.719 321.982 194.719 311.029V172.299C194.719 161.346 203.612 152.453 214.565 152.453V152.457Z" fill="white"/>
</g>
<path d="M325.239 290.257H242.632V294.336H325.239V290.257Z" fill="#96BFE6"/>
<path d="M313.536 303.113H254.33V307.193H313.536V303.113Z" fill="#96BFE6"/>
<path opacity="0.95" d="M344.065 159.126H223.803V262.309H344.065V159.126Z" fill="url(#paint0_linear_887_8418)"/>
<path d="M329.879 221.941C325.918 211.465 316.403 206.652 311.911 205.154C310.311 204.622 307.456 203.689 304.446 202.715C299.02 200.962 293.094 199.055 293.094 199.055H274.378C274.378 199.055 267.897 201.226 261.01 203.641C261.01 203.648 261.003 203.648 261.003 203.648C254.657 205.874 247.977 208.299 245.72 209.432C241.015 211.78 233.1 228.575 231.5 230.499C230.675 231.49 227.001 238.032 223.389 245.339H243.552C245.683 241.679 247.324 238.841 247.324 238.841C247.324 238.841 248.599 241.638 250.145 245.339H314.742C315.764 241.043 316.4 235.627 316.4 235.627C316.4 235.627 319.86 240.332 323.635 245.339H342.253C337.727 237.741 332.105 227.854 329.876 221.941H329.879Z" fill="#1D4ED8"/>
<path d="M285.966 147.623C285.966 147.623 300.602 149.93 298.373 172.827C296.144 195.724 283.229 193.85 282.363 193.826C281.501 193.802 269.398 194.242 268.454 166.285C268.454 166.285 268.041 145.611 285.966 147.623Z" fill="#EEA886"/>
<path d="M298.592 166.358C298.592 166.358 300.196 164.647 300.784 166.379C301.373 168.11 298.599 175.84 298.498 176.202C298.498 176.202 298.203 176.875 297.821 176.503C297.436 176.134 298.592 166.355 298.592 166.355V166.358Z" fill="#EEA886"/>
<path d="M268.845 166.071C268.845 166.071 267.275 164.329 266.653 166.051C266.031 167.773 268.632 175.553 268.75 175.918C268.75 175.918 269.031 176.595 269.42 176.233C269.812 175.871 268.845 166.071 268.845 166.071Z" fill="#EEA886"/>
<path d="M298.59 169.873L296.496 172.674C296.496 172.674 296.554 166.531 296.219 165.571C295.884 164.607 295.37 161.667 295.086 160.974C294.805 160.28 282.519 156.837 271.665 161.978C271.665 161.978 272.142 166.393 271.103 166.789C270.065 167.181 270.572 173.98 270.572 173.98L268.85 172.035C268.85 172.035 266.215 154.418 266.865 152.582C267.514 150.745 269.591 139.707 291.855 146.26C291.855 146.26 298.796 144.788 300.19 149.581C301.584 154.374 298.59 169.873 298.59 169.873Z" fill="#434343"/>
<path d="M294.908 198.646C294.901 198.626 293.031 197.723 293.031 197.723C292.118 195.683 292.797 187.081 292.797 187.081C292.797 187.081 274.156 182.335 274.69 185.965C275.222 189.591 273.084 198.02 273.084 198.02L263.521 202.77C263.521 202.77 273.709 230.128 285.42 226.596C297.131 223.068 301.552 201.782 301.552 201.782L294.912 198.643L294.908 198.646Z" fill="#EEA886"/>
<path d="M274.952 189.997C274.952 189.997 277.956 193.874 283.168 193.874C286.598 193.874 289.057 192.913 292.474 189.581C292.474 189.581 290.992 195.907 283.192 196.495C283.192 196.495 277.533 197.216 274.952 189.997Z" fill="#A77860"/>
<path d="M290.873 270.318H276.987V272.889H290.873V270.318Z" fill="#4598E6"/>
<path d="M514.067 554.392H463.747C460.269 554.392 457.454 551.58 457.454 548.105V478.522C457.454 475.047 460.269 472.234 463.747 472.234H495.655L520.361 497.671V548.105C520.361 551.58 517.546 554.392 514.067 554.392Z" fill="#407BFF"/>
<g opacity="0.2">
<path d="M458.719 529.467H519.096C519.79 529.467 520.361 530.037 520.361 530.73V547.79C520.361 551.438 517.403 554.393 513.751 554.393H464.064C460.412 554.393 457.454 551.438 457.454 547.79V530.73C457.454 530.037 458.025 529.467 458.719 529.467Z" fill="black"/>
</g>
<g opacity="0.2">
<path d="M495.665 472.234V491.821C495.665 495.052 498.287 497.671 501.52 497.671H520.371L495.665 472.234Z" fill="white"/>
</g>
<g opacity="0.2">
<path d="M495.92 493.533C495.92 493.533 495.676 498.282 501.082 499.841C501.286 499.902 501.49 499.943 501.704 499.984C504.162 500.422 520.361 503.306 520.361 502.929V497.671H501.51C501.51 497.671 496.808 497.508 495.91 493.533H495.92Z" fill="black"/>
</g>
<path d="M475.468 540.33C475.468 537.385 477.733 535.275 480.783 535.275C482.476 535.275 483.884 535.887 484.812 537.008L483.363 538.353C482.71 537.599 481.884 537.212 480.905 537.212C479.079 537.212 477.773 538.496 477.773 540.34C477.773 542.185 479.069 543.469 480.905 543.469C481.884 543.469 482.71 543.082 483.363 542.307L484.812 543.652C483.894 544.783 482.476 545.395 480.772 545.395C477.743 545.395 475.478 543.285 475.478 540.34L475.468 540.33Z" fill="#FAFAFA"/>
<path d="M485.475 544.253L486.24 542.552C487.066 543.153 488.29 543.571 489.474 543.571C490.82 543.571 491.361 543.122 491.361 542.521C491.361 540.687 485.669 541.95 485.669 538.322C485.669 536.661 487.015 535.275 489.79 535.275C491.024 535.275 492.279 535.571 493.187 536.142L492.493 537.864C491.585 537.344 490.647 537.1 489.78 537.1C488.433 537.1 487.923 537.599 487.923 538.221C487.923 540.024 493.615 538.781 493.615 542.368C493.615 543.999 492.258 545.395 489.463 545.395C487.913 545.395 486.342 544.936 485.475 544.264V544.253Z" fill="#FAFAFA"/>
<path d="M494.38 544.253L495.145 542.552C495.971 543.153 497.195 543.571 498.379 543.571C499.725 543.571 500.266 543.122 500.266 542.521C500.266 540.687 494.574 541.95 494.574 538.322C494.574 536.661 495.92 535.275 498.695 535.275C499.929 535.275 501.184 535.571 502.092 536.142L501.388 537.864C500.48 537.344 499.542 537.1 498.675 537.1C497.328 537.1 496.818 537.599 496.818 538.221C496.818 540.024 502.51 538.781 502.51 542.368C502.51 543.999 501.153 545.395 498.358 545.395C496.808 545.395 495.237 544.936 494.37 544.264L494.38 544.253Z" fill="#FAFAFA"/>
<path d="M478.661 508.686C479.691 509.002 480.171 509.655 480.171 511.204V514.801C480.171 515.861 480.711 516.462 481.813 516.462H482.221V519.203H480.915C478.11 519.203 476.662 517.766 476.662 515.188V511.122C476.662 510.398 476.284 510.062 475.672 510.062H474.927V507.321H475.672C476.274 507.321 476.662 506.985 476.662 506.261V502.195C476.662 499.617 478.1 498.18 480.915 498.18H482.221V500.921H481.813C480.711 500.921 480.171 501.522 480.171 502.582V506.179C480.171 507.728 479.701 508.381 478.661 508.697V508.686Z" fill="#FAFAFA"/>
<path d="M502.898 507.321V510.063H502.153C501.551 510.063 501.163 510.399 501.163 511.122V515.189C501.163 517.767 499.725 519.204 496.91 519.204H495.604V516.462H496.012C497.114 516.462 497.654 515.851 497.654 514.801V511.204C497.654 509.655 498.124 509.003 499.164 508.687C498.134 508.371 497.654 507.719 497.654 506.17V502.572C497.654 501.512 497.114 500.911 496.012 500.911H495.604V498.17H496.91C499.715 498.17 501.163 499.607 501.163 502.185V506.251C501.163 506.975 501.541 507.311 502.153 507.311H502.898V507.321Z" fill="#FAFAFA"/>
<path d="M402.646 554.392H352.326C348.847 554.392 346.032 551.58 346.032 548.105V478.522C346.032 475.047 348.847 472.234 352.326 472.234H384.233L408.939 497.671V548.105C408.939 551.58 406.124 554.392 402.646 554.392Z" fill="#407BFF"/>
<g opacity="0.2">
<path d="M346.032 529.467H408.939V547.423C408.939 551.265 405.818 554.393 401.962 554.393H353.009C349.164 554.393 346.032 551.275 346.032 547.423V529.467Z" fill="black"/>
</g>
<path d="M368.331 545.547L369.912 543.652C370.585 544.549 371.319 545.007 372.197 545.007C373.339 545.007 373.941 544.325 373.941 542.969V537.12H369.616V534.837H376.777V542.816C376.777 545.853 375.247 547.351 372.339 547.351C370.687 547.351 369.228 546.719 368.331 545.558V545.547Z" fill="#FAFAFA"/>
<path d="M378.47 546.251L379.388 544.284C380.235 544.824 381.52 545.202 382.673 545.202C383.938 545.202 384.417 544.865 384.417 544.335C384.417 542.786 378.705 544.366 378.705 540.595C378.705 538.802 380.327 537.538 383.081 537.538C384.387 537.538 385.825 537.834 386.723 538.364L385.804 540.31C384.876 539.78 383.938 539.607 383.081 539.607C381.847 539.607 381.326 539.994 381.326 540.483C381.326 542.104 387.039 540.534 387.039 544.264C387.039 546.017 385.407 547.27 382.571 547.27C380.969 547.27 379.347 546.832 378.47 546.251Z" fill="#FAFAFA"/>
<path d="M359.364 516.382L361.333 514.068C362.629 515.903 364.291 516.891 366.301 516.891C368.984 516.891 370.381 515.261 370.381 512.071V498.721H361.772V495.766H373.747V511.908C373.747 517.207 371.167 519.826 366.301 519.826C363.475 519.826 360.894 518.603 359.364 516.392V516.382Z" fill="#FAFAFA"/>
<path d="M377.94 517.635L379.296 515.057C380.826 516.147 383.275 516.922 385.621 516.922C388.65 516.922 389.905 516.005 389.905 514.476C389.905 510.43 378.511 513.936 378.511 506.761C378.511 503.531 381.398 501.36 386.029 501.36C388.375 501.36 391.027 501.972 392.588 502.991L391.19 505.569C389.558 504.519 387.753 504.142 385.988 504.142C383.132 504.142 381.734 505.192 381.734 506.619C381.734 510.868 393.159 507.403 393.159 514.405C393.159 517.666 390.17 519.734 385.366 519.734C382.377 519.734 379.419 518.817 377.919 517.625L377.94 517.635Z" fill="#FAFAFA"/>
<path d="M384.244 472.234V491.821C384.244 495.052 386.865 497.671 390.099 497.671H408.95L384.244 472.234Z" fill="#407BFF"/>
<g opacity="0.2">
<path d="M384.499 493.533C384.499 493.533 384.254 498.282 389.66 499.841C389.864 499.902 390.068 499.943 390.282 499.984C392.741 500.422 408.939 503.306 408.939 502.929V497.671H390.089C390.089 497.671 385.386 497.508 384.489 493.533H384.499Z" fill="black"/>
</g>
<path d="M290.204 554.392H239.884C236.406 554.392 233.591 551.58 233.591 548.105V478.522C233.591 475.047 236.406 472.234 239.884 472.234H271.792L296.498 497.671V548.105C296.498 551.58 293.683 554.392 290.204 554.392Z" fill="#407BFF"/>
<g opacity="0.2">
<path d="M233.591 529.467H296.498V547.362C296.498 551.244 293.346 554.393 289.46 554.393H240.619C236.733 554.393 233.581 551.244 233.581 547.362V529.467H233.591Z" fill="black"/>
</g>
<g opacity="0.2">
<path d="M271.792 472.234V491.821C271.792 495.052 274.414 497.671 277.647 497.671H296.498L271.792 472.234Z" fill="white"/>
</g>
<g opacity="0.2">
<path d="M272.057 493.533C272.057 493.533 271.812 498.282 277.219 499.841C277.423 499.902 277.627 499.943 277.841 499.984C280.299 500.422 296.498 503.306 296.498 502.929V497.671H277.647C277.647 497.671 272.945 497.508 272.047 493.533H272.057Z" fill="black"/>
</g>
<path d="M259.429 508.881L251.88 511.642L259.429 514.384V517.217L248.636 513.12V510.175L259.429 506.078V508.891V508.881Z" fill="#FAFAFA"/>
<path d="M267.538 500.493H270.69L263.203 521.833H260.051L267.538 500.493Z" fill="#FAFAFA"/>
<path d="M281.891 510.174V513.119L271.098 517.216V514.383L278.647 511.642L271.098 508.88V506.067L281.891 510.164V510.174Z" fill="#FAFAFA"/>
<path d="M256.858 538.739V547.187H254.9V543.723H251.054V547.187H249.096V538.739H251.054V542.072H254.9V538.739H256.858Z" fill="#FAFAFA"/>
<path d="M260.612 540.329H257.909V538.739H265.274V540.329H262.571V547.187H260.612V540.329Z" fill="#FAFAFA"/>
<path d="M274.016 547.187V542.122L271.517 546.3H270.639L268.161 542.234V547.197H266.325V538.749H267.946L271.109 543.997L274.22 538.749H275.832L275.852 547.197H274.016V547.187Z" fill="#FAFAFA"/>
<path d="M277.851 538.739H279.81V545.598H284.053V547.187H277.861V538.739H277.851Z" fill="#FAFAFA"/>
<g opacity="0.2">
<path d="M396.306 459.516V479.102C396.306 482.333 398.928 484.952 402.161 484.952H421.012L396.306 459.516Z" fill="white"/>
</g>
<g opacity="0.2">
<path d="M617.588 459.516V479.102C617.588 482.333 620.21 484.952 623.444 484.952H642.294L617.588 459.516Z" fill="white"/>
</g>
<path d="M621.092 509.106C621.092 518.306 619.261 527.415 615.704 535.914C612.147 544.413 606.933 552.135 600.361 558.64C593.788 565.145 585.985 570.304 577.398 573.825C568.81 577.345 559.606 579.157 550.311 579.157L550.311 509.106L621.092 509.106Z" fill="#009D9D"/>
<defs>
<filter id="filter0_f_887_8418" x="0" y="149.008" width="601.79" height="601.79" filterUnits="userSpaceOnUse" color-interpolation-filters="sRGB">
<feFlood flood-opacity="0" result="BackgroundImageFix"/>
<feBlend mode="normal" in="SourceGraphic" in2="BackgroundImageFix" result="shape"/>
<feGaussianBlur stdDeviation="86" result="effect1_foregroundBlur_887_8418"/>
</filter>
<filter id="filter1_f_887_8418" x="297.509" y="0.0673828" width="601.79" height="601.79" filterUnits="userSpaceOnUse" color-interpolation-filters="sRGB">
<feFlood flood-opacity="0" result="BackgroundImageFix"/>
<feBlend mode="normal" in="SourceGraphic" in2="BackgroundImageFix" result="shape"/>
<feGaussianBlur stdDeviation="86" result="effect1_foregroundBlur_887_8418"/>
</filter>
<filter id="filter2_d_887_8418" x="200.713" y="187.878" width="465.933" height="308.746" filterUnits="userSpaceOnUse" color-interpolation-filters="sRGB">
<feFlood flood-opacity="0" result="BackgroundImageFix"/>
<feColorMatrix in="SourceAlpha" type="matrix" values="0 0 0 0 0 0 0 0 0 0 0 0 0 0 0 0 0 0 127 0" result="hardAlpha"/>
<feOffset dx="4" dy="4"/>
<feGaussianBlur stdDeviation="5"/>
<feComposite in2="hardAlpha" operator="out"/>
<feColorMatrix type="matrix" values="0 0 0 0 0 0 0 0 0 0 0 0 0 0 0 0 0 0 0.08 0"/>
<feBlend mode="normal" in2="BackgroundImageFix" result="effect1_dropShadow_887_8418"/>
<feBlend mode="normal" in="SourceGraphic" in2="effect1_dropShadow_887_8418" result="shape"/>
</filter>
<filter id="filter3_d_887_8418" x="188.719" y="146.453" width="198.422" height="198.422" filterUnits="userSpaceOnUse" color-interpolation-filters="sRGB">
<feFlood flood-opacity="0" result="BackgroundImageFix"/>
<feColorMatrix in="SourceAlpha" type="matrix" values="0 0 0 0 0 0 0 0 0 0 0 0 0 0 0 0 0 0 127 0" result="hardAlpha"/>
<feOffset dx="4" dy="4"/>
<feGaussianBlur stdDeviation="5"/>
<feComposite in2="hardAlpha" operator="out"/>
<feColorMatrix type="matrix" values="0 0 0 0 0 0 0 0 0 0 0 0 0 0 0 0 0 0 0.08 0"/>
<feBlend mode="normal" in2="BackgroundImageFix" result="effect1_dropShadow_887_8418"/>
<feBlend mode="normal" in="SourceGraphic" in2="effect1_dropShadow_887_8418" result="shape"/>
</filter>
<linearGradient id="paint0_linear_887_8418" x1="283.936" y1="382.492" x2="283.936" y2="192.39" gradientUnits="userSpaceOnUse">
<stop stop-color="#D1D7E0"/>
<stop offset="1" stop-color="#EBEBFF"/>
</linearGradient>
<clipPath id="clip0_887_8418">
<rect x="206.713" y="193.878" width="445.933" height="288.746" rx="5" fill="white"/>
</clipPath>
</defs>
</svg>
