<svg width="101" height="52" viewBox="0 0 101 52" fill="none" xmlns="http://www.w3.org/2000/svg">
<path d="M3.08594 30.4326H5.91886V44.3233H3.08594V30.4326Z" fill="white" fill-opacity="0.8"/>
<path d="M7.56273 39.5638C7.56086 38.5661 7.85501 37.5902 8.40796 36.7597C8.96091 35.9292 9.7478 35.2814 10.6691 34.8983C11.5903 34.5152 12.6045 34.414 13.5833 34.6075C14.5621 34.801 15.4615 35.2805 16.1676 35.9854C16.8738 36.6902 17.355 37.5887 17.5503 38.5671C17.7457 39.5455 17.6464 40.5599 17.265 41.4819C16.8836 42.4038 16.2373 43.1919 15.4078 43.7464C14.5784 44.301 13.6031 44.5969 12.6054 44.5969C11.9418 44.6045 11.2835 44.4796 10.6689 44.2294C10.0543 43.9793 9.49579 43.609 9.02615 43.1402C8.55651 42.6715 8.18516 42.1137 7.93387 41.4995C7.68258 40.8854 7.5564 40.2273 7.56273 39.5638ZM14.7961 39.5638C14.785 39.1331 14.6471 38.7152 14.3997 38.3625C14.1523 38.0097 13.8064 37.7378 13.4052 37.5806C13.004 37.4234 12.5654 37.3881 12.1443 37.4789C11.7231 37.5697 11.3381 37.7827 11.0373 38.0912C10.7366 38.3997 10.5335 38.7901 10.4534 39.2135C10.3733 39.6368 10.4199 40.0744 10.5873 40.4714C10.7547 40.8684 11.0354 41.2073 11.3943 41.4456C11.7533 41.6839 12.1745 41.8111 12.6054 41.8112C12.9001 41.8195 13.1934 41.7666 13.4667 41.6558C13.74 41.545 13.9874 41.3788 14.1933 41.1676C14.3991 40.9564 14.559 40.7049 14.6627 40.4289C14.7665 40.1528 14.8119 39.8583 14.7961 39.5638Z" fill="white" fill-opacity="0.8"/>
<path d="M29.0374 34.805V43.8514C29.0374 47.0526 26.535 48.403 24.0043 48.403C23.1144 48.4692 22.2234 48.2892 21.4289 47.8828C20.6344 47.4764 19.9671 46.8592 19.5 46.0989L21.9363 44.6919C22.1296 45.0815 22.4355 45.4042 22.8143 45.618C23.1931 45.8318 23.6274 45.927 24.061 45.8911C24.3462 45.9387 24.6386 45.9201 24.9156 45.8367C25.1926 45.7534 25.4467 45.6076 25.6584 45.4105C25.87 45.2134 26.0336 44.9703 26.1365 44.7C26.2394 44.4297 26.2788 44.1394 26.2517 43.8514V42.9732C25.9187 43.383 25.4937 43.7085 25.0114 43.9234C24.5291 44.1383 24.0029 44.2366 23.4755 44.2103C22.1932 44.2103 20.9635 43.7009 20.0567 42.7942C19.15 41.8875 18.6406 40.6577 18.6406 39.3754C18.6406 38.0931 19.15 36.8634 20.0567 35.9567C20.9635 35.05 22.1932 34.5406 23.4755 34.5406C24.0026 34.5165 24.528 34.6158 25.01 34.8305C25.492 35.0453 25.9172 35.3696 26.2517 35.7776V34.8333L29.0374 34.805ZM26.2517 39.3754C26.2706 38.9162 26.1516 38.4618 25.9102 38.0706C25.6687 37.6795 25.3158 37.3695 24.8968 37.1806C24.4778 36.9916 24.0118 36.9323 23.5588 37.0103C23.1058 37.0882 22.6865 37.2999 22.3548 37.618C22.023 37.9362 21.794 38.3463 21.6972 38.7956C21.6003 39.2449 21.6401 39.713 21.8114 40.1395C21.9827 40.5661 22.2776 40.9316 22.6583 41.1892C23.039 41.4469 23.488 41.5847 23.9476 41.5851C24.2477 41.6063 24.5488 41.5645 24.8316 41.4622C25.1145 41.3599 25.3728 41.1996 25.5899 40.9914C25.8069 40.7832 25.978 40.5318 26.092 40.2535C26.206 39.9752 26.2604 39.6761 26.2517 39.3754Z" fill="white" fill-opacity="0.8"/>
<path d="M30.6721 39.5638C30.6702 38.5661 30.9644 37.5902 31.5173 36.7597C32.0703 35.9292 32.8572 35.2814 33.7784 34.8983C34.6996 34.5152 35.7138 34.414 36.6926 34.6075C37.6714 34.801 38.5708 35.2805 39.277 35.9854C39.9831 36.6902 40.4643 37.5887 40.6597 38.5671C40.855 39.5455 40.7557 40.5599 40.3743 41.4819C39.9929 42.4038 39.3466 43.1919 38.5172 43.7464C37.6877 44.301 36.7124 44.5969 35.7147 44.5969C35.0512 44.6045 34.3928 44.4796 33.7782 44.2294C33.1636 43.9793 32.6051 43.609 32.1355 43.1402C31.6659 42.6715 31.2945 42.1137 31.0432 41.4995C30.7919 40.8854 30.6657 40.2273 30.6721 39.5638ZM37.9055 39.5638C37.8943 39.1331 37.7564 38.7152 37.509 38.3625C37.2616 38.0097 36.9157 37.7378 36.5145 37.5806C36.1134 37.4234 35.6748 37.3881 35.2536 37.4789C34.8324 37.5697 34.4474 37.7827 34.1466 38.0912C33.8459 38.3997 33.6428 38.7901 33.5627 39.2135C33.4827 39.6368 33.5293 40.0744 33.6966 40.4714C33.864 40.8684 34.1447 41.2073 34.5036 41.4456C34.8626 41.6839 35.2838 41.8111 35.7147 41.8112C36.0079 41.8168 36.2991 41.762 36.5702 41.65C36.8412 41.538 37.0863 41.3714 37.2901 41.1605C37.4939 40.9497 37.652 40.699 37.7547 40.4243C37.8573 40.1496 37.9022 39.8566 37.8866 39.5638H37.9055Z" fill="white" fill-opacity="0.8"/>
<path d="M42.0625 32.2548C42.0625 31.9149 42.1633 31.5826 42.3521 31.3C42.541 31.0174 42.8094 30.7971 43.1234 30.667C43.4375 30.5369 43.783 30.5029 44.1164 30.5692C44.4498 30.6355 44.756 30.7992 44.9964 31.0395C45.2368 31.2799 45.4004 31.5861 45.4667 31.9195C45.5331 32.2529 45.499 32.5985 45.369 32.9125C45.2389 33.2265 45.0186 33.495 44.736 33.6838C44.4533 33.8726 44.1211 33.9734 43.7811 33.9734C43.3261 33.971 42.8904 33.7891 42.5686 33.4673C42.2468 33.1456 42.065 32.7099 42.0625 32.2548ZM42.3552 34.8044H45.1881V44.323H42.3552V34.8044Z" fill="white" fill-opacity="0.8"/>
<path d="M57.5438 39.564C57.5781 40.1932 57.4877 40.823 57.2777 41.4171C57.0676 42.0112 56.7422 42.5579 56.32 43.0257C55.8978 43.4935 55.3873 43.8732 54.8178 44.1429C54.2483 44.4126 53.6311 44.567 53.0017 44.5972C52.4733 44.6225 51.9457 44.5317 51.4563 44.331C50.9668 44.1303 50.5273 43.8247 50.1688 43.4357V48.1572H47.3359V34.8047H50.1688V35.7018C50.5273 35.3128 50.9668 35.0072 51.4563 34.8065C51.9457 34.6058 52.4733 34.515 53.0017 34.5403C53.6303 34.5705 54.2467 34.7246 54.8155 34.9937C55.3844 35.2629 55.8945 35.6417 56.3165 36.1085C56.7386 36.5753 57.0642 37.1208 57.2748 37.7138C57.4855 38.3068 57.5769 38.9356 57.5438 39.564ZM54.7109 39.564C54.6997 39.1208 54.5587 38.6906 54.3054 38.3267C54.0521 37.9629 53.6977 37.6812 53.286 37.5168C52.8743 37.3523 52.4233 37.3122 51.9891 37.4015C51.5548 37.4907 51.1562 37.7054 50.8427 38.0189C50.5292 38.3324 50.3146 38.7309 50.2253 39.1652C50.1361 39.5995 50.1762 40.0504 50.3406 40.4621C50.5051 40.8738 50.7867 41.2283 51.1506 41.4815C51.5145 41.7348 51.9447 41.8758 52.3879 41.887C52.6972 41.9067 53.0071 41.8599 53.2969 41.7499C53.5866 41.6398 53.8494 41.469 54.0677 41.249C54.2859 41.0289 54.4546 40.7647 54.5623 40.4741C54.6699 40.1835 54.7142 39.8732 54.692 39.564H54.7109Z" fill="white" fill-opacity="0.8"/>
<path d="M66.3596 41.4716C66.3596 43.6624 64.471 44.5972 62.3935 44.5972C61.5636 44.6707 60.7307 44.4941 60.002 44.0902C59.2734 43.6863 58.6822 43.0736 58.3047 42.3309L60.7788 40.9239C60.8792 41.2674 61.0942 41.5662 61.3879 41.7706C61.6817 41.975 62.0365 42.0728 62.3935 42.0476C63.0829 42.0476 63.4228 41.8304 63.4228 41.4527C63.4228 40.4045 58.7013 40.9617 58.7013 37.6755C58.7013 35.598 60.4577 34.5498 62.4785 34.5498C63.2242 34.5272 63.9624 34.7043 64.6166 35.063C65.2708 35.4216 65.8171 35.9487 66.1991 36.5895L63.7156 37.8927C63.6059 37.6433 63.4261 37.4311 63.1981 37.2819C62.9701 37.1327 62.7038 37.0529 62.4313 37.0522C61.9403 37.0522 61.6381 37.2411 61.6381 37.5905C61.6759 38.6764 66.3596 37.9493 66.3596 41.4716Z" fill="white" fill-opacity="0.8"/>
<path d="M76.7845 34.8047V44.3233H73.9515V43.4357C73.622 43.8301 73.2038 44.1409 72.7311 44.3428C72.2585 44.5447 71.7447 44.6318 71.2319 44.5972C69.3433 44.5972 67.6719 43.2279 67.6719 40.65V34.8047H70.5048V40.2345C70.4799 40.4659 70.5069 40.6999 70.5837 40.9196C70.6605 41.1393 70.7852 41.3391 70.9489 41.5046C71.1125 41.6701 71.311 41.797 71.5298 41.8762C71.7486 41.9555 71.9824 41.9849 72.214 41.9626C73.2528 41.9626 73.9799 41.3582 73.9799 40.0079V34.8047H76.7845Z" fill="white" fill-opacity="0.8"/>
<path d="M93.1649 38.4877V44.3235H90.3319V38.7332C90.3319 37.7889 89.8692 37.1656 88.9627 37.1656C88.0562 37.1656 87.4707 37.8362 87.4707 38.9599V44.3235H84.6378V38.7332C84.6378 37.7889 84.1845 37.1656 83.2685 37.1656C82.3526 37.1656 81.786 37.8362 81.786 38.9599V44.3235H78.9531V34.805H81.786V35.6832C82.0821 35.2953 82.4704 34.9876 82.9157 34.7881C83.361 34.5885 83.8491 34.5034 84.3356 34.5406C84.8242 34.5168 85.3107 34.62 85.7475 34.84C86.1844 35.0601 86.5568 35.3897 86.8286 35.7965C87.1446 35.3712 87.5633 35.0329 88.0455 34.8133C88.5277 34.5937 89.0577 34.4998 89.5859 34.5406C91.739 34.5406 93.1649 36.1081 93.1649 38.4877Z" fill="white" fill-opacity="0.8"/>
<path d="M95.5762 34.7481C96.7444 34.7481 97.6914 33.801 97.6914 32.6328C97.6914 31.4646 96.7444 30.5176 95.5762 30.5176C94.408 30.5176 93.4609 31.4646 93.4609 32.6328C93.4609 33.801 94.408 34.7481 95.5762 34.7481Z" fill="white" fill-opacity="0.8"/>
<path d="M35.148 23.2275C40.6188 23.2275 45.0537 18.7925 45.0537 13.3217C45.0537 7.85098 40.6188 3.41602 35.148 3.41602C29.6772 3.41602 25.2422 7.85098 25.2422 13.3217C25.2422 18.7925 29.6772 23.2275 35.148 23.2275Z" fill="white" fill-opacity="0.8"/>
<path d="M57.2886 23.2275C62.7594 23.2275 67.1943 18.7925 67.1943 13.3217C67.1943 7.85098 62.7594 3.41602 57.2886 3.41602C51.8178 3.41602 47.3828 7.85098 47.3828 13.3217C47.3828 18.7925 51.8178 23.2275 57.2886 23.2275Z" fill="white" fill-opacity="0.8"/>
<path d="M22.9036 3.41602H3.10156V23.218H22.9036V3.41602Z" fill="white" fill-opacity="0.8"/>
</svg>
