<svg width="237" height="61" viewBox="0 0 237 61" fill="none" xmlns="http://www.w3.org/2000/svg">
<path d="M27.7094 12.1514V4.65137H4.10938V56.1808H27.7094V48.6808C22.8749 48.6808 18.2384 46.7564 14.82 43.3311C11.4015 39.9058 9.48102 35.2602 9.48102 30.4161C9.48102 25.572 11.4015 20.9262 14.82 17.501C18.2384 14.0757 22.8749 12.1514 27.7094 12.1514Z" fill="white" fill-opacity="0.8"/>
<path d="M27.7109 12.1514V48.6808C32.5454 48.6808 37.1819 46.7564 40.6004 43.3311C44.0189 39.9058 45.9393 35.2602 45.9393 30.4161C45.9393 25.572 44.0189 20.9262 40.6004 17.501C37.1819 14.0757 32.5454 12.1514 27.7109 12.1514Z" fill="white" fill-opacity="0.8"/>
<path d="M59.1797 16.7393H64.4633V42.2393H59.1797V16.7393Z" fill="white" fill-opacity="0.8"/>
<path d="M67.4227 33.5047C67.4227 31.6702 67.9664 29.8769 68.9847 28.3522C70.003 26.8274 71.4502 25.64 73.1429 24.9403C74.8356 24.2407 76.6973 24.0604 78.4923 24.4222C80.2873 24.7839 81.9348 25.6716 83.2257 26.9725C84.5167 28.2736 85.3932 29.9293 85.7441 31.73C86.0947 33.5307 85.9042 35.3951 85.1961 37.0871C84.4881 38.7789 83.2949 40.2223 81.7675 41.2338C80.24 42.2455 78.4471 42.7799 76.6161 42.7694C75.4018 42.779 74.1977 42.5455 73.0746 42.0824C71.9514 41.6196 70.9317 40.9366 70.0754 40.0739C69.2191 39.2109 68.5435 38.1853 68.0879 37.0573C67.6325 35.9293 67.4063 34.7215 67.4227 33.5047ZM80.6669 33.5047C80.6461 32.7138 80.393 31.9465 79.9393 31.299C79.4857 30.6514 78.8516 30.1522 78.1161 29.8638C77.3809 29.5754 76.577 29.5107 75.8053 29.6778C75.0334 29.8447 74.3278 30.236 73.7767 30.8028C73.2257 31.3694 72.8535 32.0863 72.707 32.8638C72.5605 33.6413 72.6459 34.4448 72.9527 35.1738C73.2595 35.9028 73.7739 36.5252 74.4319 36.9627C75.0897 37.4003 75.8616 37.6338 76.6514 37.6342C77.1891 37.6447 77.723 37.544 78.2201 37.3382C78.7171 37.1326 79.1663 36.8264 79.5399 36.4389C79.9134 36.0514 80.2032 35.5906 80.3911 35.0859C80.579 34.581 80.6609 34.0428 80.6317 33.5047H80.6669Z" fill="white" fill-opacity="0.8"/>
<path d="M106.72 24.7692V41.3751C106.72 47.2339 102.141 49.7221 97.509 49.7221C95.8751 49.8564 94.2364 49.5312 92.7772 48.783C91.3179 48.0347 90.096 46.8931 89.249 45.4869L93.7048 42.9104C94.0659 43.6399 94.6402 44.2417 95.3514 44.6357C96.0625 45.0298 96.8766 45.1974 97.6851 45.1163C98.2003 45.1798 98.723 45.1286 99.216 44.9663C99.7091 44.8037 100.16 44.5343 100.537 44.1767C100.914 43.8192 101.208 43.3828 101.396 42.8984C101.585 42.4141 101.665 41.8939 101.63 41.3751V39.7692C101.015 40.5162 100.235 41.1091 99.3517 41.5013C98.4682 41.8934 97.5057 42.0737 96.5403 42.028C94.2048 42.028 91.9651 41.0984 90.3136 39.4436C88.6622 37.789 87.7344 35.5447 87.7344 33.2045C87.7344 30.8643 88.6622 28.6201 90.3136 26.9654C91.9651 25.3106 94.2048 24.381 96.5403 24.381C97.5057 24.3353 98.4682 24.5156 99.3517 24.9077C100.235 25.2999 101.015 25.8928 101.63 26.6398V24.8751L106.72 24.7692ZM101.63 33.1516C101.665 32.3073 101.448 31.4717 101.005 30.7524C100.562 30.0331 99.9153 29.463 99.1466 29.1151C98.378 28.7673 97.5233 28.6579 96.692 28.8009C95.8609 28.9438 95.0912 29.3326 94.4824 29.9172C93.8735 30.5019 93.4532 31.2557 93.2753 32.0818C93.0974 32.9079 93.1701 33.7681 93.4841 34.5524C93.7983 35.3366 94.3394 36.0088 95.0377 36.4824C95.7362 36.9561 96.5601 37.2097 97.4033 37.2104C97.9537 37.2501 98.5062 37.1737 99.025 36.9863C99.5441 36.7987 100.018 36.5041 100.416 36.1216C100.815 35.7391 101.129 35.2771 101.338 34.7656C101.547 34.254 101.646 33.7041 101.63 33.1516Z" fill="white" fill-opacity="0.8"/>
<path d="M109.696 33.504C109.696 31.6708 110.239 29.8789 111.255 28.3549C112.272 26.8309 113.717 25.6435 115.408 24.9429C117.098 24.2421 118.958 24.0596 120.753 24.4186C122.547 24.7775 124.194 25.6616 125.487 26.9591C126.779 28.2566 127.658 29.9091 128.013 31.7073C128.368 33.5058 128.182 35.3691 127.48 37.0616C126.777 38.7544 125.589 40.2 124.066 41.2159C122.543 42.2319 120.754 42.7722 118.925 42.7687C117.708 42.7805 116.501 42.5488 115.375 42.0872C114.249 41.6255 113.226 40.9433 112.366 40.0804C111.507 39.2174 110.828 38.1912 110.369 37.062C109.911 35.9328 109.682 34.7231 109.696 33.504ZM122.94 33.504C122.919 32.7124 122.666 31.9444 122.211 31.2964C121.757 30.6485 121.122 30.1493 120.385 29.8615C119.649 29.5736 118.844 29.5099 118.072 29.6785C117.3 29.8468 116.594 30.24 116.044 30.8084C115.493 31.3768 115.123 32.0954 114.978 32.874C114.834 33.6526 114.922 34.4566 115.231 35.1852C115.54 35.9141 116.058 36.5351 116.718 36.9706C117.378 37.4059 118.152 37.6366 118.942 37.6334C119.48 37.644 120.014 37.5432 120.511 37.3375C121.008 37.1319 121.457 36.8257 121.831 36.4382C122.204 36.0506 122.494 35.5899 122.682 35.0852C122.87 34.5803 122.952 34.0421 122.922 33.504H122.94Z" fill="white" fill-opacity="0.8"/>
<path d="M130.602 20.0924C130.602 19.4712 130.785 18.8638 131.13 18.3472C131.474 17.8306 131.964 17.428 132.537 17.1903C133.11 16.9525 133.74 16.8903 134.348 17.0115C134.956 17.1327 135.515 17.4319 135.953 17.8712C136.392 18.3105 136.69 18.8703 136.811 19.4795C136.932 20.0888 136.87 20.7204 136.633 21.2945C136.396 21.8684 135.994 22.3589 135.478 22.7041C134.963 23.0493 134.357 23.2335 133.736 23.2335C132.908 23.2244 132.116 22.8905 131.53 22.3034C130.944 21.7162 130.611 20.9226 130.602 20.0924ZM131.112 24.7688H136.396V42.2394H131.112V24.7688Z" fill="white" fill-opacity="0.8"/>
<path d="M159.007 33.5042C159.066 34.6661 158.896 35.8283 158.505 36.9239C158.114 38.0194 157.511 39.0267 156.73 39.8877C155.949 40.7489 155.006 41.4466 153.955 41.9411C152.904 42.4356 151.766 42.7169 150.606 42.7689C149.622 42.8346 148.635 42.6766 147.721 42.3069C146.806 41.937 145.986 41.3651 145.323 40.6336V49.263H140.039V24.7689H145.323V26.4101C145.987 25.6807 146.807 25.1114 147.722 24.7447C148.637 24.3779 149.623 24.2233 150.606 24.2924C151.762 24.3445 152.895 24.6242 153.943 25.1153C154.99 25.6064 155.931 26.2996 156.711 27.155C157.491 28.0103 158.095 29.0113 158.489 30.1008C158.883 31.1902 159.059 32.3466 159.007 33.5042ZM153.724 33.5042C153.703 32.6845 153.441 31.8893 152.971 31.2182C152.501 30.5471 151.844 30.0297 151.082 29.7313C150.32 29.4327 149.487 29.3663 148.687 29.5402C147.887 29.714 147.157 30.1206 146.587 30.7087C146.017 31.2969 145.632 32.0406 145.483 32.8467C145.333 33.6526 145.423 34.485 145.743 35.2396C146.064 35.994 146.599 36.6371 147.282 37.0882C147.965 37.5392 148.766 37.778 149.585 37.7748C150.145 37.7986 150.704 37.7035 151.225 37.4956C151.747 37.2877 152.218 36.9719 152.609 36.5686C153 36.1654 153.301 35.6838 153.493 35.1558C153.685 34.6276 153.764 34.0649 153.724 33.5042Z" fill="white" fill-opacity="0.8"/>
<path d="M175.087 36.9987C175.087 41.0222 171.565 42.734 167.831 42.734C166.308 42.8713 164.779 42.5478 163.442 41.8054C162.104 41.063 161.02 39.9357 160.328 38.5693L164.872 35.9928C165.052 36.6225 165.442 37.1711 165.978 37.547C166.513 37.9229 167.161 38.1031 167.813 38.0575C169.064 38.0575 169.698 37.6693 169.698 36.9634C169.698 35.0399 161.121 36.0634 161.121 30.0105C161.121 26.1987 164.326 24.2928 167.954 24.2928C169.333 24.2309 170.703 24.5445 171.919 25.2001C173.134 25.8557 174.15 26.8289 174.858 28.0164L170.314 30.4164C170.113 29.9611 169.785 29.5739 169.37 29.3014C168.954 29.029 168.468 28.883 167.972 28.8811C167.056 28.8811 166.51 29.234 166.51 29.8517C166.51 31.8634 175.087 30.5399 175.087 36.9987Z" fill="white" fill-opacity="0.8"/>
<path d="M194.229 24.7695V42.2401H188.946V40.5989C188.345 41.3255 187.583 41.9002 186.722 42.2774C185.859 42.6545 184.92 42.823 183.979 42.7695C180.457 42.7695 177.445 40.246 177.445 35.5342V24.7695H182.729V34.7401C182.687 35.1569 182.736 35.5778 182.873 35.9738C183.011 36.3696 183.231 36.7311 183.52 37.0332C183.81 37.3351 184.162 37.5705 184.552 37.7232C184.941 37.8756 185.358 37.9416 185.776 37.9166C187.678 37.9166 189.016 36.7872 189.016 34.3872V24.7695H194.229Z" fill="white" fill-opacity="0.8"/>
<path d="M224.172 31.51V42.2394H218.888V31.9688C218.888 30.2041 218.06 29.11 216.387 29.11C214.714 29.11 213.657 30.3277 213.657 32.3924V42.2394H208.374V31.9688C208.374 30.2041 207.546 29.11 205.873 29.11C204.2 29.11 203.143 30.3277 203.143 32.3924V42.2394H197.859V24.7688H203.143V26.3747C203.691 25.6653 204.404 25.1034 205.223 24.7399C206.04 24.3764 206.937 24.2225 207.828 24.2924C208.721 24.2456 209.612 24.4327 210.411 24.8348C211.211 25.237 211.893 25.8407 212.389 26.5865C212.97 25.8072 213.738 25.1881 214.622 24.787C215.505 24.3857 216.477 24.2156 217.444 24.2924C221.565 24.2924 224.172 27.1512 224.172 31.51Z" fill="white" fill-opacity="0.8"/>
<path d="M228.609 24.6631C230.749 24.6631 232.484 22.9249 232.484 20.7808C232.484 18.6367 230.749 16.8984 228.609 16.8984C226.469 16.8984 224.734 18.6367 224.734 20.7808C224.734 22.9249 226.469 24.6631 228.609 24.6631Z" fill="white" fill-opacity="0.8"/>
</svg>
