<svg width="120" height="31" viewBox="0 0 120 31" fill="none" xmlns="http://www.w3.org/2000/svg">
<path d="M3.4375 28.2408H29.0875V2.59082H3.4375V28.2408ZM24.1505 12.9478H18.7305V7.52782H24.1505V12.9478ZM8.3735 7.52782H13.7965V17.8838H24.1505V23.3038H8.3735V7.52782ZM45.7905 2.59082C43.2539 2.59082 40.7743 3.343 38.6653 4.75223C36.5562 6.16146 34.9124 8.16445 33.9417 10.5079C32.971 12.8514 32.7171 15.43 33.2119 17.9178C33.7068 20.4056 34.9282 22.6908 36.7218 24.4844C38.5154 26.2781 40.8006 27.4995 43.2884 27.9944C45.7763 28.4892 48.3549 28.2353 50.6984 27.2646C53.0419 26.2939 55.0448 24.6501 56.4541 22.541C57.8633 20.4319 58.6155 17.9523 58.6155 15.4158C58.6115 12.0156 57.259 8.75586 54.8547 6.35157C52.4504 3.94727 49.1907 2.59479 45.7905 2.59082ZM45.7905 23.3038C44.2304 23.3038 42.7053 22.8412 41.4081 21.9744C40.111 21.1077 39.0999 19.8758 38.5029 18.4344C37.9059 16.9931 37.7497 15.4071 38.054 13.8769C38.3584 12.3468 39.1097 10.9413 40.2128 9.83816C41.316 8.73501 42.7215 7.98375 44.2516 7.67939C45.7817 7.37503 47.3677 7.53124 48.8091 8.12826C50.2504 8.72528 51.4824 9.73631 52.3491 11.0335C53.2159 12.3306 53.6785 13.8557 53.6785 15.4158C53.6753 17.5069 52.8432 19.5114 51.3646 20.99C49.886 22.4686 47.8815 23.3006 45.7905 23.3038ZM104.51 2.59082C101.973 2.59063 99.4932 3.34263 97.384 4.75174C95.2748 6.16085 93.6309 8.16377 92.66 10.5072C91.6892 12.8506 91.435 15.4294 91.9298 17.9172C92.4245 20.4051 93.6459 22.6904 95.4395 24.4841C97.233 26.2778 99.5182 27.4994 102.007 27.9943C104.494 28.4892 107.073 28.2353 109.417 27.2647C111.76 26.294 113.763 24.6502 115.172 22.5411C116.582 20.432 117.334 17.9524 117.334 15.4158C117.33 12.0158 115.978 8.75618 113.574 6.35192C111.17 3.94765 107.91 2.59506 104.51 2.59082ZM104.51 23.3038C102.95 23.304 101.425 22.8415 100.127 21.9749C98.8296 21.1083 97.8184 19.8764 97.2212 18.4351C96.624 16.9938 96.4677 15.4077 96.7719 13.8775C97.0762 12.3474 97.8274 10.9418 98.9305 9.83852C100.034 8.73526 101.44 7.9839 102.97 7.67946C104.5 7.37502 106.086 7.53117 107.527 8.12817C108.969 8.72516 110.201 9.73618 111.068 11.0334C111.934 12.3306 112.397 13.8557 112.397 15.4158C112.394 17.5067 111.562 19.511 110.083 20.9896C108.605 22.4682 106.601 23.3004 104.51 23.3038ZM75.1495 2.59082C72.6129 2.59082 70.1333 3.343 68.0243 4.75223C65.9152 6.16146 64.2714 8.16445 63.3007 10.5079C62.33 12.8514 62.0761 15.43 62.5709 17.9178C63.0658 20.4056 64.2872 22.6908 66.0808 24.4844C67.8744 26.2781 70.1596 27.4995 72.6474 27.9944C75.1352 28.4892 77.7139 28.2353 80.0574 27.2646C82.4009 26.2939 84.4038 24.6501 85.8131 22.541C87.2223 20.4319 87.9745 17.9523 87.9745 15.4158C87.9705 12.0156 86.618 8.75586 84.2137 6.35157C81.8094 3.94727 78.5497 2.59479 75.1495 2.59082ZM75.1495 23.3038C73.6959 23.3045 72.2705 22.9036 71.0304 22.1453C69.7904 21.387 68.7839 20.3009 68.1222 19.0067C67.4606 17.7125 67.1693 16.2606 67.2807 14.8114C67.3921 13.3621 67.9017 11.9718 68.7534 10.7939C69.6051 9.61608 70.7657 8.69643 72.107 8.13653C73.4484 7.57662 74.9184 7.39824 76.3547 7.62106C77.7911 7.84389 79.1379 8.45925 80.2466 9.39924C81.3553 10.3392 82.1827 11.5673 82.6375 12.9478H75.1495V17.8838H82.6375C82.1166 19.4591 81.113 20.8305 79.7689 21.8033C78.4249 22.7762 76.8087 23.3011 75.1495 23.3038Z" fill="white" fill-opacity="0.8"/>
</svg>
