<svg width="117" height="117" viewBox="0 0 117 117" fill="none" xmlns="http://www.w3.org/2000/svg">
<path fill-rule="evenodd" clip-rule="evenodd" d="M3.5 6.95801C5.15685 6.95801 6.5 5.61486 6.5 3.95801C6.5 2.30115 5.15685 0.958008 3.5 0.958008C1.84315 0.958008 0.5 2.30115 0.5 3.95801C0.5 5.61486 1.84315 6.95801 3.5 6.95801ZM3.5 50.958C5.15685 50.958 6.5 49.6149 6.5 47.958C6.5 46.3012 5.15685 44.958 3.5 44.958C1.84315 44.958 0.5 46.3012 0.5 47.958C0.5 49.6149 1.84315 50.958 3.5 50.958ZM6.5 91.958C6.5 93.6149 5.15685 94.958 3.5 94.958C1.84315 94.958 0.5 93.6149 0.5 91.958C0.5 90.3012 1.84315 88.958 3.5 88.958C5.15685 88.958 6.5 90.3012 6.5 91.958ZM3.5 28.958C5.15685 28.958 6.5 27.6149 6.5 25.958C6.5 24.3012 5.15685 22.958 3.5 22.958C1.84315 22.958 0.5 24.3012 0.5 25.958C0.5 27.6149 1.84315 28.958 3.5 28.958ZM6.5 69.958C6.5 71.6149 5.15685 72.958 3.5 72.958C1.84315 72.958 0.5 71.6149 0.5 69.958C0.5 68.3012 1.84315 66.958 3.5 66.958C5.15685 66.958 6.5 68.3012 6.5 69.958ZM3.5 116.958C5.15685 116.958 6.5 115.615 6.5 113.958C6.5 112.301 5.15685 110.958 3.5 110.958C1.84315 110.958 0.5 112.301 0.5 113.958C0.5 115.615 1.84315 116.958 3.5 116.958ZM94.5 3.95801C94.5 5.61486 93.1569 6.95801 91.5 6.95801C89.8431 6.95801 88.5 5.61486 88.5 3.95801C88.5 2.30115 89.8431 0.958008 91.5 0.958008C93.1569 0.958008 94.5 2.30115 94.5 3.95801ZM91.5 50.958C93.1569 50.958 94.5 49.6149 94.5 47.958C94.5 46.3012 93.1569 44.958 91.5 44.958C89.8431 44.958 88.5 46.3012 88.5 47.958C88.5 49.6149 89.8431 50.958 91.5 50.958ZM94.5 91.958C94.5 93.6149 93.1569 94.958 91.5 94.958C89.8431 94.958 88.5 93.6149 88.5 91.958C88.5 90.3012 89.8431 88.958 91.5 88.958C93.1569 88.958 94.5 90.3012 94.5 91.958ZM91.5 28.958C93.1569 28.958 94.5 27.6149 94.5 25.958C94.5 24.3012 93.1569 22.958 91.5 22.958C89.8431 22.958 88.5 24.3012 88.5 25.958C88.5 27.6149 89.8431 28.958 91.5 28.958ZM94.5 69.958C94.5 71.6149 93.1569 72.958 91.5 72.958C89.8431 72.958 88.5 71.6149 88.5 69.958C88.5 68.3012 89.8431 66.958 91.5 66.958C93.1569 66.958 94.5 68.3012 94.5 69.958ZM91.5 116.958C93.1569 116.958 94.5 115.615 94.5 113.958C94.5 112.301 93.1569 110.958 91.5 110.958C89.8431 110.958 88.5 112.301 88.5 113.958C88.5 115.615 89.8431 116.958 91.5 116.958ZM50.5 3.95801C50.5 5.61486 49.1569 6.95801 47.5 6.95801C45.8431 6.95801 44.5 5.61486 44.5 3.95801C44.5 2.30115 45.8431 0.958008 47.5 0.958008C49.1569 0.958008 50.5 2.30115 50.5 3.95801ZM47.5 50.958C49.1569 50.958 50.5 49.6149 50.5 47.958C50.5 46.3012 49.1569 44.958 47.5 44.958C45.8431 44.958 44.5 46.3012 44.5 47.958C44.5 49.6149 45.8431 50.958 47.5 50.958ZM50.5 91.958C50.5 93.6149 49.1569 94.958 47.5 94.958C45.8431 94.958 44.5 93.6149 44.5 91.958C44.5 90.3012 45.8431 88.958 47.5 88.958C49.1569 88.958 50.5 90.3012 50.5 91.958ZM47.5 28.958C49.1569 28.958 50.5 27.6149 50.5 25.958C50.5 24.3012 49.1569 22.958 47.5 22.958C45.8431 22.958 44.5 24.3012 44.5 25.958C44.5 27.6149 45.8431 28.958 47.5 28.958ZM50.5 69.958C50.5 71.6149 49.1569 72.958 47.5 72.958C45.8431 72.958 44.5 71.6149 44.5 69.958C44.5 68.3012 45.8431 66.958 47.5 66.958C49.1569 66.958 50.5 68.3012 50.5 69.958ZM47.5 116.958C49.1569 116.958 50.5 115.615 50.5 113.958C50.5 112.301 49.1569 110.958 47.5 110.958C45.8431 110.958 44.5 112.301 44.5 113.958C44.5 115.615 45.8431 116.958 47.5 116.958ZM28.5 3.95801C28.5 5.61486 27.1569 6.95801 25.5 6.95801C23.8431 6.95801 22.5 5.61486 22.5 3.95801C22.5 2.30115 23.8431 0.958008 25.5 0.958008C27.1569 0.958008 28.5 2.30115 28.5 3.95801ZM25.5 50.958C27.1569 50.958 28.5 49.6149 28.5 47.958C28.5 46.3012 27.1569 44.958 25.5 44.958C23.8431 44.958 22.5 46.3012 22.5 47.958C22.5 49.6149 23.8431 50.958 25.5 50.958ZM28.5 91.958C28.5 93.6149 27.1569 94.958 25.5 94.958C23.8431 94.958 22.5 93.6149 22.5 91.958C22.5 90.3012 23.8431 88.958 25.5 88.958C27.1569 88.958 28.5 90.3012 28.5 91.958ZM25.5 28.958C27.1569 28.958 28.5 27.6149 28.5 25.958C28.5 24.3012 27.1569 22.958 25.5 22.958C23.8431 22.958 22.5 24.3012 22.5 25.958C22.5 27.6149 23.8431 28.958 25.5 28.958ZM28.5 69.958C28.5 71.6149 27.1569 72.958 25.5 72.958C23.8431 72.958 22.5 71.6149 22.5 69.958C22.5 68.3012 23.8431 66.958 25.5 66.958C27.1569 66.958 28.5 68.3012 28.5 69.958ZM25.5 116.958C27.1569 116.958 28.5 115.615 28.5 113.958C28.5 112.301 27.1569 110.958 25.5 110.958C23.8431 110.958 22.5 112.301 22.5 113.958C22.5 115.615 23.8431 116.958 25.5 116.958ZM116.5 3.95801C116.5 5.61486 115.157 6.95801 113.5 6.95801C111.843 6.95801 110.5 5.61486 110.5 3.95801C110.5 2.30115 111.843 0.958008 113.5 0.958008C115.157 0.958008 116.5 2.30115 116.5 3.95801ZM113.5 50.958C115.157 50.958 116.5 49.6149 116.5 47.958C116.5 46.3012 115.157 44.958 113.5 44.958C111.843 44.958 110.5 46.3012 110.5 47.958C110.5 49.6149 111.843 50.958 113.5 50.958ZM116.5 91.958C116.5 93.6149 115.157 94.958 113.5 94.958C111.843 94.958 110.5 93.6149 110.5 91.958C110.5 90.3012 111.843 88.958 113.5 88.958C115.157 88.958 116.5 90.3012 116.5 91.958ZM113.5 28.958C115.157 28.958 116.5 27.6149 116.5 25.958C116.5 24.3012 115.157 22.958 113.5 22.958C111.843 22.958 110.5 24.3012 110.5 25.958C110.5 27.6149 111.843 28.958 113.5 28.958ZM116.5 69.958C116.5 71.6149 115.157 72.958 113.5 72.958C111.843 72.958 110.5 71.6149 110.5 69.958C110.5 68.3012 111.843 66.958 113.5 66.958C115.157 66.958 116.5 68.3012 116.5 69.958ZM113.5 116.958C115.157 116.958 116.5 115.615 116.5 113.958C116.5 112.301 115.157 110.958 113.5 110.958C111.843 110.958 110.5 112.301 110.5 113.958C110.5 115.615 111.843 116.958 113.5 116.958ZM72.5 3.95801C72.5 5.61486 71.1569 6.95801 69.5 6.95801C67.8431 6.95801 66.5 5.61486 66.5 3.95801C66.5 2.30115 67.8431 0.958008 69.5 0.958008C71.1569 0.958008 72.5 2.30115 72.5 3.95801ZM69.5 50.958C71.1569 50.958 72.5 49.6149 72.5 47.958C72.5 46.3012 71.1569 44.958 69.5 44.958C67.8431 44.958 66.5 46.3012 66.5 47.958C66.5 49.6149 67.8431 50.958 69.5 50.958ZM72.5 91.958C72.5 93.6149 71.1569 94.958 69.5 94.958C67.8431 94.958 66.5 93.6149 66.5 91.958C66.5 90.3012 67.8431 88.958 69.5 88.958C71.1569 88.958 72.5 90.3012 72.5 91.958ZM69.5 28.958C71.1569 28.958 72.5 27.6149 72.5 25.958C72.5 24.3012 71.1569 22.958 69.5 22.958C67.8431 22.958 66.5 24.3012 66.5 25.958C66.5 27.6149 67.8431 28.958 69.5 28.958ZM72.5 69.958C72.5 71.6149 71.1569 72.958 69.5 72.958C67.8431 72.958 66.5 71.6149 66.5 69.958C66.5 68.3012 67.8431 66.958 69.5 66.958C71.1569 66.958 72.5 68.3012 72.5 69.958ZM69.5 116.958C71.1569 116.958 72.5 115.615 72.5 113.958C72.5 112.301 71.1569 110.958 69.5 110.958C67.8431 110.958 66.5 112.301 66.5 113.958C66.5 115.615 67.8431 116.958 69.5 116.958Z" fill="#55AAF1"/>
</svg>
