<svg width="37" height="28" viewBox="0 0 37 28" fill="none" xmlns="http://www.w3.org/2000/svg">
<path d="M8.40954 11.1044C7.99821 11.1044 7.60349 11.1658 7.21061 11.2217C7.33788 10.8032 7.46884 10.3776 7.67911 9.99523C7.88939 9.43972 8.21771 8.95816 8.54419 8.47299C8.81718 7.94814 9.29859 7.59282 9.65274 7.14373C10.0235 6.70725 10.5289 6.41687 10.9291 6.05435C11.322 5.67559 11.8366 5.48621 12.2461 5.21928C12.674 4.9794 13.0466 4.71427 13.4451 4.58802L14.4392 4.18761L15.3135 3.8323L14.419 0.336914L13.3178 0.596633C12.9655 0.683206 12.5357 0.784208 12.0469 0.90505C11.5471 0.99523 11.014 1.24232 10.4201 1.46778C9.8335 1.72389 9.15472 1.89703 8.5239 2.30826C7.88939 2.70144 7.15712 3.0297 6.51154 3.55635C5.88625 4.09924 5.13185 4.56998 4.5748 5.26076C3.96612 5.90645 3.36481 6.58461 2.89814 7.35655C2.3577 8.09242 1.99065 8.90044 1.6033 9.69944C1.25284 10.4984 0.970631 11.3155 0.740068 12.1091C0.302919 13.6998 0.107401 15.2113 0.0317758 16.5044C-0.0309375 17.7994 0.00595269 18.8762 0.0834221 19.6553C0.11109 20.0233 0.162736 20.3804 0.199626 20.6275L0.245739 20.9305L0.293696 20.9197C0.621763 22.4182 1.37698 23.7952 2.47199 24.8915C3.56701 25.9879 4.95706 26.7587 6.48136 27.1148C8.00566 27.4708 9.60192 27.3977 11.0855 26.9037C12.569 26.4098 13.8793 25.5153 14.8646 24.3236C15.8499 23.1319 16.4701 21.6918 16.6534 20.1699C16.8367 18.648 16.5756 17.1064 15.9003 15.7235C15.2251 14.3406 14.1632 13.1729 12.8376 12.3555C11.5119 11.5381 9.97674 11.1043 8.40954 11.1044ZM28.6991 11.1044C28.2878 11.1044 27.8931 11.1658 27.5002 11.2217C27.6275 10.8032 27.7584 10.3776 27.9687 9.99523C28.179 9.43972 28.5073 8.95816 28.8338 8.47299C29.1068 7.94814 29.5882 7.59282 29.9423 7.14373C30.3131 6.70725 30.8185 6.41687 31.2187 6.05435C31.6116 5.67559 32.1262 5.48621 32.5357 5.21928C32.9637 4.9794 33.3362 4.71427 33.7347 4.58802L34.7288 4.18761L35.6031 3.8323L34.7086 0.336914L33.6074 0.596633C33.2551 0.683206 32.8253 0.784208 32.3365 0.90505C31.8367 0.99523 31.3036 1.24232 30.7097 1.46778C30.125 1.72569 29.4443 1.89703 28.8135 2.31006C28.179 2.70325 27.4467 3.0315 26.8011 3.55816C26.1759 4.10104 25.4215 4.57178 24.8644 5.26076C24.2557 5.90645 23.6544 6.58461 23.1878 7.35655C22.6473 8.09242 22.2803 8.90044 21.8929 9.69944C21.5424 10.4984 21.2602 11.3155 21.0297 12.1091C20.5925 13.6998 20.397 15.2113 20.3214 16.5044C20.2587 17.7994 20.2956 18.8762 20.373 19.6553C20.4007 20.0233 20.4523 20.3804 20.4892 20.6275L20.5353 20.9305L20.5833 20.9197C20.9114 22.4182 21.6666 23.7952 22.7616 24.8915C23.8566 25.9879 25.2467 26.7587 26.771 27.1148C28.2953 27.4708 29.8915 27.3977 31.3751 26.9037C32.8586 26.4098 34.1689 25.5153 35.1542 24.3236C36.1395 23.1319 36.7597 21.6918 36.943 20.1699C37.1263 18.648 36.8652 17.1064 36.1899 15.7235C35.5147 14.3406 34.4528 13.1729 33.1272 12.3555C31.8015 11.5381 30.2663 11.1043 28.6991 11.1044Z" fill="#1D4ED8"/>
</svg>
