<svg width="1920" height="591" viewBox="0 0 1920 591" fill="none" xmlns="http://www.w3.org/2000/svg">
<path opacity="0.8" fill-rule="evenodd" clip-rule="evenodd" d="M2009.24 538.245C1922.65 572.852 1697.81 625.499 1491.09 559.237C1426.45 538.519 1401.53 509.07 1394.92 476.281C1391.62 459.909 1392.89 442.737 1396.01 425.46C1398.26 412.985 1401.49 400.435 1404.66 388.085L1404.66 388.074C1405.88 383.331 1407.09 378.617 1408.23 373.948C1416.5 340.24 1421.34 308.908 1401.42 285.175C1391.46 273.304 1375.27 263.298 1350.13 255.86C1324.98 248.423 1290.89 243.561 1245.16 241.962C1107.43 237.147 1012.99 266.502 933.072 291.344C906.85 299.495 882.191 307.16 858.078 312.973C809.276 324.738 762.725 328.908 710.039 314.114C657.36 299.323 598.581 265.583 525.3 201.589C452.086 137.654 390.882 118.191 336.182 123.416C281.461 128.643 233.181 158.581 185.822 193.606C174.368 202.077 162.967 210.847 151.542 219.634L151.54 219.636C115.753 247.164 79.7343 274.869 41.1272 294.136C-9.83156 319.568 -65.3398 330.324 -130.867 306.642L-130.648 306.021C-65.3297 329.627 -10.0108 318.916 40.8278 293.545C79.373 274.308 115.32 246.658 151.096 219.14C162.53 210.345 173.947 201.563 185.426 193.074C232.793 158.042 281.199 128.005 336.113 122.759C391.047 117.511 452.426 137.078 525.732 201.094C598.971 265.051 657.664 298.724 710.211 313.478C762.751 328.231 809.18 324.08 857.917 312.331C881.979 306.531 906.606 298.875 932.807 290.731C1012.74 265.883 1107.32 236.483 1245.18 241.302C1290.94 242.902 1325.08 247.768 1350.31 255.227C1375.53 262.687 1391.85 272.747 1401.93 284.754C1422.09 308.777 1417.13 340.445 1408.88 374.111C1407.73 378.798 1406.51 383.524 1405.29 388.276L1405.29 388.281C1402.12 400.621 1398.91 413.134 1396.66 425.584C1393.54 442.823 1392.29 459.902 1395.57 476.157C1402.12 508.622 1426.78 537.933 1491.28 558.608C1697.81 624.807 1922.48 572.206 2008.99 537.632L2009.24 538.245ZM1518.35 518.612C1725.07 584.874 1949.91 532.227 2036.5 497.62L2036.25 497.007C1949.74 531.581 1725.07 584.182 1518.54 517.983C1454.04 497.307 1429.38 467.997 1422.83 435.532C1419.55 419.277 1420.8 402.198 1423.92 384.959C1426.17 372.509 1429.38 359.996 1432.55 347.656L1432.55 347.651C1433.77 342.899 1434.99 338.173 1436.14 333.486C1444.39 299.82 1449.35 268.152 1429.19 244.129C1419.11 232.122 1402.79 222.061 1377.57 214.602C1352.34 207.143 1318.2 202.277 1272.44 200.677C1134.58 195.858 1040 225.258 960.066 250.106C933.866 258.25 909.238 265.905 885.177 271.706C836.44 283.455 790.011 287.606 737.471 272.853C684.923 258.099 626.231 224.426 552.991 160.469C479.685 96.4531 418.307 76.8864 363.372 82.1339C308.458 87.3794 260.053 117.417 212.685 152.449C201.206 160.938 189.79 169.72 178.355 178.515C142.58 206.033 106.632 233.683 68.0872 252.92C17.2486 278.291 -38.0703 289.002 -103.389 265.396L-103.608 266.016C-38.0803 289.699 17.4279 278.943 68.3867 253.511C106.994 234.244 143.012 206.539 178.799 179.011C190.224 170.223 201.626 161.453 213.081 152.981C260.44 117.956 308.721 88.0184 363.441 82.7913C418.141 77.5662 479.346 97.0289 552.56 160.964C625.84 224.957 684.62 258.697 737.298 273.489C789.984 288.283 836.536 284.113 885.337 272.348C909.45 266.535 934.11 258.87 960.331 250.719C1040.25 225.877 1134.69 196.522 1272.42 201.337C1318.15 202.936 1352.24 207.798 1377.38 215.235C1402.53 222.673 1418.72 232.679 1428.68 244.55C1448.6 268.283 1443.76 299.614 1435.49 333.323C1434.35 337.988 1433.14 342.697 1431.92 347.436L1431.92 347.448L1431.92 347.46C1428.75 359.81 1425.52 372.36 1423.27 384.835C1420.15 402.112 1418.88 419.284 1422.18 435.656C1428.79 468.445 1453.71 497.894 1518.35 518.612ZM2063.76 456.995C1977.17 491.602 1752.33 544.249 1545.61 477.987C1480.97 457.269 1456.05 427.82 1449.44 395.031C1446.14 378.659 1447.41 361.487 1450.53 344.21C1452.78 331.736 1456 319.187 1459.18 306.839L1459.18 306.835L1459.18 306.824C1460.4 302.08 1461.61 297.367 1462.75 292.698C1471.02 258.989 1475.86 227.658 1455.94 203.925C1445.98 192.054 1429.79 182.047 1404.64 174.61C1379.5 167.172 1345.41 162.311 1299.68 160.712C1161.95 155.897 1067.51 185.252 987.591 210.094L987.59 210.094C961.368 218.245 936.71 225.91 912.597 231.723C863.795 243.488 817.244 247.657 764.558 232.864C711.879 218.072 653.1 184.332 579.819 120.339C506.605 56.4036 445.401 36.941 390.701 42.1661C335.98 47.3932 287.7 77.3304 240.34 112.356C228.886 120.828 217.484 129.598 206.059 138.386C170.272 165.913 134.253 193.619 95.6462 212.886C44.6874 238.318 -10.8208 249.074 -76.3482 225.391L-76.1292 224.77C-10.8108 248.377 44.5081 237.666 95.3467 212.294C133.892 193.058 169.839 165.408 205.615 137.89C217.049 129.094 228.466 120.313 239.944 111.824C287.312 76.7917 335.718 46.7542 390.632 41.5087C445.566 36.2611 506.945 55.8279 580.251 119.843C653.49 183.801 712.183 217.473 764.73 232.228C817.27 246.981 863.699 242.83 912.436 231.081C936.494 225.281 961.117 217.627 987.313 209.484L987.318 209.483L987.325 209.481L987.326 209.48C1067.26 184.633 1161.84 155.233 1299.7 160.052C1345.45 161.652 1379.6 166.517 1404.83 173.977C1430.05 181.436 1446.37 191.497 1456.45 203.503C1476.61 227.526 1471.65 259.195 1463.39 292.861C1462.25 297.548 1461.03 302.274 1459.81 307.026L1459.81 307.035C1456.64 319.374 1453.43 331.886 1451.18 344.334C1448.06 361.573 1446.81 378.651 1450.09 394.907C1456.64 427.372 1481.3 456.682 1545.8 477.358C1752.33 543.557 1977 490.956 2063.51 456.382L2063.76 456.995ZM2091.02 416.37C2004.43 450.977 1779.59 503.624 1572.87 437.362C1508.23 416.643 1483.31 387.195 1476.7 354.406C1473.4 338.034 1474.67 320.861 1477.79 303.585C1480.04 291.109 1483.26 278.559 1486.44 266.21L1486.44 266.199C1487.66 261.455 1488.87 256.741 1490.01 252.073C1498.28 218.364 1503.12 187.032 1483.2 163.3C1473.24 151.428 1457.05 141.422 1431.9 133.985C1406.76 126.547 1372.67 121.686 1326.94 120.087C1189.21 115.272 1094.77 144.626 1014.85 169.469L1014.85 169.47C988.627 177.62 963.969 185.285 939.856 191.098C891.055 202.863 844.503 207.032 791.817 192.239C739.138 177.447 680.359 143.707 607.079 79.7137C533.865 15.7784 472.66 -3.68429 417.96 1.54087C363.24 6.76796 314.959 36.7051 267.6 71.7307C256.146 80.2017 244.745 88.9711 233.321 97.7586L233.318 97.7607C197.531 125.288 161.513 152.993 122.906 172.261C71.9468 197.692 16.4387 208.448 -49.0888 184.766L-48.8698 184.145C16.4487 207.752 71.7676 197.041 122.606 171.669C161.151 152.433 197.098 124.783 232.874 97.2646L232.874 97.2643C244.309 88.4692 255.725 79.6875 267.204 71.1983C314.572 36.1664 362.977 6.12896 417.891 0.883408C472.826 -4.36414 534.204 15.2026 607.51 79.218C680.75 143.176 739.442 176.848 791.99 191.603C844.53 206.355 890.959 202.205 939.696 190.456C963.757 184.655 988.383 177 1014.58 168.856L1014.59 168.855C1094.52 144.008 1189.1 114.608 1326.95 119.427C1372.71 121.027 1406.86 125.892 1432.09 133.351C1457.31 140.811 1473.63 150.872 1483.71 162.878C1503.87 186.901 1498.91 218.57 1490.65 252.236C1489.5 256.923 1488.29 261.649 1487.07 266.4L1487.07 266.405C1483.9 278.746 1480.69 291.259 1478.44 303.708C1475.32 320.948 1474.07 338.026 1477.35 354.281C1483.9 386.747 1508.56 416.057 1573.06 436.733C1779.59 502.931 2004.26 450.331 2090.77 415.756L2091.02 416.37Z" fill="url(#paint0_linear_516_3665)"/>
<defs>
<linearGradient id="paint0_linear_516_3665" x1="124.647" y1="141.758" x2="2072.01" y2="141.758" gradientUnits="userSpaceOnUse">
<stop offset="0.310417" stop-color="#4535AF" stop-opacity="0.7"/>
<stop offset="0.461458" stop-color="#F8EFF4" stop-opacity="0.1"/>
<stop offset="0.851637" stop-color="#4535AF" stop-opacity="0.8"/>
</linearGradient>
</defs>
</svg>
